<svg viewBox="0 0 1498 400" xmlns="http://www.w3.org/2000/svg"><g><g><g><g><g><line x1="70" y1="378" x2="65" y2="378" style="visibility: inherit;" fill="rgb(0, 0, 0)" stroke="rgb(204, 204, 204)" stroke-width="1px"></line><line x1="70" y1="336" x2="65" y2="336" style="visibility: inherit;" fill="rgb(0, 0, 0)" stroke="rgb(204, 204, 204)" stroke-width="1px"></line><line x1="70" y1="294" x2="65" y2="294" style="visibility: inherit;" fill="rgb(0, 0, 0)" stroke="rgb(204, 204, 204)" stroke-width="1px"></line><line x1="70" y1="252.00000000000003" x2="65" y2="252.00000000000003" style="visibility: inherit;" fill="rgb(0, 0, 0)" stroke="rgb(204, 204, 204)" stroke-width="1px"></line><line x1="70" y1="210" x2="65" y2="210" style="visibility: inherit;" fill="rgb(0, 0, 0)" stroke="rgb(204, 204, 204)" stroke-width="1px"></line><line x1="70" y1="168" x2="65" y2="168" style="visibility: inherit;" fill="rgb(0, 0, 0)" stroke="rgb(204, 204, 204)" stroke-width="1px"></line><line x1="70" y1="126" x2="65" y2="126" style="visibility: inherit;" fill="rgb(0, 0, 0)" stroke="rgb(204, 204, 204)" stroke-width="1px"></line><line x1="70" y1="84" x2="65" y2="84" style="visibility: inherit;" fill="rgb(0, 0, 0)" stroke="rgb(204, 204, 204)" stroke-width="1px"></line><line x1="70" y1="42" x2="65" y2="42" style="visibility: inherit;" fill="rgb(0, 0, 0)" stroke="rgb(204, 204, 204)" stroke-width="1px"></line><line x1="70" y1="0" x2="65" y2="0" style="visibility: inherit;" fill="rgb(0, 0, 0)" stroke="rgb(204, 204, 204)" stroke-width="1px"></line></g><g transform="translate(60, 0)"><text x="0" y="378" dx="0em" dy="0.3em" style="text-anchor: end; visibility: hidden; font-family: &quot;Helvetica Neue&quot;, sans-serif; font-size: 12px; font-weight: 200;" fill="rgb(50, 49, 63)" stroke="none" stroke-width="1px">0.400</text><text x="0" y="336" dx="0em" dy="0.3em" style="text-anchor: end; visibility: inherit; font-family: &quot;Helvetica Neue&quot;, sans-serif; font-size: 12px; font-weight: 200;" fill="rgb(50, 49, 63)" stroke="none" stroke-width="1px">0.500</text><text x="0" y="294" dx="0em" dy="0.3em" style="text-anchor: end; visibility: inherit; font-family: &quot;Helvetica Neue&quot;, sans-serif; font-size: 12px; font-weight: 200;" fill="rgb(50, 49, 63)" stroke="none" stroke-width="1px">0.600</text><text x="0" y="252.00000000000003" dx="0em" dy="0.3em" style="text-anchor: end; visibility: inherit; font-family: &quot;Helvetica Neue&quot;, sans-serif; font-size: 12px; font-weight: 200;" fill="rgb(50, 49, 63)" stroke="none" stroke-width="1px">0.700</text><text x="0" y="210" dx="0em" dy="0.3em" style="text-anchor: end; visibility: inherit; font-family: &quot;Helvetica Neue&quot;, sans-serif; font-size: 12px; font-weight: 200;" fill="rgb(50, 49, 63)" stroke="none" stroke-width="1px">0.800</text><text x="0" y="168" dx="0em" dy="0.3em" style="text-anchor: end; visibility: inherit; font-family: &quot;Helvetica Neue&quot;, sans-serif; font-size: 12px; font-weight: 200;" fill="rgb(50, 49, 63)" stroke="none" stroke-width="1px">0.900</text><text x="0" y="126" dx="0em" dy="0.3em" style="text-anchor: end; visibility: inherit; font-family: &quot;Helvetica Neue&quot;, sans-serif; font-size: 12px; font-weight: 200;" fill="rgb(50, 49, 63)" stroke="none" stroke-width="1px">1.00</text><text x="0" y="84" dx="0em" dy="0.3em" style="text-anchor: end; visibility: inherit; font-family: &quot;Helvetica Neue&quot;, sans-serif; font-size: 12px; font-weight: 200;" fill="rgb(50, 49, 63)" stroke="none" stroke-width="1px">1.10</text><text x="0" y="42" dx="0em" dy="0.3em" style="text-anchor: end; visibility: inherit; font-family: &quot;Helvetica Neue&quot;, sans-serif; font-size: 12px; font-weight: 200;" fill="rgb(50, 49, 63)" stroke="none" stroke-width="1px">1.20</text><text x="0" y="0" dx="0em" dy="0.3em" style="text-anchor: end; visibility: hidden; font-family: &quot;Helvetica Neue&quot;, sans-serif; font-size: 12px; font-weight: 200;" fill="rgb(50, 49, 63)" stroke="none" stroke-width="1px">1.30</text></g><line x1="70" y1="0" x2="70" y2="378" fill="rgb(0, 0, 0)" stroke="rgb(204, 204, 204)" stroke-width="1px"></line></g></g><g transform="translate(70, 0)" clip-path="url(#clip_0)"><clipPath id="clip_0"><rect width="1428" height="378"></rect></clipPath><g><g><g><line x1="0" y1="0" x2="0" y2="378" fill="rgb(0, 0, 0)" stroke="rgb(60, 60, 60)" stroke-width="1px" opacity="0.25"></line><line x1="119" y1="0" x2="119" y2="378" fill="rgb(0, 0, 0)" stroke="rgb(60, 60, 60)" stroke-width="1px" opacity="0.25"></line><line x1="238" y1="0" x2="238" y2="378" fill="rgb(0, 0, 0)" stroke="rgb(60, 60, 60)" stroke-width="1px" opacity="0.25"></line><line x1="357" y1="0" x2="357" y2="378" fill="rgb(0, 0, 0)" stroke="rgb(60, 60, 60)" stroke-width="1px" opacity="0.25"></line><line x1="476" y1="0" x2="476" y2="378" fill="rgb(0, 0, 0)" stroke="rgb(60, 60, 60)" stroke-width="1px" opacity="0.25"></line><line x1="595" y1="0" x2="595" y2="378" fill="rgb(0, 0, 0)" stroke="rgb(60, 60, 60)" stroke-width="1px" opacity="0.25"></line><line x1="714" y1="0" x2="714" y2="378" fill="rgb(0, 0, 0)" stroke="rgb(60, 60, 60)" stroke-width="1px" opacity="0.25"></line><line x1="833" y1="0" x2="833" y2="378" fill="rgb(0, 0, 0)" stroke="rgb(60, 60, 60)" stroke-width="1px" opacity="0.25"></line><line x1="952" y1="0" x2="952" y2="378" fill="rgb(0, 0, 0)" stroke="rgb(60, 60, 60)" stroke-width="1px" opacity="0.25"></line><line x1="1071" y1="0" x2="1071" y2="378" fill="rgb(0, 0, 0)" stroke="rgb(60, 60, 60)" stroke-width="1px" opacity="0.25"></line><line x1="1190" y1="0" x2="1190" y2="378" fill="rgb(0, 0, 0)" stroke="rgb(60, 60, 60)" stroke-width="1px" opacity="0.25"></line><line x1="1309" y1="0" x2="1309" y2="378" fill="rgb(0, 0, 0)" stroke="rgb(60, 60, 60)" stroke-width="1px" opacity="0.25"></line><line x1="1428" y1="0" x2="1428" y2="378" fill="rgb(0, 0, 0)" stroke="rgb(60, 60, 60)" stroke-width="1px" opacity="0.25"></line></g><g><line x1="0" y1="378" x2="1428" y2="378" fill="rgb(0, 0, 0)" stroke="rgb(60, 60, 60)" stroke-width="1px" opacity="0.25"></line><line x1="0" y1="336" x2="1428" y2="336" fill="rgb(0, 0, 0)" stroke="rgb(60, 60, 60)" stroke-width="1px" opacity="0.25"></line><line x1="0" y1="294" x2="1428" y2="294" fill="rgb(0, 0, 0)" stroke="rgb(60, 60, 60)" stroke-width="1px" opacity="0.25"></line><line x1="0" y1="252.00000000000003" x2="1428" y2="252.00000000000003" fill="rgb(0, 0, 0)" stroke="rgb(60, 60, 60)" stroke-width="1px" opacity="0.25"></line><line x1="0" y1="210" x2="1428" y2="210" fill="rgb(0, 0, 0)" stroke="rgb(60, 60, 60)" stroke-width="1px" opacity="0.25"></line><line x1="0" y1="168" x2="1428" y2="168" fill="rgb(0, 0, 0)" stroke="rgb(60, 60, 60)" stroke-width="1px" opacity="0.25"></line><line x1="0" y1="126" x2="1428" y2="126" fill="rgb(0, 0, 0)" stroke="rgb(60, 60, 60)" stroke-width="1px" opacity="0.25"></line><line x1="0" y1="84" x2="1428" y2="84" fill="rgb(0, 0, 0)" stroke="rgb(60, 60, 60)" stroke-width="1px" opacity="0.25"></line><line x1="0" y1="42" x2="1428" y2="42" fill="rgb(0, 0, 0)" stroke="rgb(60, 60, 60)" stroke-width="1px" opacity="0.25"></line><line x1="0" y1="0" x2="1428" y2="0" fill="rgb(0, 0, 0)" stroke="rgb(60, 60, 60)" stroke-width="1px" opacity="0.25"></line></g></g></g><g><g><line x1="0" y1="546" x2="1428" y2="546" fill="rgb(0, 0, 0)" stroke="rgb(153, 153, 153)" stroke-width="1.5px"></line></g></g><g><g><line x1="119" y1="0" x2="119" y2="378" fill="rgb(0, 0, 0)" stroke="rgb(153, 153, 153)" stroke-width="1.5px"></line></g></g><g><g><g><g><g><path stroke="rgb(0, 119, 187)" stroke-width="2px" d="M148.75,-3.855540264802869L149.94,3.4515896309304708L151.13,27.549069734823718L152.32000000000002,44.87794218335006L153.51,56.35076038480304L154.70000000000002,60.26406087593557L155.89,56.31654244308123L157.08,42.08718545226253L158.27,45.135164294476795L159.46,51.189522295266784L160.65,44.429622693116755L161.84,56.77618799891934L163.03,79.76635966663991L164.22,80.25569878905031L165.41,65.64867415197546L166.6,75.8108672114331L167.79,64.73074715868597L168.98,42.9121810464801L170.17000000000002,89.98419408831353L171.35999999999999,101.06036012784557L172.55,87.2577279166668L173.74,97.70556925313764L174.93,68.44543017427259L176.12,76.83511413037246L177.31,79.6326717192128L178.5,82.09270613517737L179.69,80.14940953925509L180.88000000000002,76.97530818387463L182.07,40.23872838257631L183.26,12.69539958140831L184.45000000000002,12.05696886719187L185.64000000000001,57.67465621198801L186.82999999999998,64.63721140602672L188.01999999999998,100.40693955647902L189.21,99.03519976751778L190.4,81.14142473111559L191.58999999999997,96.87870287638947L192.78,92.42526440466662L193.97,73.82073386100052L195.16,88.09313039533566L196.35000000000002,66.4250285896793L197.54,70.70430266100976L198.73,41.26824409507998L199.92000000000002,87.62183579649502L201.11,70.50510869530416L202.29999999999998,94.35162097279778L203.48999999999998,100.95910509863216L204.68,64.12414374613002L205.87,43.087950984616555L207.05999999999997,49.11244313715662L208.25,74.57300558566317L209.44,58.348261588092214L210.63,27.66432423190804L211.82000000000002,44.31589247463063L213.01,4.760298881995254L214.2,29.618041511814283L215.39000000000001,46.61122598435912L216.58,55.863116396584644L217.76999999999998,88.14787653274453L218.95999999999998,113.80394656173661L220.15,106.44695438571136L221.34,122.23170269505593L222.52999999999997,91.83939965353261L223.72000000000003,123.08934936395795L224.91,131.50731702727978L226.1,115.57683303405588L227.29000000000002,121.81765924960223L228.48000000000002,126.23303481978084L229.67,128.0078342738265L230.85999999999999,115.08145913973539L232.05,115.23189645704673L233.24,126.25792983589798L234.42999999999998,127.3402055944099L235.62,82.26912541658243L236.81,117.36256568116283L238,146.85056515027483L239.19000000000003,116.44849903279186L240.38,106.6995765620091L241.57,117.88254214844812L242.76000000000002,111.95420180274078L243.95000000000002,142.4296120316567L245.14,146.09192668859856L246.32999999999998,155.32144238629758L247.52,121.92007299708615L248.71,79.93400943545879L249.89999999999998,48.48784897487394L251.09,75.99222205734867L252.28,72.38511327896492L253.47,103.36874287124851L254.66000000000003,107.78407683847178L255.85,93.1807595186105L257.03999999999996,107.84822393016043L258.23,106.72105880115043L259.42,109.1544370385028L260.61,88.67178552937611L261.79999999999995,95.7550879573352L262.99,98.81505552861262L264.18,112.25729637106161L265.37,131.39720008826194L266.56,133.55535477433165L267.75,154.90926142950985L268.94,156.69962752115808L270.13,163.144470764709L271.32,147.50414118380098L272.51,137.5184076381371L273.70000000000005,152.61414574102437L274.89,187.27039546081946L276.08,150.6084944862695L277.27,126.69865992418357L278.46000000000004,133.41310102195396L279.65,134.22304047614847L280.84,135.95056794566221L282.03000000000003,105.89263443042228L283.22,42.916705536182974L284.40999999999997,41.492180685601454L285.6,70.92057544016944L286.79,69.22088087811534L287.98,51.198565514173936L289.17,102.10049402194431L290.36,130.45654771016368L291.55,145.63901651672322L292.74,144.0540240572202L293.93,147.862102792639L295.12,126.93716314195305L296.31,117.12477881168547L297.5,147.65942348513138L298.69,159.25115440769872L299.88,152.39479207088883L301.07,143.70995549613434L302.26,150.46209771784666L303.45,146.94533934207277L304.64000000000004,171.33696564442823L305.83,168.39778752569504L307.02,155.2164959635982L308.21,154.31687677661475L309.40000000000003,148.5182833001607L310.59,171.71209083352053L311.78,127.60423356505373L312.97,135.97597407229034L314.16,136.9292690213161L315.34999999999997,126.86792518232093L316.54,147.37679987867966L317.73,162.50481279921704L318.92,171.36366496224508L320.10999999999996,162.9117052181918L321.3,177.23249857570877L322.49,145.23693948356004L323.68,113.33685668330008L324.87,58.20695791256793L326.06,74.6457127190373L327.25,109.08074962238919L328.44,132.1870279976157L329.63,146.56769603898692L330.82,160.18000599390604L332.01,155.41350114730795L333.2,177.35932953588846L334.39,125.61534423489982L335.58,129.20459558284057L336.77,137.97299738952978L337.96,174.70286619800012L339.15,145.70269010149048L340.34000000000003,161.46838358451492L341.53,147.50098845606786L342.71999999999997,162.0169232204303L343.91,186.06043984381824L345.1,194.2217735879926L346.28999999999996,171.34160297115494L347.48,155.00222921967415L348.67,176.96868124365753L349.86,188.09373573517766L351.04999999999995,181.01759922537784L352.24,160.60291907807337L353.43,157.20777824890703L354.62,151.05765568835787L355.81,159.70094854607137L357,150.68972014769284L358.19000000000005,138.88161162963138L359.38,148.51497962731497L360.57,158.0731743494175L361.76000000000005,171.7685570907296L362.95,188.4244011039556L364.14,187.19246367186435L365.33000000000004,193.97981860381438L366.52,198.04553247774888L367.71000000000004,185.92488456538467L368.90000000000003,213.3320879505345L370.09,210.25080954827482L371.28000000000003,180.3131686436988L372.46999999999997,161.7329264395152L373.65999999999997,158.48365349249332L374.85,196.0103770892399L376.03999999999996,158.7843796730386L377.23,149.32936975481195L378.42,174.71709807587914L379.60999999999996,151.2153939239577L380.8,170.96056331589196L381.99,132.70672853824124L383.17999999999995,158.70174956343544L384.37,201.66066012395606L385.56,205.80489054687732L386.75,201.02561497311538L387.94,183.3988032795235L389.13000000000005,198.11332514627244L390.32,169.67792102541608L391.51,181.6011970808869L392.70000000000005,185.49611282174382L393.89,179.9487195958173L395.08,201.69349771436907L396.27000000000004,138.6617975574545L397.46,160.57544633995366L398.65000000000003,192.91764634401127L399.84000000000003,207.35100341767387L401.03,178.10770354825445L402.22,153.35854474400398L403.40999999999997,173.97976450738258L404.59999999999997,179.6446492470321L405.79,172.01770690661772L406.97999999999996,156.64298660506068L408.17,166.50741309493344L409.36,168.898164478359L410.54999999999995,200.09614031756962L411.74,161.83132520464085L412.93,137.31890925852667L414.11999999999995,134.1342267578138L415.31,123.05824754150467L416.5,150.66821707196092L417.69,152.32199500147732L418.88,190.98305782165664L420.07000000000005,168.04027166656576L421.26,159.4222511690373L422.45,155.28848530301545L423.64000000000004,173.50340238481218L424.83,179.22384891074574L426.02,169.06169019437837L427.21000000000004,214.81063834605817L428.4,216.7696674810541L429.59000000000003,163.46076384465053L430.78000000000003,195.95795225668047L431.96999999999997,194.94866308908522L433.16,183.54405403936423L434.34999999999997,174.07647886755777L435.53999999999996,181.86574138929075L436.73,198.6084669931509L437.91999999999996,209.75642731808293L439.11,215.27519676102798L440.3,215.89531872876648L441.48999999999995,196.15704845314121L442.68,210.15932735755976L443.87,156.9186663684543L445.05999999999995,169.4632252727327L446.25,207.31548780646196L447.44000000000005,204.3393281605618L448.63,179.10545217435222L449.82,154.73679120207234L451.01000000000005,148.40043043413402L452.2,156.00107788633494L453.39,173.99164023155683L454.58000000000004,183.77984312864967L455.77,194.69960934932723L456.96000000000004,152.7917584837419L458.15000000000003,152.49492642050637L459.34,170.98550546625646L460.53000000000003,201.87919457232593L461.71999999999997,229.31942357704426L462.90999999999997,225.67850469401708L464.1,209.94439758569735L465.28999999999996,198.4345268113061L466.48,184.6089599908975L467.67,198.1056740749828L468.85999999999996,223.19037969523384L470.05,216.30647539862227L471.24,226.34214463095805L472.42999999999995,246.0066888705548L473.62,256.5107896551881L474.81,231.69081217201912L476,191.44628280492046L477.19,158.55917154605044L478.38000000000005,202.89063741478236L479.57,206.72855874128888L480.76,219.97447254793494L481.95000000000005,229.73051349244506L483.14,197.4318162436604L484.33,238.23891200037718L485.52000000000004,249.8806325281377L486.71,237.3412159731814L487.90000000000003,220.89561617677384L489.09000000000003,238.48021638575185L490.28,258.12809393514976L491.47,242.39571660584085L492.65999999999997,198.0054101575963L493.84999999999997,209.57309529957485L495.04,193.11106794939826L496.22999999999996,215.34260712782378L497.42,220.85155169200797L498.61,199.45615949649752L499.79999999999995,243.0365271950909L500.99,223.8843218079298L502.18,215.64439809269248L503.36999999999995,222.2211180922183L504.56,205.8837619541164L505.75,233.6579492996976L506.94,252.22116671269205L508.13,234.20117346206348L509.32000000000005,238.0728914246502L510.51,247.7544317427601L511.7,234.63375378747733L512.89,210.8064691609141L514.0799999999999,199.0663851968048L515.27,228.6862380547284L516.46,192.29934010761733L517.65,196.93862162743662L518.84,231.91998688408526L520.0300000000001,237.03334589021676L521.22,253.0486102295951L522.41,271.00914488989326L523.5999999999999,233.22794243549237L524.79,192.29435031923612L525.98,190.4468477327404L527.17,208.85632627956733L528.36,181.65972958655757L529.5500000000001,175.27574392945527L530.74,177.40913055414535L531.93,186.26675919338805L533.12,173.00910889890636L534.31,205.15239908568176L535.5,238.2909299032218L536.69,220.9787444768147L537.88,228.09683387862424L539.07,218.42142372957935L540.26,227.33221539039653L541.4499999999999,234.9927286635592L542.64,259.7642981249544L543.83,220.97750053634957L545.02,191.35210567611884L546.21,184.4591472023632L547.4000000000001,218.1906874104682L548.59,241.1097463085856L549.78,226.03798189846313L550.9699999999999,232.02459635190746L552.16,217.8525736680781L553.35,243.00554425425264L554.54,209.7543543273624L555.73,242.86806583967308L556.9200000000001,219.41884603838028L558.11,181.80575460636558L559.3,202.70653149154154L560.49,201.73327043453676L561.68,199.89753615140813L562.87,212.23791524934708L564.0600000000001,229.4029902766224L565.25,239.58816085756283L566.44,234.03248082697664L567.63,226.50959107339546L568.8199999999999,206.34930751955605L570.01,231.1954281701809L571.2,236.4924566968778L572.39,241.1459045067131L573.58,246.7655278953731L574.77,244.2384419508469L575.96,255.33725881980016L577.15,249.5479462647805L578.34,232.4610364737731L579.53,249.94219223872554L580.72,245.79474630484418L581.91,259.9853287132348L583.1,262.12027647446195L584.29,256.23300363034366L585.48,269.6122452819965L586.67,275.60257742432486L587.86,280.2352751113637L589.05,279.78031702146905L590.24,263.5900252539276L591.4300000000001,239.30817364921324L592.62,204.64259805244302L593.81,213.2868738529807L595,229.2902790282801L596.1899999999999,188.67533833829378L597.38,208.72919973759542L598.57,215.56499910967761L599.76,207.52502260576017L600.95,230.5397412894388L602.14,231.27014566172483L603.3299999999999,227.43895812457396L604.52,217.49040095582959L605.71,227.0356070552788L606.9,207.6707512113167L608.09,220.98455121354542L609.2800000000001,229.1216930999534L610.47,231.3306927474843L611.66,246.17893208220642L612.8499999999999,220.6804326364699L614.04,210.9748188012423L615.23,226.04057012519732L616.42,237.01372338844237L617.61,227.5740042776638L618.8000000000001,202.0531629235014L619.99,204.7571719354668L621.18,218.23826998867264L622.37,211.41678782938524L623.56,203.83040068530207L624.75,214.98583043803671L625.94,197.34361475223247L627.13,216.128086385214L628.32,241.50334786002855L629.51,248.38357743397367L630.6999999999999,221.27409100994473L631.89,238.61706891337042L633.08,194.69634856390363L634.27,182.03537457947377L635.46,203.5116284952428L636.6500000000001,222.81274129544892L637.84,248.3734886264515L639.03,217.01163523290825L640.2199999999999,223.8562553935902L641.41,224.2539572843109L642.6,234.64658919144838L643.79,205.12276176911098L644.98,186.6528505581707L646.1700000000001,216.5188270150477L647.36,233.3929650627884L648.55,234.1231073762961L649.74,222.70571447765752L650.93,222.74802661750275L652.12,239.17705035694576L653.3100000000001,280.78828883462035L654.5,251.3201578634553L655.69,267.46230975255804L656.88,251.84778952279942L658.0699999999999,272.1602907638505L659.26,221.0227206504795L660.45,249.17802390792687L661.64,253.8004343589468L662.83,223.94660182477975L664.02,271.48296315480434L665.21,233.96303476696713L666.4,262.8855927336544L667.59,275.64502703835547L668.78,292.6322329741119L669.97,246.50960273154965L671.16,237.57527858381508L672.35,256.62128409364846L673.54,197.28323569666756L674.73,179.9174896167005L675.92,188.16232429065016L677.11,199.01594573329515L678.3,201.660653579656L679.49,231.50186661983952L680.6800000000001,259.19845407071966L681.87,243.77719526805436L683.06,214.53359859775279L684.25,233.33123970979915L685.4399999999999,270.814302640882L686.63,254.40346367223668L687.82,240.32393950857883L689.01,230.77747489594321L690.2,238.19099837292967L691.39,228.6796007022246L692.5799999999999,240.2488517680755L693.77,255.0809234570855L694.96,270.86296085067954L696.15,242.48996202676514L697.34,254.328375390345L698.5300000000001,290.9185635871733L699.72,316.516348017874L700.91,285.2178426585333L702.0999999999999,268.8877007008633L703.29,242.9083907032634L704.48,226.89442645458132L705.67,225.5606498417124L706.86,197.69846275430115L708.0500000000001,200.31886612761733L709.24,229.49920999639463L710.43,211.93588263769888L711.62,247.6867327152487L712.81,244.97362228982428L714,273.93035457582937L715.19,251.29855841429037L716.3800000000001,225.97866793889406L717.5699999999999,182.45456984292628L718.76,218.00730344445205L719.9499999999999,235.41976845735732L721.14,252.35844075962558L722.33,262.3948021190444L723.5200000000001,259.690524688785L724.7099999999999,268.6256965347676L725.9,252.23123495272097L727.09,225.4467235117632L728.28,237.87080100235212L729.47,270.47528573904555L730.6600000000001,271.9696524920113L731.8499999999999,263.99145660293385L733.04,261.07343364651376L734.23,253.07466645774468L735.4200000000001,233.7438085301949L736.61,251.35314518357717L737.8000000000001,230.20254396286848L738.9899999999999,251.69963793091324L740.18,255.63539946158141L741.37,256.7895290141071L742.5600000000001,261.1103074124315L743.75,246.86701195066325L744.9399999999999,247.77905154600833L746.13,264.05174203142576L747.3199999999999,270.26421029225025L748.51,248.65253652843853L749.7,246.73458689280167L750.8900000000001,260.9287277330626L752.0799999999999,263.2775176685851L753.27,250.0095665169836L754.46,261.4567967720676L755.65,232.6074950020223L756.84,230.14378777269775L758.0300000000001,272.3294800229326L759.2199999999999,281.6828131739769L760.41,289.5950125732704L761.6,291.02699598542955L762.79,248.77033272309365L763.98,266.5338903839783L765.1700000000001,219.30992582889772L766.3599999999999,257.7952172961973L767.55,249.01191431326518L768.74,258.01271642472057L769.9300000000001,266.35099190012045L771.12,266.2247409912075L772.3100000000001,268.52849751067913L773.5,261.43333443017457L774.6899999999999,275.99758191115643L775.88,269.16578404430743L777.07,292.22506723597166L778.2600000000001,286.6201120960386L779.4499999999999,273.14312247918076L780.64,242.89239938548818L781.8299999999999,223.46267056162128L783.02,229.0937903862892L784.21,254.68804083715074L785.4000000000001,236.8694292691362L786.5899999999999,235.645061110676L787.78,265.94077325774475L788.97,233.62833667345788L790.16,254.10891337721313L791.35,265.0008956642673L792.5400000000001,271.3049515755013L793.7299999999999,272.5800246638677L794.92,254.58766991154081L796.11,254.17054199132758L797.3000000000001,279.1729927477445L798.49,283.2438492069963L799.6800000000001,270.44156823696636L800.8699999999999,236.54384528483118L802.06,230.1679476433108L803.25,220.9018105705446L804.44,246.15313391923104L805.6300000000001,264.8970008196783L806.8199999999999,287.69991390123084L808.01,264.5426510346777L809.1999999999999,239.17217951851168L810.39,248.6660864701097L811.58,247.0115113943949L812.7700000000001,264.53065199197147L813.9599999999999,259.3173305186082L815.15,280.5212463374405L816.34,249.79644321414645L817.53,252.70014051802644L818.72,234.89759247426804L819.9100000000001,244.7417103345669L821.0999999999999,229.3247123655961L822.29,231.66683498008766L823.48,251.67794160237142L824.6700000000001,231.14563653582468L825.86,263.59689100810374L827.0500000000001,232.50206713812642L828.2399999999999,243.7311238583153L829.43,255.42820411540418L830.62,290.98976243506286L831.8100000000001,302.61459596735483L833,278.4536399351493L834.1899999999999,298.6482441608271L835.38,256.94724956656455L836.5699999999999,257.74245395365335L837.76,233.2311575299679L838.95,243.2005152157652L840.1400000000001,228.93717381070303L841.3299999999999,241.65795705741792L842.52,226.5865161778101L843.71,254.12010628948025L844.9,276.41248859744917L846.09,295.34572542775663L847.2800000000001,277.17739155929684L848.4699999999999,282.40619632626414L849.66,269.3790371240666L850.85,250.11724933513938L852.04,237.10577421503626L853.23,228.6606335468135L854.4200000000001,210.50797261160858L855.6099999999999,222.51680339194687L856.8,251.21512048731654L857.99,292.5387712555552L859.1800000000001,256.88377109989074L860.37,255.67311210527748L861.5600000000001,267.42408840116696L862.75,270.99447436485787L863.9399999999999,253.8169446668273L865.13,254.27368387468138L866.32,230.19578152231858L867.5100000000001,230.59829853375246L868.6999999999999,230.7868769550293L869.89,223.1826878299695L871.0799999999999,212.3741535610188L872.27,237.5352112451928L873.46,244.81534519193994L874.6500000000001,225.5093890571501L875.8399999999999,239.13022735976614L877.03,210.10127808608675L878.22,202.7732315657024L879.41,197.55170520529057L880.6,211.3973655723626L881.7900000000001,229.74807243484824L882.9799999999999,253.1713507469807L884.17,250.32408644535025L885.36,233.43414875136546L886.5500000000001,198.20651433626844L887.74,222.32170370674154L888.9300000000001,260.1475535121919L890.1199999999999,288.91679052635203L891.31,281.74474613740546L892.5,260.9940335802704L893.69,275.4115641148371L894.8800000000001,277.6937557716061L896.0699999999999,261.8123354827695L897.26,269.0845787951549L898.4499999999999,291.780196835351L899.64,291.1553925572348L900.83,294.4131765781946L902.0200000000001,297.78180458659574L903.2099999999999,263.8846993596235L904.4,262.63852873747817L905.59,307.66615643087187L906.78,271.4888400911281L907.97,277.78506716960607L909.1600000000001,301.9276019625303L910.3499999999999,274.38529509856915L911.54,256.34440566631923L912.73,278.0378525825308L913.9200000000001,304.644331918476L915.11,297.70257510323404L916.3000000000001,269.9829765652363L917.4899999999999,258.2177373704162L918.68,265.59559317450805L919.87,255.4334614039724L921.0600000000001,230.99732135303407L922.25,261.7295501146769L923.4399999999999,255.6848022886548L924.63,254.69788384130203L925.8199999999999,278.77109370047214L927.01,251.29573908695198L928.2,262.7265357449568L929.3900000000001,240.33664738386372L930.5799999999999,257.53047143965665L931.77,292.55875003069457L932.96,300.28187820750367L934.15,270.86221202276874L935.34,270.2257283214493L936.5300000000001,271.9841908266404L937.7199999999999,249.36106617750278L938.91,275.8834495514724L940.1,271.15608672917443L941.29,278.0102312840257L942.48,299.7966071770926L943.6700000000001,287.2532135967219L944.8599999999999,264.4488771631601L946.05,275.3703431054522L947.24,239.37879432228618L948.4300000000001,258.7220950900758L949.62,288.4260999190358L950.8100000000001,298.1003824131219L952,293.1638148818331L953.1899999999999,261.93537961208324L954.38,250.59708258368676L955.57,245.3016388705856L956.7600000000001,208.33676020452296L957.9499999999999,226.63519802182273L959.14,228.85974792533727L960.3299999999999,236.4712904208518L961.52,243.98539285144906L962.71,241.9119479911429L963.9000000000001,240.8681126270832L965.0899999999999,246.35341991389643L966.28,269.5804010236552L967.47,264.7107053282434L968.66,286.55731862083525L969.85,266.20179372605946L971.0400000000001,280.8073603008823L972.2299999999999,289.3723111924312L973.42,293.7723395810593L974.61,282.0755131236356L975.8000000000001,246.02364191959154L976.99,231.25402470558797L978.1800000000001,244.00370361882398L979.3699999999999,269.63756076382367L980.56,281.84989867142895L981.75,287.38108540494477L982.94,269.99161320280575L984.1300000000001,255.0572160562965L985.3199999999999,263.63624489790755L986.51,294.4477776317988L987.6999999999999,264.67823231394254L988.89,216.9734122048328L990.08,260.67317343297657L991.2700000000001,243.76505041446123L992.4599999999999,251.86666231349608L993.65,256.59332731363475L994.84,284.11164023278536L996.03,294.79482437252034L997.22,311.96545844721214L998.4100000000001,301.01268285183556L999.5999999999999,275.29794584315084L1000.79,277.4687120592658L1001.98,258.21432278609655L1003.1700000000001,250.51240152154196L1004.36,263.6534677149882L1005.5500000000001,259.27509645235716L1006.7399999999999,275.0257773614656L1007.93,266.523068059488L1009.12,247.42665287792914L1010.3100000000001,251.62311399543424L1011.5,248.29642432072242L1012.6899999999999,206.88555646621273L1013.88,241.20121093203474L1015.0699999999999,248.97666547065882L1016.26,257.4710812411661L1017.45,250.14633492481443L1018.6400000000001,262.3194664707883L1019.8299999999999,267.0812278027001L1021.02,278.7535397669472L1022.21,306.1739563262938L1023.4,284.7272180149841L1024.5900000000001,298.99338418423457L1025.78,302.232458103772L1026.97,291.3429284984326L1028.1599999999999,283.452430683044L1029.35,305.0107998595639L1030.54,275.8445740548375L1031.73,281.43315072104946L1032.92,238.6754616453982L1034.11,253.8780783864699L1035.3,255.8662942441012L1036.49,244.87436877439654L1037.68,274.67650515288256L1038.8700000000001,278.9571218875059L1040.0600000000002,275.7402260057336L1041.25,257.97373135997094L1042.44,259.33099212713984L1043.63,248.98497299234836L1044.82,284.2458807222889L1046.01,273.4217735047845L1047.1999999999998,253.40455975030113L1048.3899999999999,256.01911562618164L1049.58,247.10449172220555L1050.77,269.43312321401794L1051.96,268.6727017062733L1053.15,236.5158267198699L1054.34,284.3623021709143L1055.53,279.40145122213477L1056.72,281.5103674602706L1057.91,285.32819885445826L1059.1000000000001,271.9264857914042L1060.29,251.9940809813733L1061.48,295.45875375316115L1062.67,287.3223250439499L1063.86,296.8081531364163L1065.05,275.218661775496L1066.24,268.8853654803672L1067.43,242.76152228962414L1068.62,228.7391166666212L1069.81,242.235927771274L1071,246.10613061830028L1072.19,250.7899252047814L1073.38,263.10903774921167L1074.57,258.997865505362L1075.76,259.88842524727846L1076.95,277.8696323730985L1078.14,263.76691911807296L1079.33,253.78613089436672L1080.52,236.57119273492322L1081.71,266.0810488662042L1082.8999999999999,259.87088779216515L1084.09,218.13975908521115L1085.28,201.58861256935177L1086.47,211.64929676829564L1087.66,231.69060059057944L1088.85,245.27369625370068L1090.04,249.591066068413L1091.23,276.1113914644731L1092.42,312.6827244279392L1093.6100000000001,291.24613348946616L1094.8000000000002,291.69613247099903L1095.99,265.88038461794486L1097.18,253.06817675465365L1098.37,275.3693020870329L1099.56,280.35061615288504L1100.75,258.7581777666822L1101.9399999999998,251.22488823502152L1103.1299999999999,284.8903512416416L1104.32,239.20330463994347L1105.51,270.1177787968445L1106.7,283.2580484502869L1107.89,261.09119534214483L1109.08,286.0323959810742L1110.27,277.46153763670975L1111.46,246.59615752541575L1112.65,192.95877254869674L1113.8400000000001,223.7568751625188L1115.03,272.0078033239822L1116.22,282.2164626378525L1117.4099999999999,253.50374137513091L1118.6,280.1175059029594L1119.79,246.4252454965791L1120.98,263.33366616544015L1122.17,282.7483699797207L1123.36,294.7695572661527L1124.55,298.609575622509L1125.74,291.6667361457527L1126.93,275.8542972683537L1128.1200000000001,268.3089778589981L1129.3100000000002,230.29200769470793L1130.5,245.66193509701887L1131.69,241.67567868592738L1132.88,251.8768933031702L1134.07,269.150487483367L1135.26,286.7841828708796L1136.4499999999998,290.311635210809L1137.6399999999999,277.2032488076072L1138.83,241.52025050450453L1140.02,265.1040113599842L1141.21,299.48329228351986L1142.4,309.87682153100053L1143.59,323.1251840192931L1144.78,285.8611089467321L1145.97,275.96732836242404L1147.16,278.1449039296858L1148.3500000000001,279.10774313906154L1149.54,289.2907432764728L1150.73,286.7893549472069L1151.92,271.97042006671285L1153.11,283.7126221801034L1154.3,291.3063872423882L1155.49,266.4691631178328L1156.68,221.25896540762596L1157.87,234.18463463474282L1159.06,235.07535635762792L1160.25,255.65148975451817L1161.44,277.50842887163185L1162.63,298.042535197735L1163.82,292.34809735536584L1165.01,282.73291828107835L1166.2,270.7474803082467L1167.39,273.1643479795647L1168.58,292.0305781442757L1169.77,269.9931275414727L1170.96,245.33822262092244L1172.1499999999999,277.25378529908545L1173.34,282.80890655924253L1174.53,292.85082779174667L1175.72,303.7718202224113L1176.91,285.12081479732615L1178.1,266.0577850324179L1179.29,277.24434013261L1180.48,242.16434537824148L1181.67,251.7313082424173L1182.8600000000001,266.81821190162714L1184.0500000000002,290.3709797075046L1185.24,249.70135941568932L1186.43,228.04314803161571L1187.62,254.48370322631803L1188.81,248.83407931951885L1190,256.7234015788329L1191.1899999999998,287.4980715945776L1192.3799999999999,276.73263182851167L1193.57,271.7173462785035L1194.76,288.0570757434815L1195.95,307.9226089981824L1197.14,318.2581810872334L1198.33,293.49693316939937L1199.52,271.4248690767495L1200.71,243.88373995801257L1201.9,265.969635778549L1203.0900000000001,254.95405243270557L1204.28,256.61715144177055L1205.47,252.99890052234997L1206.6599999999999,248.87336918685355L1207.85,260.4606018839689L1209.04,255.03945069184374L1210.23,275.577384595099L1211.42,254.36726796866827L1212.61,235.25373537684308L1213.8,257.626150031953L1214.99,265.2832785964423L1216.18,265.72379244091593L1217.3700000000001,266.95368025733524L1218.5600000000002,285.5702497841924L1219.75,295.16724828970484L1220.94,304.8140110259775L1222.13,303.22515416655085L1223.32,293.7574729473182L1224.51,256.13131997291975L1225.6999999999998,263.5027421790643L1226.8899999999999,246.40937540997766L1228.08,278.12711976808134L1229.27,262.94238380695475L1230.46,230.13340303960496L1231.65,242.03695519961747L1232.84,265.4582441341748L1234.03,256.25078218530837L1235.22,266.9255142292453L1236.41,253.2406580019637L1237.6000000000001,245.6164399366763L1238.79,210.99554049856582L1239.98,233.5974448435731L1241.17,254.42585324723882L1242.36,279.5497326819859L1243.55,281.1719166737057L1244.74,258.6054226101194L1245.93,290.67499129419053L1247.12,283.0712549236091L1248.31,287.35173551718424L1249.5,272.0113663225176L1250.69,244.0968300550462L1251.88,296.33280468280805L1253.07,309.9609266298753L1254.26,298.38234764204867L1255.45,302.5539994589475L1256.64,293.1713513584129L1257.83,295.3021070034022L1259.02,264.558332149429L1260.21,283.8799677039641L1261.3999999999999,321.0974407282745L1262.59,300.4009217314288L1263.78,294.61684707953725L1264.97,299.5999168643605L1266.16,283.14669023092097L1267.35,254.41884204230018L1268.54,276.7066358833391L1269.73,273.7058666770982L1270.92,242.0793954029874L1272.1100000000001,274.33360039563155L1273.3000000000002,268.60019209010113L1274.49,270.4323572279376L1275.68,262.90329460867423L1276.87,266.04268114905466L1278.06,281.9391871997172L1279.25,294.32525348117673L1280.4399999999998,287.74666270882324L1281.6299999999999,261.5712925509836L1282.82,242.9066869685785L1284.01,270.67563125310755L1285.2,233.84474213611134L1286.39,238.18775844389825L1287.58,229.44644937404766L1288.77,229.87917371683582L1289.96,247.23571498449607L1291.15,259.74237789664244L1292.3400000000001,243.67430742951373L1293.53,238.02357650024973L1294.72,234.1655437959628L1295.9099999999999,262.70438761790973L1297.1,262.9070663170837L1298.29,276.9316285918249L1299.48,286.4781809133347L1300.67,268.1377309967313L1301.86,274.601230669572L1303.05,285.08071320566773L1304.24,268.1060345251158L1305.43,259.3352950619933L1306.6200000000001,278.14966412826044L1307.8100000000002,306.15333435799874" style="fill: none;" fill="none"></path></g></g></g></g><g opacity="0.2"><g><g><g><path stroke="rgb(0, 119, 187)" stroke-width="2px" d="M135.66,-111.40166187286383L136.85000000000002,0.11983251571655273L138.04,3.7105021476745605L139.23000000000002,32.36556386947632L140.42,-76.5672197341919L146.37,-54.877354145050106L147.56,41.28906583786011L148.75,89.21120738983154L149.94,14.412265777587947L151.13,63.695252895355225L152.32000000000002,70.87123489379883L153.51,73.55998134613037L154.70000000000002,66.1340103149414L155.89,50.39526557922363L157.08,20.743151664733887L158.27,49.70713233947754L159.46,60.27105903625488L160.65,34.28977346420288L161.84,75.29603576660156L163.03,114.25161695480347L164.22,80.98970746994019L165.41,43.73813724517822L166.6,91.05415678024292L167.79,48.11056709289551L168.98,10.184331893920898L170.17000000000002,160.59221363067627L171.35999999999999,117.67460918426514L172.55,66.55377960205084L173.74,113.37733125686646L174.93,24.555221557617188L176.12,89.41964006423956L177.31,83.82900810241699L178.5,85.7827577590943L179.69,77.23446464538574L180.88000000000002,72.21415615081787L182.07,-14.866141319274902L183.26,-28.619593620300293L184.45000000000002,11.099322795867977L185.64000000000001,126.10118722915652L186.82999999999998,75.08104419708252L188.01999999999998,154.0615317821503L189.21,96.97759008407593L190.4,54.30076217651373L191.58999999999997,120.48462009429932L192.78,85.74510669708252L193.97,45.91393804550171L195.16,109.50172519683838L196.35000000000002,33.92287588119507L197.54,77.12321376800537L198.73,-2.8858437538146404L199.92000000000002,157.15222334861758L201.11,44.830018043518066L202.29999999999998,130.1213893890381L203.48999999999998,110.87033128738403L204.68,8.871701717376709L205.87,11.533661842346191L207.05999999999997,58.1491813659668L208.25,112.76384925842285L209.44,34.0111455917359L210.63,-18.361581802368164L211.82000000000002,69.2932448387146L213.01,-54.573091506958065L214.2,66.90465545654297L215.39000000000001,72.10100269317627L216.58,69.74095201492315L217.76999999999998,136.57501673698428L218.95999999999998,152.28805160522464L220.15,95.41146612167358L221.34,145.90882515907288L222.52999999999997,46.25094509124756L223.72000000000003,169.96427392959598L224.91,144.13426852226257L226.1,91.68110704421997L227.29000000000002,131.17889857292178L228.48000000000002,132.85609817504883L229.67,130.67003345489505L230.85999999999999,95.69189643859863L232.05,115.45755243301392L233.24,142.7969799041748L234.42999999999998,128.96361923217776L235.62,14.662505149841309L236.81,170.00272607803345L238,191.0825643539429L239.19000000000003,70.84539985656744L240.38,92.07619285583496L241.57,134.65699052810672L242.76000000000002,103.06169128417969L243.95000000000002,188.14272737503055L245.14,151.58539867401123L246.32999999999998,169.16571593284607L247.52,71.81801891326904L248.71,16.954914093017578L249.89999999999998,1.318608283996582L251.09,117.24878168106079L252.28,66.97445011138916L253.47,149.84418725967407L254.66000000000003,114.40707778930664L255.85,71.27578353881842L257.03999999999996,129.84942054748538L258.23,105.0303111076355L259.42,112.80450439453125L260.61,57.947808265686035L261.79999999999995,106.38004159927368L262.99,103.40500688552856L264.18,132.42065763473514L265.37,160.10705566406253L266.56,136.79258680343628L267.75,186.94012141227722L268.94,159.3851766586304L270.13,172.8117356300354L271.32,124.04364681243896L272.51,122.53980731964111L273.70000000000005,175.25775289535522L274.89,239.2547700405121L276.08,95.61564302444458L277.27,90.83390808105469L278.46000000000004,143.48476266860962L279.65,135.4379496574402L280.84,138.54185914993286L282.03000000000003,60.805734157562256L283.22,-51.54718780517578L284.40999999999997,39.35539340972906L285.6,115.06316757202148L286.79,66.67133903503418L287.98,24.16509246826172L289.17,178.45338678359985L290.36,172.99062824249268L291.55,168.41271972656253L292.74,141.6765353679657L293.93,153.5742208957672L295.12,95.54975366592413L296.31,102.40620231628418L297.5,193.46139049530032L298.69,176.63875079154968L299.88,142.11024856567383L301.07,130.6827006340027L302.26,160.59031105041504L303.45,141.67020177841187L304.64000000000004,207.92440509796145L305.83,163.98902034759524L307.02,135.44455862045288L308.21,152.96744799613955L309.40000000000003,139.82039308547974L310.59,206.50280213356018L311.78,61.442447662353516L312.97,148.53358483314514L314.16,138.35921144485476L315.34999999999997,111.77590942382812L316.54,178.1401119232178L317.73,185.1968321800232L318.92,184.65194320678714L320.10999999999996,150.23376560211184L321.3,198.71368861198428L322.49,97.24360084533697L323.68,65.48673248291021L324.87,-24.487890243530217L326.06,99.30384492874146L327.25,160.733304977417L328.44,166.84644556045535L329.63,168.13869810104373L330.82,180.59847092628482L332.01,148.26374387741092L333.2,210.27807211875916L334.39,47.99936628341675L335.58,134.5884726047516L336.77,151.1256000995636L337.96,229.79766941070557L339.15,102.20242595672607L340.34000000000003,185.11692380905154L341.53,126.54989576339722L342.71999999999997,183.7908253669739L343.91,222.12571477890015L345.1,206.46377420425418L346.28999999999996,137.02134704589847L347.48,130.49316859245303L348.67,209.9183592796326L349.86,204.78131747245789L351.04999999999995,170.40339446067813L352.24,129.9808988571167L353.43,152.1150670051575L354.62,141.8324718475342L355.81,172.6658878326416L357,137.17287755012512L358.19000000000005,121.16944885253906L359.38,162.96503162384033L360.57,172.4104664325714L361.76000000000005,192.31163120269778L362.95,213.40816712379458L364.14,185.34455752372742L365.33000000000004,204.1608510017395L366.52,204.1441032886505L367.71000000000004,167.74391269683838L368.90000000000003,254.44289302825928L370.09,205.62889194488525L371.28000000000003,135.40670728683472L372.46999999999997,133.86256313323977L373.65999999999997,153.60974407196048L374.85,252.30046248435974L376.03999999999996,102.94538354873657L377.23,135.14685487747195L378.42,212.7986905574799L379.60999999999996,115.96283769607544L380.8,200.57831740379336L381.99,75.32597637176514L383.17999999999995,197.6942811012268L384.37,266.09902596473694L385.56,212.02123618125916L386.75,193.85670161247253L387.94,156.95858573913577L389.13000000000005,220.1851079463959L390.32,127.0248148441315L391.51,199.48611116409302L392.70000000000005,191.33848643302917L393.89,171.6276297569275L395.08,234.31066489219668L396.27000000000004,44.114247322082576L397.46,193.4459195137024L398.65000000000003,241.43094635009768L399.84000000000003,229.00103902816775L401.03,134.2427537441254L402.22,116.23480653762817L403.40999999999997,204.9115941524506L404.59999999999997,188.14197635650635L405.79,160.5772933959961L406.97999999999996,133.58090615272522L408.17,181.30405282974243L409.36,172.48429155349731L410.54999999999995,246.8931040763855L411.74,104.4341025352478L412.93,100.55028533935547L414.11999999999995,129.35720300674438L415.31,106.44427871704102L416.5,192.0831713676453L417.69,154.80266189575195L418.88,248.9746520519257L420.07000000000005,133.62609243392947L421.26,146.49522042274478L422.45,149.08783650398254L423.64000000000004,200.82577800750732L424.83,187.804518699646L426.02,153.81845211982727L427.21000000000004,283.4340605735779L428.4,219.70821118354797L429.59000000000003,83.49740839004517L430.78000000000003,244.70373487472537L431.96999999999997,193.43472933769226L433.16,166.43714046478271L434.34999999999997,159.87511610984802L435.53999999999996,193.54963517189026L436.73,223.72255539894104L437.91999999999996,226.47836780548099L439.11,223.55335092544556L440.3,216.82550168037415L441.48999999999995,166.54964303970337L442.68,231.16274571418762L443.87,77.05767488479614L445.05999999999995,188.2800636291504L446.25,264.09388160705566L447.44000000000005,199.87508869171143L448.63,141.25463819503784L449.82,118.18379974365234L451.01000000000005,138.8958892822266L452.2,167.40204906463626L453.39,200.97748374938965L454.58000000000004,198.46214747428894L455.77,211.07925868034363L456.96000000000004,89.92998218536377L458.15000000000003,152.0496783256531L459.34,198.72137403488162L460.53000000000003,248.21972823143005L461.71999999999997,270.4797670841217L462.90999999999997,220.21712636947635L464.1,186.34323692321777L465.28999999999996,181.16972064971924L466.48,163.87060976028445L467.67,218.35074520111084L468.85999999999996,260.81743812561035L470.05,205.98061895370483L471.24,241.39564847946167L472.42999999999995,275.50350522994995L473.62,272.26694083213806L474.81,194.46084594726565L476,131.07948875427246L477.19,109.22850465774542L478.38000000000005,269.38783621788025L479.57,212.48544073104858L480.76,239.84334325790405L481.95000000000005,244.3645749092102L483.14,148.98377037048343L484.33,299.44955563545227L485.52000000000004,267.34321331977844L486.71,218.53209114074707L487.90000000000003,196.2272164821625L489.09000000000003,264.85711669921875L490.28,287.5999102592468L491.47,218.79715061187744L492.65999999999997,131.4199504852295L493.84999999999997,226.92462301254275L495.04,168.4180269241333L496.22999999999996,248.68991589546204L497.42,229.1149685382843L498.61,167.36307120323184L499.79999999999995,308.40707874298096L500.99,195.1560137271881L502.18,203.28451251983645L503.36999999999995,232.086198091507L504.56,181.3777277469635L505.75,275.31923031806946L506.94,280.06599283218384L508.13,207.17118358612063L509.32000000000005,243.8804683685303L510.51,262.2767422199249L511.7,214.95273685455322L512.89,175.06554222106936L514.0799999999999,181.45625925064087L515.27,273.11601734161377L516.46,137.7189931869507L517.65,203.89754390716556L518.84,284.3920347690582L520.0300000000001,244.70338439941406L521.22,277.0715067386627L522.41,297.9499468803406L523.5999999999999,176.556138753891L524.79,130.89396214485168L525.98,187.67559385299683L527.17,236.47054409980774L528.36,140.86483454704288L529.5500000000001,165.6997654438019L530.74,180.60921049118042L531.93,199.55320215225223L533.12,153.12263345718387L534.31,253.36733436584473L535.5,287.99872612953186L536.69,195.01046633720398L537.88,238.77396798133853L539.07,203.908308506012L540.26,240.69840288162231L541.4499999999999,246.48349857330322L542.64,296.9216523170471L543.83,162.7973041534424L545.02,146.91401338577273L546.21,174.11970949172976L547.4000000000001,268.78799772262573L548.59,275.4883346557617L549.78,203.43033528327942L550.9699999999999,241.00451803207397L552.16,196.59453964233398L553.35,280.7350001335144L554.54,159.877569437027L555.73,292.53863310813904L556.9200000000001,184.24501633644104L558.11,125.38611745834353L559.3,234.05769681930542L560.49,200.27337884902954L561.68,197.1439347267151L562.87,230.7484838962555L564.0600000000001,255.1506028175354L565.25,254.8659167289734L566.44,225.69896078109744L567.63,215.2252564430237L568.8199999999999,176.10888218879703L570.01,268.46460914611816L571.2,244.43799948692322L572.39,248.12607622146606L573.58,255.19496297836304L574.77,240.44781303405762L575.96,271.98548412323L577.15,240.86397743225098L578.34,206.83067178726196L579.53,276.1639258861542L580.72,239.57357740402225L581.91,281.2712023258209L583.1,265.3226981163025L584.29,247.40209436416626L585.48,289.6811077594757L586.67,284.5880756378174L587.86,287.184321641922L589.05,279.0978798866272L590.24,239.30458760261536L591.4300000000001,202.88539624214172L592.62,152.6442346572876L593.81,226.25328755378726L595,253.29538679122925L596.1899999999999,127.75292730331421L597.38,238.80999183654788L598.57,225.8186981678009L599.76,195.46505784988406L600.95,265.06181931495667L602.14,232.36575222015384L603.3299999999999,221.69217681884768L604.52,202.56756520271304L605.71,241.35341620445251L606.9,178.62346744537354L608.09,240.95525121688843L609.2800000000001,241.32740592956543L610.47,234.64419221878052L611.66,268.45129108428955L612.8499999999999,182.43268346786502L614.04,196.41639804840088L615.23,248.6391971111298L616.42,253.47345328330994L617.61,213.414425611496L618.8000000000001,163.7719008922577L619.99,208.81318545341492L621.18,238.45991706848145L622.37,201.1845645904541L623.56,192.45081996917725L624.75,231.7189750671387L625.94,170.880291223526L627.13,244.30479383468628L628.32,279.56624007225037L629.51,258.70392179489136L630.6999999999999,180.6098613739014L631.89,264.6315357685089L633.08,128.8152680397034L634.27,163.043913602829L635.46,235.7260093688965L636.6500000000001,251.76441049575806L637.84,286.7146096229553L639.03,169.9688551425934L640.2199999999999,234.12318563461307L641.41,224.85051012039187L642.6,250.23553705215454L643.79,160.83702063560486L644.98,158.94798374176025L646.1700000000001,261.31779170036316L647.36,258.7041721343994L648.55,235.21832084655762L649.74,205.57962512969974L650.93,222.81149482727054L652.12,263.82058596611023L653.3100000000001,343.2051465511322L654.5,207.11796140670776L655.69,291.67553758621216L656.88,228.42600917816162L658.0699999999999,302.62904262542725L659.26,144.31636548042297L660.45,291.4109787940979L661.64,260.7340500354767L662.83,179.16585302352905L664.02,342.7875051498413L665.21,177.6831421852112L666.4,306.2694296836853L667.59,294.7841784954071L668.78,318.1130418777466L669.97,177.3256573677063L671.16,224.17379236221313L672.35,285.19029235839844L673.54,108.27616310119629L674.73,153.86887049674988L675.92,200.5295763015747L677.11,215.2963778972626L678.3,205.6277153491974L679.49,276.26368618011475L680.6800000000001,300.7433352470398L681.87,220.6453070640564L683.06,170.66820359230044L684.25,261.52770137786865L685.4399999999999,327.0388970375061L686.63,229.78720521926883L687.82,219.20465326309204L689.01,216.45777797698975L690.2,249.31128358840945L691.39,214.41250419616702L692.5799999999999,257.6027283668518L693.77,277.3290309906006L694.96,294.53601694107056L696.15,199.93046379089355L697.34,272.0859954357147L698.5300000000001,345.80384588241577L699.72,354.91302466392517L700.91,238.2700846195221L702.0999999999999,244.39248776435852L703.29,203.93942570686343L704.48,202.87348008155826L705.67,223.5599849224091L706.86,155.9051821231842L708.0500000000001,204.24947118759158L709.24,273.26972579956055L710.43,185.59089159965515L711.62,301.3130078315735L712.81,240.90395665168765L714,317.36545300483704L715.19,217.3508641719818L716.3800000000001,187.99883222579956L717.5699999999999,117.16842269897461L718.76,271.3364038467407L719.9499999999999,261.5384659767151L721.14,277.76644921302795L722.33,277.4493441581726L723.5200000000001,255.634108543396L724.7099999999999,282.02845430374146L725.9,227.6395425796509L727.09,185.26995635032657L728.28,256.5069172382355L729.47,319.3820128440857L730.6600000000001,274.21120262145996L731.8499999999999,252.02416276931763L733.04,256.69639921188354L734.23,241.07651567459106L735.4200000000001,204.74752163887024L736.61,277.7671501636505L737.8000000000001,198.47664213180545L738.9899999999999,283.94527888298035L740.18,261.5390417575836L741.37,258.5207233428955L742.5600000000001,267.5914750099182L743.75,225.5020687580109L744.9399999999999,249.14711093902588L746.13,288.460777759552L747.3199999999999,279.58291268348694L748.51,216.23502588272098L749.7,243.8576624393463L750.8900000000001,282.219938993454L752.0799999999999,266.8007025718689L753.27,230.1076397895813L754.46,278.6276421546936L755.65,189.33354234695437L756.84,226.44822692871094L758.0300000000001,335.6080183982849L759.2199999999999,295.7128129005432L760.41,301.4633116722107L761.6,293.1749711036682L762.79,185.38533782958984L763.98,293.1792268753052L765.1700000000001,148.47397899627686L766.3599999999999,315.5231544971466L767.55,235.8369598388672L768.74,271.5139195919037L769.9300000000001,278.8584051132202L771.12,266.03536462783813L772.3100000000001,271.9841322898865L773.5,250.79058980941772L774.6899999999999,297.8439531326294L775.88,258.9180872440338L777.07,326.813992023468L778.2600000000001,278.2126793861389L779.4499999999999,252.92763805389404L780.64,197.51631474494934L781.8299999999999,194.31807732582092L783.02,237.54047012329102L784.21,293.079416513443L785.4000000000001,210.14151191711426L786.5899999999999,233.80850887298584L787.78,311.3843414783478L788.97,185.15968179702762L790.16,284.82977843284607L791.35,281.33886909484863L792.5400000000001,280.7610354423523L793.7299999999999,274.49263429641724L794.92,227.59913778305054L796.11,253.5448501110077L797.3000000000001,316.67666888237L798.49,289.350133895874L799.6800000000001,251.2381467819214L800.8699999999999,185.69726085662845L802.06,220.60410118103027L803.25,207.00260496139526L804.44,284.03011894226074L805.6300000000001,293.0128011703491L806.8199999999999,321.90428352355957L808.01,229.80675673484805L809.1999999999999,201.1164722442627L810.39,262.9069468975067L811.58,244.52964878082275L812.7700000000001,290.8093628883362L813.9599999999999,251.49734830856323L815.15,312.3271200656891L816.34,203.70923852920532L817.53,257.05568647384644L818.72,208.19377040863037L819.9100000000001,259.50788712501526L821.0999999999999,206.19921541213992L822.29,235.18001890182495L823.48,281.6946015357971L824.6700000000001,200.34717893600467L825.86,312.2737727165222L827.0500000000001,185.8598313331604L828.2399999999999,260.57470893859863L829.43,272.9738245010376L830.62,344.3320999145508L831.8100000000001,320.05184626579285L833,242.21220588684082L834.1899999999999,328.9401504993439L835.38,194.39575767517093L836.5699999999999,258.9352605342865L837.76,196.46421289443973L838.95,258.15455174446106L840.1400000000001,207.54216170310974L841.3299999999999,260.73913192749023L842.52,203.97935485839847L843.71,295.4204914569855L844.9,309.85106205940247L846.09,323.7455806732178L847.2800000000001,249.92489075660706L848.4699999999999,290.2494034767151L849.66,249.83829832077026L850.85,221.22456765174866L852.04,217.5885615348816L853.23,215.99292254447937L854.4200000000001,183.27898120880127L855.6099999999999,240.53004956245422L856.8,294.2625961303711L857.99,354.5242474079132L859.1800000000001,203.40127086639404L860.37,253.85712361335754L861.5600000000001,285.0505528450012L862.75,276.3500533103943L863.9399999999999,228.0506501197815L865.13,254.9587926864624L866.32,194.07892799377444L867.5100000000001,231.20207405090335L868.6999999999999,231.06974458694458L869.89,211.77640414237976L871.0799999999999,196.16135215759277L872.27,275.27679777145386L873.46,255.73554611206055L874.6500000000001,196.5504548549652L875.8399999999999,259.5614848136902L877.03,166.55785417556763L878.22,191.78116178512573L879.41,189.71941566467285L880.6,232.16585612297058L881.7900000000001,257.27413272857666L882.9799999999999,288.30626821517944L884.17,246.05318999290466L885.36,208.0992422103882L886.5500000000001,145.36506271362305L887.74,258.4944877624512L888.9300000000001,316.88632822036743L890.1199999999999,332.07064604759216L891.31,270.9866795539856L892.5,229.86796474456787L893.69,297.037859916687L894.8800000000001,281.11704325675964L896.0699999999999,237.99020504951477L897.26,279.9929437637329L898.4499999999999,325.82362389564514L899.64,290.2181861400604L900.83,299.2998526096344L902.0200000000001,302.8347465991974L903.2099999999999,213.03904151916507L904.4,260.76927280426025L905.59,375.2075979709625L906.78,217.22286558151245L907.97,287.229407787323L909.1600000000001,338.1414041519165L910.3499999999999,233.07183480262756L911.54,229.28307151794434L912.73,310.57802295684814L913.9200000000001,344.5540509223938L915.11,287.2899398803711L916.3000000000001,228.40357875823977L917.4899999999999,240.56987857818606L918.68,276.66237688064575L919.87,240.19026374816895L921.0600000000001,194.3431112766266L922.25,307.8278932571411L923.4399999999999,246.61768054962158L924.63,253.21750617027283L925.8199999999999,314.8809084892273L927.01,210.08270716667175L928.2,279.8727307319641L929.3900000000001,206.75181484222412L930.5799999999999,283.32120752334595L931.77,345.1011679172516L932.96,311.8665704727173L934.15,226.73271274566653L935.34,269.2710027694702L936.5300000000001,274.6218845844269L937.7199999999999,215.42637920379642L938.91,315.66702461242676L940.1,264.06504249572754L941.29,288.2914481163025L942.48,332.4761710166931L943.6700000000001,268.43812322616577L944.8599999999999,230.24237251281738L946.05,291.7525420188904L947.24,185.39147114753726L948.4300000000001,287.73704624176025L949.62,332.9821071624756L950.8100000000001,312.6118061542511L952,285.7589635848999L953.1899999999999,215.09272670745852L954.38,233.58963704109195L955.57,237.35847330093384L956.7600000000001,152.8894422054291L957.9499999999999,254.08285474777222L959.14,232.19657278060916L960.3299999999999,247.88860416412354L961.52,255.25654649734497L962.71,238.8017807006836L963.9000000000001,239.30235958099365L965.0899999999999,254.5813808441162L966.28,304.42087268829346L967.47,257.40616178512573L968.66,319.3272385597229L969.85,235.6685063838959L971.0400000000001,302.71571016311646L972.2299999999999,302.21973752975464L973.42,300.37238216400146L974.61,264.5302734375L975.8000000000001,191.9458351135254L976.99,209.09959888458255L978.1800000000001,263.128221988678L979.3699999999999,308.08834648132324L980.56,300.1684055328369L981.75,295.6778655052185L982.94,243.90740489959717L984.1300000000001,232.6556203365326L985.3199999999999,276.5047881603241L986.51,340.6650767326355L987.6999999999999,220.0239143371582L988.89,145.41618204116824L990.08,326.22281527519226L991.2700000000001,218.40286588668823L992.4599999999999,264.01908016204834L993.65,263.6833248138428L994.84,325.38910961151123L996.03,310.8196005821228L997.22,337.7214095592499L998.4100000000001,284.58351945877075L999.5999999999999,236.7258403301239L1000.79,280.7248613834381L1001.98,229.3327388763428L1003.1700000000001,238.95951962471008L1004.36,283.36506700515747L1005.5500000000001,252.70753955841064L1006.7399999999999,298.6517987251282L1007.93,253.7690041065216L1009.12,218.78203010559082L1010.3100000000001,257.9178056716919L1011.5,243.3063898086548L1012.6899999999999,144.76925468444827L1013.88,292.6746926307678L1015.0699999999999,260.63984727859497L1016.26,270.2127048969269L1017.45,239.1592154502869L1018.6400000000001,280.57916378974915L1019.8299999999999,274.2238698005676L1021.02,296.26200771331787L1022.21,347.3045811653137L1023.4,252.5571105480194L1024.5900000000001,320.39263343811035L1025.78,307.091068983078L1026.97,275.0086340904236L1028.1599999999999,271.61668395996094L1029.35,337.3483536243439L1030.54,232.09523534774783L1031.73,289.81601572036743L1032.92,174.5389280319214L1034.11,276.6820034980774L1035.3,258.8486180305481L1036.49,228.3864805698395L1037.68,319.3797097206116L1038.8700000000001,285.3780469894409L1040.0600000000002,270.91488218307495L1041.25,231.32398939132693L1042.44,261.36688327789307L1043.63,233.46594429016116L1044.82,337.1372423171997L1046.01,257.18561267852783L1047.1999999999998,223.37873911857605L1048.3899999999999,259.94094944000244L1049.58,233.73255586624146L1050.77,302.92607045173645L1051.96,267.5320694446564L1053.15,188.2805142402649L1054.34,356.1320153474808L1055.53,271.96017479896545L1056.72,284.67374181747437L1057.91,291.05494594573975L1059.1000000000001,251.82391619682312L1060.29,222.09547376632693L1061.48,360.6557629108429L1062.67,275.11768198013306L1063.86,311.03689527511597L1065.05,242.83442473411563L1066.24,259.38542103767395L1067.43,203.57575750350955L1068.62,207.7055082321167L1069.81,262.4811444282532L1071,251.91143488883972L1072.19,257.8156170845032L1073.38,281.58770656585693L1074.57,252.8311071395874L1075.76,261.2242648601532L1076.95,304.8414430618286L1078.14,242.61284923553467L1079.33,238.8149485588074L1080.52,210.74878549575806L1081.71,310.3458330631256L1082.8999999999999,250.55564618110657L1084.09,155.54306602478027L1085.28,176.76189279556274L1086.47,226.74032306671145L1087.66,261.7525563240051L1088.85,265.64833974838257L1090.04,256.06712079048157L1091.23,315.89187955856323L1092.42,367.5397238731384L1093.6100000000001,259.0912470817566L1094.8000000000002,292.37113094329834L1095.99,227.15676283836368L1097.18,233.84986495971683L1098.37,308.8209900856018L1099.56,287.8225872516632L1100.75,226.36952018737796L1101.9399999999998,239.92495393753052L1103.1299999999999,335.38854575157166L1104.32,170.67273473739624L1105.51,316.48949003219604L1106.7,302.96845293045044L1107.89,227.84091567993164L1109.08,323.4441969394684L1110.27,264.60525012016296L1111.46,200.29808735847476L1112.65,112.50269508361816L1113.8400000000001,269.95402908325195L1115.03,344.38419556617737L1116.22,297.52945160865784L1117.4099999999999,210.43465948104858L1118.6,320.03815269470215L1119.79,195.88685488700867L1120.98,288.6962971687317L1122.17,311.87042570114136L1123.36,312.8013381958008L1124.55,304.36960315704346L1125.74,281.2524769306183L1126.93,252.13563895225525L1128.1200000000001,256.9909987449646L1129.3100000000002,173.2665524482727L1130.5,268.71682620048523L1131.69,235.6962940692902L1132.88,267.1787152290344L1134.07,295.0608787536621L1135.26,313.23472595214844L1136.4499999999998,295.6028137207031L1137.6399999999999,257.54066920280457L1138.83,187.99575304985046L1140.02,300.47965264320374L1141.21,351.05221366882324L1142.4,325.4671154022217L1143.59,342.9977277517319L1144.78,229.96499633789062L1145.97,261.1266574859619L1147.16,281.4112672805786L1148.3500000000001,280.552001953125L1149.54,304.5652434825897L1150.73,283.0372724533081L1151.92,249.7420177459717L1153.11,301.3259253501892L1154.3,302.69703483581543L1155.49,229.21332693099978L1156.68,153.44366884231567L1157.87,253.5731384754181L1159.06,236.41143894195557L1160.25,286.5156898498535L1161.44,310.29383754730225L1162.63,328.84369468688965L1163.82,283.80644059181213L1165.01,268.3101496696472L1166.2,252.76932334899902L1167.39,276.78964948654175L1168.58,320.32992339134216L1169.77,236.93695163726807L1170.96,208.35586524009707L1172.1499999999999,325.12712931632996L1173.34,291.14158844947815L1174.53,307.91370964050293L1175.72,320.1533088684082L1176.91,257.1443066596985L1178.1,237.46324038505554L1179.29,294.02417278289795L1180.48,189.54435324668884L1181.67,266.08175253868103L1182.8600000000001,289.4485673904419L1184.0500000000002,325.7001314163208L1185.24,188.69692897796634L1186.43,195.5558309555054L1187.62,294.1445360183716L1188.81,240.3596434593201L1190,268.55738496780396L1191.1899999999998,333.6600766181946L1192.3799999999999,260.58447217941284L1193.57,264.1944179534912L1194.76,312.5666699409485L1195.95,337.72090888023376L1197.14,333.76153922080994L1198.33,256.3550612926483L1199.52,238.3167729377747L1200.71,202.57204627990725L1201.9,299.09847950935364L1203.0900000000001,238.43067741394043L1204.28,259.11179995536804L1205.47,247.571524143219L1206.6599999999999,242.685072183609L1207.85,277.8414509296417L1209.04,246.90772390365603L1210.23,306.3842854499817L1211.42,222.55209302902222L1212.61,206.58343648910525L1213.8,291.1847720146179L1214.99,276.76897144317627L1216.18,266.38456320762634L1217.3700000000001,268.7985119819641L1218.5600000000002,313.49510407447815L1219.75,309.56274604797363L1220.94,319.28415513038635L1222.13,300.8418688774109L1223.32,279.55595111846924L1224.51,199.69209051132202L1225.6999999999998,274.55987548828125L1226.8899999999999,220.76932525634768L1228.08,325.7037363052368L1229.27,240.1652798652649L1230.46,180.91993188858035L1231.65,259.89228343963623L1232.84,300.59017753601074L1234.03,242.43958926200867L1235.22,282.93761229515076L1236.41,232.71337366104126L1237.6000000000001,234.18011283874512L1238.79,159.06419134140015L1239.98,267.500301361084L1241.17,285.6684658527374L1242.36,317.23555183410645L1243.55,283.6051926612854L1244.74,224.75568151474002L1245.93,338.77934432029724L1247.12,271.6656503677368L1248.31,293.772456407547L1249.5,249.0008125305176L1250.69,202.2250256538391L1251.88,374.6867666244507L1253.07,330.4031095504761L1254.26,281.01447916030884L1255.45,308.81147718429565L1256.64,279.0973792076111L1257.83,298.49824047088623L1259.02,218.44266986846924L1260.21,312.8624210357666L1261.3999999999999,376.92365026474L1262.59,269.3561432361603L1263.78,285.94073510169983L1264.97,307.07452154159546L1266.16,258.4668502807617L1267.35,211.3270697593689L1268.54,310.13832664489746L1269.73,269.2047128677368L1270.92,194.63968849182132L1272.1100000000001,322.7149078845978L1273.3000000000002,260.0000796318054L1274.49,273.1806049346924L1275.68,251.60970067977905L1276.87,270.75176095962524L1278.06,305.78394627571106L1279.25,312.9043529033661L1280.4399999999998,277.87877655029297L1281.6299999999999,222.30823731422424L1282.82,214.90977859497073L1284.01,312.3290476799011L1285.2,178.59840846061707L1286.39,244.7022829055786L1287.58,216.33448576927185L1288.77,230.52826023101807L1289.96,273.2705268859863L1291.15,278.50237226486206L1292.3400000000001,219.5722017288208L1293.53,229.5474801063538L1294.72,228.37849473953247L1295.9099999999999,305.5126533508301L1297.1,263.2110843658447L1298.29,297.96847200393677L1299.48,300.79800939559937L1300.67,240.6270561218262L1301.86,284.296480178833L1303.05,300.7999370098114L1304.24,242.64401650428775L1305.43,246.17918586730957L1306.6200000000001,306.37121772766113L1307.8100000000002,348.1588397026062" style="fill: none;" fill="none"></path></g></g></g></g></g></g><g transform="translate(70, 378)" clip-path="url(#clip_1)"><clipPath id="clip_1"><rect width="1428" height="22"></rect></clipPath><g><g><line x1="0" y1="0" x2="0" y2="5" style="visibility: inherit;" fill="rgb(0, 0, 0)" stroke="rgb(204, 204, 204)" stroke-width="1px"></line><line x1="119" y1="0" x2="119" y2="5" style="visibility: inherit;" fill="rgb(0, 0, 0)" stroke="rgb(204, 204, 204)" stroke-width="1px"></line><line x1="238" y1="0" x2="238" y2="5" style="visibility: inherit;" fill="rgb(0, 0, 0)" stroke="rgb(204, 204, 204)" stroke-width="1px"></line><line x1="357" y1="0" x2="357" y2="5" style="visibility: inherit;" fill="rgb(0, 0, 0)" stroke="rgb(204, 204, 204)" stroke-width="1px"></line><line x1="476" y1="0" x2="476" y2="5" style="visibility: inherit;" fill="rgb(0, 0, 0)" stroke="rgb(204, 204, 204)" stroke-width="1px"></line><line x1="595" y1="0" x2="595" y2="5" style="visibility: inherit;" fill="rgb(0, 0, 0)" stroke="rgb(204, 204, 204)" stroke-width="1px"></line><line x1="714" y1="0" x2="714" y2="5" style="visibility: inherit;" fill="rgb(0, 0, 0)" stroke="rgb(204, 204, 204)" stroke-width="1px"></line><line x1="833" y1="0" x2="833" y2="5" style="visibility: inherit;" fill="rgb(0, 0, 0)" stroke="rgb(204, 204, 204)" stroke-width="1px"></line><line x1="952" y1="0" x2="952" y2="5" style="visibility: inherit;" fill="rgb(0, 0, 0)" stroke="rgb(204, 204, 204)" stroke-width="1px"></line><line x1="1071" y1="0" x2="1071" y2="5" style="visibility: inherit;" fill="rgb(0, 0, 0)" stroke="rgb(204, 204, 204)" stroke-width="1px"></line><line x1="1190" y1="0" x2="1190" y2="5" style="visibility: inherit;" fill="rgb(0, 0, 0)" stroke="rgb(204, 204, 204)" stroke-width="1px"></line><line x1="1309" y1="0" x2="1309" y2="5" style="visibility: inherit;" fill="rgb(0, 0, 0)" stroke="rgb(204, 204, 204)" stroke-width="1px"></line><line x1="1428" y1="0" x2="1428" y2="5" style="visibility: inherit;" fill="rgb(0, 0, 0)" stroke="rgb(204, 204, 204)" stroke-width="1px"></line></g><g transform="translate(0, 8)"><text x="0" y="0" dx="0em" dy="0.95em" style="text-anchor: middle; visibility: hidden; font-family: &quot;Helvetica Neue&quot;, sans-serif; font-size: 12px; font-weight: 200;" fill="rgb(50, 49, 63)" stroke="none" stroke-width="1px">-100.0</text><text x="119" y="0" dx="0em" dy="0.95em" style="text-anchor: middle; visibility: inherit; font-family: &quot;Helvetica Neue&quot;, sans-serif; font-size: 12px; font-weight: 200;" fill="rgb(50, 49, 63)" stroke="none" stroke-width="1px">0.000</text><text x="238" y="0" dx="0em" dy="0.95em" style="text-anchor: middle; visibility: inherit; font-family: &quot;Helvetica Neue&quot;, sans-serif; font-size: 12px; font-weight: 200;" fill="rgb(50, 49, 63)" stroke="none" stroke-width="1px">100.0</text><text x="357" y="0" dx="0em" dy="0.95em" style="text-anchor: middle; visibility: inherit; font-family: &quot;Helvetica Neue&quot;, sans-serif; font-size: 12px; font-weight: 200;" fill="rgb(50, 49, 63)" stroke="none" stroke-width="1px">200.0</text><text x="476" y="0" dx="0em" dy="0.95em" style="text-anchor: middle; visibility: inherit; font-family: &quot;Helvetica Neue&quot;, sans-serif; font-size: 12px; font-weight: 200;" fill="rgb(50, 49, 63)" stroke="none" stroke-width="1px">300.0</text><text x="595" y="0" dx="0em" dy="0.95em" style="text-anchor: middle; visibility: inherit; font-family: &quot;Helvetica Neue&quot;, sans-serif; font-size: 12px; font-weight: 200;" fill="rgb(50, 49, 63)" stroke="none" stroke-width="1px">400.0</text><text x="714" y="0" dx="0em" dy="0.95em" style="text-anchor: middle; visibility: inherit; font-family: &quot;Helvetica Neue&quot;, sans-serif; font-size: 12px; font-weight: 200;" fill="rgb(50, 49, 63)" stroke="none" stroke-width="1px">500.0</text><text x="833" y="0" dx="0em" dy="0.95em" style="text-anchor: middle; visibility: inherit; font-family: &quot;Helvetica Neue&quot;, sans-serif; font-size: 12px; font-weight: 200;" fill="rgb(50, 49, 63)" stroke="none" stroke-width="1px">600.0</text><text x="952" y="0" dx="0em" dy="0.95em" style="text-anchor: middle; visibility: inherit; font-family: &quot;Helvetica Neue&quot;, sans-serif; font-size: 12px; font-weight: 200;" fill="rgb(50, 49, 63)" stroke="none" stroke-width="1px">700.0</text><text x="1071" y="0" dx="0em" dy="0.95em" style="text-anchor: middle; visibility: inherit; font-family: &quot;Helvetica Neue&quot;, sans-serif; font-size: 12px; font-weight: 200;" fill="rgb(50, 49, 63)" stroke="none" stroke-width="1px">800.0</text><text x="1190" y="0" dx="0em" dy="0.95em" style="text-anchor: middle; visibility: inherit; font-family: &quot;Helvetica Neue&quot;, sans-serif; font-size: 12px; font-weight: 200;" fill="rgb(50, 49, 63)" stroke="none" stroke-width="1px">900.0</text><text x="1309" y="0" dx="0em" dy="0.95em" style="text-anchor: middle; visibility: inherit; font-family: &quot;Helvetica Neue&quot;, sans-serif; font-size: 12px; font-weight: 200;" fill="rgb(50, 49, 63)" stroke="none" stroke-width="1px">1.000k</text><text x="1428" y="0" dx="0em" dy="0.95em" style="text-anchor: middle; visibility: hidden; font-family: &quot;Helvetica Neue&quot;, sans-serif; font-size: 12px; font-weight: 200;" fill="rgb(50, 49, 63)" stroke="none" stroke-width="1px">1.100k</text></g><line x1="0" y1="0" x2="1428" y2="0" fill="rgb(0, 0, 0)" stroke="rgb(204, 204, 204)" stroke-width="1px"></line></g></g></g></g></svg>