<svg viewBox="0 0 1513 400" xmlns="http://www.w3.org/2000/svg"><g><g><g><g><g><line x1="94" y1="378" x2="89" y2="378" style="visibility: inherit;" fill="rgb(0, 0, 0)" stroke="rgb(204, 204, 204)" stroke-width="1px"></line><line x1="94" y1="340.2" x2="89" y2="340.2" style="visibility: inherit;" fill="rgb(0, 0, 0)" stroke="rgb(204, 204, 204)" stroke-width="1px"></line><line x1="94" y1="302.4" x2="89" y2="302.4" style="visibility: inherit;" fill="rgb(0, 0, 0)" stroke="rgb(204, 204, 204)" stroke-width="1px"></line><line x1="94" y1="264.59999999999997" x2="89" y2="264.59999999999997" style="visibility: inherit;" fill="rgb(0, 0, 0)" stroke="rgb(204, 204, 204)" stroke-width="1px"></line><line x1="94" y1="226.79999999999998" x2="89" y2="226.79999999999998" style="visibility: inherit;" fill="rgb(0, 0, 0)" stroke="rgb(204, 204, 204)" stroke-width="1px"></line><line x1="94" y1="189" x2="89" y2="189" style="visibility: inherit;" fill="rgb(0, 0, 0)" stroke="rgb(204, 204, 204)" stroke-width="1px"></line><line x1="94" y1="151.20000000000002" x2="89" y2="151.20000000000002" style="visibility: inherit;" fill="rgb(0, 0, 0)" stroke="rgb(204, 204, 204)" stroke-width="1px"></line><line x1="94" y1="113.40000000000003" x2="89" y2="113.40000000000003" style="visibility: inherit;" fill="rgb(0, 0, 0)" stroke="rgb(204, 204, 204)" stroke-width="1px"></line><line x1="94" y1="75.60000000000002" x2="89" y2="75.60000000000002" style="visibility: inherit;" fill="rgb(0, 0, 0)" stroke="rgb(204, 204, 204)" stroke-width="1px"></line><line x1="94" y1="37.80000000000001" x2="89" y2="37.80000000000001" style="visibility: inherit;" fill="rgb(0, 0, 0)" stroke="rgb(204, 204, 204)" stroke-width="1px"></line><line x1="94" y1="0" x2="89" y2="0" style="visibility: inherit;" fill="rgb(0, 0, 0)" stroke="rgb(204, 204, 204)" stroke-width="1px"></line></g><g transform="translate(84, 0)"><text x="0" y="378" dx="0em" dy="0.3em" style="text-anchor: end; visibility: hidden; font-family: &quot;Helvetica Neue&quot;, sans-serif; font-size: 12px; font-weight: 200;" fill="rgb(50, 49, 63)" stroke="none" stroke-width="1px">-0.0500</text><text x="0" y="340.2" dx="0em" dy="0.3em" style="text-anchor: end; visibility: inherit; font-family: &quot;Helvetica Neue&quot;, sans-serif; font-size: 12px; font-weight: 200;" fill="rgb(50, 49, 63)" stroke="none" stroke-width="1px">0.00</text><text x="0" y="302.4" dx="0em" dy="0.3em" style="text-anchor: end; visibility: inherit; font-family: &quot;Helvetica Neue&quot;, sans-serif; font-size: 12px; font-weight: 200;" fill="rgb(50, 49, 63)" stroke="none" stroke-width="1px">0.0500</text><text x="0" y="264.59999999999997" dx="0em" dy="0.3em" style="text-anchor: end; visibility: inherit; font-family: &quot;Helvetica Neue&quot;, sans-serif; font-size: 12px; font-weight: 200;" fill="rgb(50, 49, 63)" stroke="none" stroke-width="1px">0.100</text><text x="0" y="226.79999999999998" dx="0em" dy="0.3em" style="text-anchor: end; visibility: inherit; font-family: &quot;Helvetica Neue&quot;, sans-serif; font-size: 12px; font-weight: 200;" fill="rgb(50, 49, 63)" stroke="none" stroke-width="1px">0.150</text><text x="0" y="189" dx="0em" dy="0.3em" style="text-anchor: end; visibility: inherit; font-family: &quot;Helvetica Neue&quot;, sans-serif; font-size: 12px; font-weight: 200;" fill="rgb(50, 49, 63)" stroke="none" stroke-width="1px">0.200</text><text x="0" y="151.20000000000002" dx="0em" dy="0.3em" style="text-anchor: end; visibility: inherit; font-family: &quot;Helvetica Neue&quot;, sans-serif; font-size: 12px; font-weight: 200;" fill="rgb(50, 49, 63)" stroke="none" stroke-width="1px">0.250</text><text x="0" y="113.40000000000003" dx="0em" dy="0.3em" style="text-anchor: end; visibility: inherit; font-family: &quot;Helvetica Neue&quot;, sans-serif; font-size: 12px; font-weight: 200;" fill="rgb(50, 49, 63)" stroke="none" stroke-width="1px">0.300</text><text x="0" y="75.60000000000002" dx="0em" dy="0.3em" style="text-anchor: end; visibility: inherit; font-family: &quot;Helvetica Neue&quot;, sans-serif; font-size: 12px; font-weight: 200;" fill="rgb(50, 49, 63)" stroke="none" stroke-width="1px">0.350</text><text x="0" y="37.80000000000001" dx="0em" dy="0.3em" style="text-anchor: end; visibility: inherit; font-family: &quot;Helvetica Neue&quot;, sans-serif; font-size: 12px; font-weight: 200;" fill="rgb(50, 49, 63)" stroke="none" stroke-width="1px">0.400</text><text x="0" y="0" dx="0em" dy="0.3em" style="text-anchor: end; visibility: hidden; font-family: &quot;Helvetica Neue&quot;, sans-serif; font-size: 12px; font-weight: 200;" fill="rgb(50, 49, 63)" stroke="none" stroke-width="1px">0.450</text></g><line x1="94" y1="0" x2="94" y2="378" fill="rgb(0, 0, 0)" stroke="rgb(204, 204, 204)" stroke-width="1px"></line></g></g><g transform="translate(94, 0)" clip-path="url(#clip_0)"><clipPath id="clip_0"><rect width="1419" height="378"></rect></clipPath><g><g><g><line x1="0" y1="0" x2="0" y2="378" fill="rgb(0, 0, 0)" stroke="rgb(60, 60, 60)" stroke-width="1px" opacity="0.25"></line><line x1="118.25" y1="0" x2="118.25" y2="378" fill="rgb(0, 0, 0)" stroke="rgb(60, 60, 60)" stroke-width="1px" opacity="0.25"></line><line x1="236.5" y1="0" x2="236.5" y2="378" fill="rgb(0, 0, 0)" stroke="rgb(60, 60, 60)" stroke-width="1px" opacity="0.25"></line><line x1="354.75" y1="0" x2="354.75" y2="378" fill="rgb(0, 0, 0)" stroke="rgb(60, 60, 60)" stroke-width="1px" opacity="0.25"></line><line x1="473" y1="0" x2="473" y2="378" fill="rgb(0, 0, 0)" stroke="rgb(60, 60, 60)" stroke-width="1px" opacity="0.25"></line><line x1="591.25" y1="0" x2="591.25" y2="378" fill="rgb(0, 0, 0)" stroke="rgb(60, 60, 60)" stroke-width="1px" opacity="0.25"></line><line x1="709.5" y1="0" x2="709.5" y2="378" fill="rgb(0, 0, 0)" stroke="rgb(60, 60, 60)" stroke-width="1px" opacity="0.25"></line><line x1="827.75" y1="0" x2="827.75" y2="378" fill="rgb(0, 0, 0)" stroke="rgb(60, 60, 60)" stroke-width="1px" opacity="0.25"></line><line x1="946" y1="0" x2="946" y2="378" fill="rgb(0, 0, 0)" stroke="rgb(60, 60, 60)" stroke-width="1px" opacity="0.25"></line><line x1="1064.25" y1="0" x2="1064.25" y2="378" fill="rgb(0, 0, 0)" stroke="rgb(60, 60, 60)" stroke-width="1px" opacity="0.25"></line><line x1="1182.5" y1="0" x2="1182.5" y2="378" fill="rgb(0, 0, 0)" stroke="rgb(60, 60, 60)" stroke-width="1px" opacity="0.25"></line><line x1="1300.75" y1="0" x2="1300.75" y2="378" fill="rgb(0, 0, 0)" stroke="rgb(60, 60, 60)" stroke-width="1px" opacity="0.25"></line><line x1="1419" y1="0" x2="1419" y2="378" fill="rgb(0, 0, 0)" stroke="rgb(60, 60, 60)" stroke-width="1px" opacity="0.25"></line></g><g><line x1="0" y1="378" x2="1419" y2="378" fill="rgb(0, 0, 0)" stroke="rgb(60, 60, 60)" stroke-width="1px" opacity="0.25"></line><line x1="0" y1="340.2" x2="1419" y2="340.2" fill="rgb(0, 0, 0)" stroke="rgb(60, 60, 60)" stroke-width="1px" opacity="0.25"></line><line x1="0" y1="302.4" x2="1419" y2="302.4" fill="rgb(0, 0, 0)" stroke="rgb(60, 60, 60)" stroke-width="1px" opacity="0.25"></line><line x1="0" y1="264.59999999999997" x2="1419" y2="264.59999999999997" fill="rgb(0, 0, 0)" stroke="rgb(60, 60, 60)" stroke-width="1px" opacity="0.25"></line><line x1="0" y1="226.79999999999998" x2="1419" y2="226.79999999999998" fill="rgb(0, 0, 0)" stroke="rgb(60, 60, 60)" stroke-width="1px" opacity="0.25"></line><line x1="0" y1="189" x2="1419" y2="189" fill="rgb(0, 0, 0)" stroke="rgb(60, 60, 60)" stroke-width="1px" opacity="0.25"></line><line x1="0" y1="151.20000000000002" x2="1419" y2="151.20000000000002" fill="rgb(0, 0, 0)" stroke="rgb(60, 60, 60)" stroke-width="1px" opacity="0.25"></line><line x1="0" y1="113.40000000000003" x2="1419" y2="113.40000000000003" fill="rgb(0, 0, 0)" stroke="rgb(60, 60, 60)" stroke-width="1px" opacity="0.25"></line><line x1="0" y1="75.60000000000002" x2="1419" y2="75.60000000000002" fill="rgb(0, 0, 0)" stroke="rgb(60, 60, 60)" stroke-width="1px" opacity="0.25"></line><line x1="0" y1="37.80000000000001" x2="1419" y2="37.80000000000001" fill="rgb(0, 0, 0)" stroke="rgb(60, 60, 60)" stroke-width="1px" opacity="0.25"></line><line x1="0" y1="0" x2="1419" y2="0" fill="rgb(0, 0, 0)" stroke="rgb(60, 60, 60)" stroke-width="1px" opacity="0.25"></line></g></g></g><g><g><line x1="0" y1="340.2" x2="1419" y2="340.2" fill="rgb(0, 0, 0)" stroke="rgb(153, 153, 153)" stroke-width="1.5px"></line></g></g><g><g><line x1="118.25" y1="0" x2="118.25" y2="378" fill="rgb(0, 0, 0)" stroke="rgb(153, 153, 153)" stroke-width="1.5px"></line></g></g><g><g><g><g><g><path stroke="rgb(0, 119, 187)" stroke-width="2px" d="M146.63,-29.491377108765164L147.8125,23.885264785539107L148.995,-5.513871218409122L150.1775,38.271704157423414L151.36,59.81803043333872L152.5425,44.39581485055356L153.725,20.967485802696615L154.9075,21.08549149100969L156.09,-16.643706907037597L157.2725,3.243776425577323L158.45499999999998,10.451265979248205L159.63750000000002,14.775759632153608L160.82,3.1954557076256265L162.0025,34.04727353913415L163.185,38.38336413314096L164.3675,7.910018439149326L165.55,41.60101109051152L166.7325,38.190606652665736L167.915,3.0693639814585936L169.0975,43.42161839586589L170.28,39.282971037089396L171.4625,46.24978262268809L172.645,64.60486957429976L173.8275,47.26792174419057L175.01,55.765753046628845L176.1925,41.96445182786579L177.375,47.85867109674808L178.55749999999998,37.22020265801791L179.74,45.01212159482429L180.9225,49.687272956899506L182.105,33.59236377412964L183.28750000000002,57.01041826448659L184.47,75.7862509586962L185.6525,58.701750575215385L186.83499999999998,67.35105034512992L188.0175,63.09063020707771L189.2,46.35937812424618L190.3825,55.22062687454786L191.56500000000003,41.63737612472852L192.7475,0.412425674836868L193.92999999999998,4.027455404902128L195.1125,-7.9785267570587735L196.29500000000002,22.617883945764845L197.4775,26.800730367458925L198.66000000000003,57.66043822047544L199.8425,52.55126293228528L201.025,58.9357577593712L202.20749999999998,58.04145465562266L203.39000000000001,52.77987279337361L204.5725,21.27292367602422L205.755,21.268754205614528L206.9375,59.06625252336869L208.12,39.2197515140212L209.30249999999998,36.76185090841278L210.485,30.56211054504763L211.66750000000002,7.942266327028619L212.85,51.07035979621713L214.03250000000003,58.04721587773031L215.215,57.50832952663819L216.3975,61.90999771598291L217.57999999999998,69.27599862958976L218.76250000000002,78.42059917775384L219.945,88.63235950665234L221.1275,42.784415703991385L222.31,76.70064942239486L223.4925,82.87538965343691L224.67499999999998,44.055233792062154L225.85750000000002,25.4881402752373L227.04,33.24788416514235L228.2225,66.25373049908546L229.40499999999997,67.15723829945125L230.5875,77.14934297967079L231.76999999999998,87.86960578780247L232.9525,80.12676347268143L234.13500000000002,51.85605808360884L235.3175,77.41863485016529L236.5,88.03118091009918L237.6825,66.04870854605952L238.865,67.0342251276357L240.04749999999999,91.2505350765814L241.23000000000002,91.60532104594887L242.4125,105.99319262756933L243.595,105.17591557654163L244.77749999999997,114.13554934592497L245.96,91.16132960755499L247.14249999999998,67.92679776453298L248.325,87.0610786587198L249.50750000000002,74.91664719523192L250.69,48.729988317139146L251.87249999999997,66.0929929902835L253.055,71.7857957941701L254.2375,61.026477476502066L255.42,82.92088648590124L256.6025,58.25753189154074L257.785,57.63451913492446L258.9675,47.81071148095464L260.15,46.64142688857282L261.3325,50.664856133143644L262.515,90.87891367988618L263.6975,91.38234820793173L264.88,91.68440892475905L266.0625,110.76564535485545L267.245,112.76438721291328L268.4275,128.13863232774798L269.61,123.18817939664879L270.7925,91.86790763798928L271.975,96.70074458279356L273.1575,132.67544674967613L274.34,88.11026804980565L275.5225,70.82116082988341L276.705,79.34769649793009L277.8875,70.28861789875805L279.07,64.85317073925484L280.2525,28.51690244355285L281.435,35.06514146613176L282.6175,20.09408487967903L283.8,58.361450927807425L284.9825,43.52187055668446L286.16499999999996,15.718122334010673L287.3475,46.28587340040639L288.53000000000003,55.176524040243805L289.7125,84.13591442414634L290.895,92.06154865448775L292.0775,101.54192919269269L293.26,83.60515751561559L294.4425,91.74309450936931L295.625,120.25085670562157L296.8075,109.00551402337294L297.99,106.98330841402378L299.1725,110.49498504841426L300.355,84.25199102904861L301.53749999999997,68.50619461742917L302.72,87.40871677045749L303.90250000000003,94.02523006227449L305.085,83.8201380373647L306.2675,77.69708282241879L307.45,78.74824969345127L308.6325,103.0039498160707L309.815,65.58236988964245L310.9975,80.92942193378548L312.18,85.41265316027125L313.3625,78.65259189616273L314.545,98.22155513769764L315.7275,114.68793308261854L316.90999999999997,124.56775984957113L318.0925,121.04565590974266L319.27500000000003,114.2073935458456L320.4575,100.65443612750738L321.64,54.72266167650446L322.8225,36.61359700590265L324.005,49.37315820354155L325.1875,80.65389492212495L326.37,104.14733695327493L327.5525,104.06840217196498L328.735,113.47104130317899L329.9175,109.66262478190743L331.1,107.37757486914444L332.28249999999997,96.55654492148665L333.465,99.513926952892L334.64750000000004,106.01335617173521L335.83,138.2630137030411L337.0125,119.8128082218247L338.195,137.09268493309483L339.3775,114.38561095985688L340.56,119.66136657591414L341.7425,132.2768199455485L342.925,116.22109196732913L344.1075,116.03765518039751L345.29,101.7525931082385L346.4725,107.35655586494312L347.655,129.6189335189659L348.8375,119.3513601113795L350.02,99.01581606682771L351.2025,105.71448964009664L352.385,90.83369378405797L353.5675,100.80521627043476L354.75,78.43812976226087L355.9325,65.01787785735655L357.11499999999995,61.69072671441393L358.2975,69.14443602864839L359.48,87.79166161718905L360.66249999999997,127.32999697031343L361.845,136.8779981821881L363.02750000000003,147.33179890931288L364.21,134.70407934558773L365.3925,122.40244760735268L366.57500000000005,148.0964685644116L367.7575,130.43788113864696L368.94,96.21772868318817L370.12249999999995,104.03563720991292L371.305,122.90138232594776L372.4875,134.22082939556867L373.66999999999996,93.7624976373412L374.85249999999996,78.93749858240471L376.035,136.1924991494428L377.2175,113.84549948966571L378.4,100.43729969379939L379.58250000000004,82.94237981627964L380.765,119.69542788976781L381.9475,146.4722567338607L383.13000000000005,157.81335404031643L384.3125,136.26801242418986L385.495,109.16580745451392L386.6775,130.70448447270834L387.85999999999996,96.37769068362496L389.0425,108.85661441017498L390.225,135.24396864610503L391.40749999999997,113.27638118766299L392.59000000000003,109.54582871259782L393.77250000000004,69.5074972275587L394.955,92.73449833653524L396.1375,125.57069900192116L397.32000000000005,140.54741940115272L398.5025,116.45845164069164L399.685,83.10507098441497L400.86749999999995,105.618042590649L402.05,114.40082555438943L403.2325,129.12049533263368L404.41499999999996,119.05229719958021L405.59749999999997,113.01137831974813L406.78000000000003,90.48682699184889L407.9625,124.22209619510937L409.145,116.11325771706561L410.32750000000004,115.97295463023937L411.51,92.26377277814362L412.6925,68.58826366688618L413.875,73.2829582001317L415.05749999999995,76.09977492007903L416.24,110.86486495204741L417.4225,117.54891897122849L418.60499999999996,116.83435138273711L419.7875,97.50561082964225L420.97,104.80836649778536L422.1525,109.19001989867121L423.33500000000004,92.91901193920273L424.51750000000004,144.58140716352162L425.7,142.503844298113L426.8825,122.35730657886779L428.06500000000005,148.0693839473207L429.2475,135.14663036839244L430.43,113.21797822103548L431.61249999999995,114.2357869326213L432.795,119.5714721595728L433.9775,136.94788329574368L435.15999999999997,147.37372997744617L436.3425,153.6292379864677L437.52500000000003,162.10754279188066L438.7075,162.46952567512838L439.89,162.68671540507705L441.07250000000005,110.84202924304623L442.255,136.43521754582775L443.4375,165.96613052749663L444.62,164.784678316498L445.80249999999995,145.1758069898988L446.985,114.51048419393925L448.1675,115.01129051636354L449.34999999999997,129.48677430981812L450.5325,123.99706458589088L451.71500000000003,125.42823875153454L452.8975,135.7369432509207L454.08,137.1971659505524L455.26250000000005,123.89829957033146L456.445,144.2689797421989L457.6275,165.94138784531935L458.80999999999995,178.94483270719158L459.9925,153.67189962431496L461.175,129.058139774589L462.35749999999996,147.36488386475338L463.53999999999996,115.82393031885204L464.7225,106.34935819131118L465.905,138.46461491478672L467.0875,138.833768948872L468.27000000000004,157.95526136932318L469.4525,155.2531568215939L470.635,163.08189409295636L471.81750000000005,167.7791364557738L473,142.24748187346427L474.1825,145.82848912407857L475.365,157.42709347444713L476.54749999999996,145.48625608466827L477.73,157.22175365080096L478.9125,154.81305219048056L480.09499999999997,153.3678313142883L481.27750000000003,180.85069878857303L482.46000000000004,178.44041927314382L483.6425,172.2692515638863L484.825,163.8415509383318L486.00750000000005,177.68493056299906L487.19,181.26595833779945L488.3725,169.23957500267966L489.55499999999995,138.39874500160778L490.7375,129.34424700096469L491.92,133.36154820057882L493.10249999999996,131.04692892034728L494.28499999999997,134.38315735220837L495.46750000000003,122.209894411325L496.65,157.430936646795L497.8325,154.938561988077L499.01500000000004,148.71813719284623L500.1975,149.71088231570772L501.38,155.03152938942463L502.5625,167.6739176336548L503.74499999999995,170.5343505801929L504.9275,158.0756103481157L506.11,183.67536620886946L507.29249999999996,180.13521972532166L508.475,154.386131835193L509.6575,148.38667910111585L510.84,144.78700746066949L512.0225,166.2522044764017L513.205,131.881322685841L514.3874999999999,134.8837936115046L515.57,160.31027616690275L516.7525,156.66616570014168L517.935,178.10469942008498L519.1175000000001,172.06781965205099L520.3,163.7206917912306L521.4825,125.63741507473836L522.665,121.68744904484299L523.8475,128.76746942690582L525.03,109.39048165614349L526.2125,107.21428899368607L527.395,110.63357339621166L528.5775,122.135144037727L529.76,119.58608642263619L530.9425,146.4066518535817L532.125,171.94899111214903L533.3075,149.47439466728943L534.49,159.61463680037366L535.6725,142.0737820802242L536.855,131.54926924813452L538.0375,148.85956154888075L539.22,159.24573692932844L540.4025,141.85244215759707L541.585,126.69146529455821L542.7675,117.59487917673493L543.95,135.76192750604096L545.1324999999999,160.83715650362456L546.315,147.53229390217476L547.4975,153.72437634130483L548.68,143.2646258047829L549.8625000000001,151.16377548286977L551.045,137.00326528972184L552.2275,166.3069591738331L553.41,141.36417550429988L554.5925,112.22350530257995L555.775,141.98910318154796L556.9575,117.32346190892878L558.14,116.69907714535725L559.3225,116.32444628721436L560.505,149.1746677723286L561.6875,154.70980066339715L562.87,134.4058803980383L564.0525,131.673528238823L565.235,111.1341169432938L566.4175,131.88547016597633L567.6,144.33628209958582L568.7825,170.70676925975147L569.965,177.07906155585087L571.1475,157.27743693351053L572.3299999999999,169.0214621601063L573.5125,166.6178772960638L574.695,155.72572637763827L575.8774999999999,153.91543582658295L577.0600000000001,176.45426149594977L578.2425,194.70255689756988L579.425,191.47653413854192L580.6075000000001,180.09092048312516L581.79,182.70955228987512L582.9725,179.55573137392508L584.155,187.11343882435503L585.3375,163.298063294613L586.52,163.1838379767678L587.7025,130.0403027860607L588.885,124.32918167163643L590.0675,135.07750900298188L591.25,165.15150540178914L592.4325,140.67090324107352L593.615,140.1575419446441L594.7975,144.5745251667865L595.98,137.77471510007192L597.1625,152.59482906004317L598.345,156.7618974360259L599.5275,145.08713846161555L600.71,123.90728307696935L601.8925,139.5493698461816L603.0749999999999,144.20962190770896L604.2575,175.35577314462537L605.44,179.86846388677523L606.6225,163.67607833206512L607.8050000000001,168.1356469992391L608.9875,142.4613881995435L610.17,122.33183291972611L611.3525,148.05409975183565L612.535,158.7624598511014L613.7175,146.28747591066085L614.9,157.7024855463965L616.0825,140.92649132783788L617.265,154.48589479670272L618.4475,153.17153687802164L619.63,161.83292212681297L620.8125,157.57975327608776L621.995,145.57785196565268L623.1775,162.0017111793916L624.36,167.131026707635L625.5425,165.48361602458098L626.725,121.97016961474856L627.9075,152.56210176884915L629.09,123.66726106130949L630.2725,115.78035663678571L631.455,120.49821398207143L632.6375,137.50392838924287L633.8199999999999,157.15735703354574L635.0025,154.77441422012745L636.185,148.61964853207647L637.3675,135.47678911924586L638.5500000000001,165.39107347154751L639.7325,126.6396440829285L640.915,127.0137864497571L642.0975,141.41327186985427L643.28,135.87796312191256L644.4625,137.28177787314755L645.645,123.94906672388854L646.8275,125.39944003433314L648.01,145.1696640205999L649.1925,190.10679841235992L650.375,169.81907904741598L651.5575,204.89644742844956L652.74,188.14286845706974L653.9225,182.81572107424188L655.105,137.09443264454512L656.2875,180.53665958672707L657.47,187.7019957520362L658.6525,144.75119745122174L659.835,180.40571847073304L661.0174999999999,159.27343108243983L662.2,193.8440586494639L663.3825,172.06143518967835L664.5649999999999,187.34186111380703L665.7475000000001,144.53511666828422L666.93,142.47607000097054L668.1125,174.31564200058233L669.2950000000001,136.7193852003494L670.4775,123.61163112020967L671.66,134.64697867212578L672.8425,141.2681872032755L674.025,140.51591232196532L675.2075,158.9645473931792L676.39,179.4837284359075L677.5725,191.79523706154453L678.755,142.48214223692668L679.9375,169.59428534215598L681.12,195.3115712052936L682.3025,187.11694272317618L683.485,163.3001656339057L684.6675,153.73509938034343L685.85,147.99605962820607L687.0325,130.37763577692365L688.215,152.88158146615422L689.3975,156.9339488796925L690.58,173.5403693278155L691.7624999999999,169.3292215966893L692.945,171.52753295801358L694.1275,201.19651977480817L695.31,228.44791186488493L696.4925000000001,211.72374711893096L697.675,187.51424827135858L698.8575,154.08854896281517L700.04,138.75812937768913L701.2225,162.63487762661345L702.405,153.33592657596807L703.5875,138.30655594558084L704.77,167.0889335673485L705.9525,179.63336014040908L707.135,187.16001608424543L708.3175,177.50100965054725L709.5,200.05560579032834L710.6825,185.238363474197L711.865,166.8980180845182L713.0474999999999,127.54381085071088L714.2299999999999,141.73128651042657L715.4125,154.96877190625594L716.595,153.46126314375357L717.7775,176.18175788625211L718.96,166.18905473175127L720.1424999999999,174.36843283905077L721.3249999999999,165.10105970343045L722.5074999999999,140.6406358220583L723.69,173.21438149323498L724.8725000000001,192.75862889594097L726.0550000000001,190.3101773375646L727.2375,179.39110640253878L728.42,168.11466384152325L729.6025,156.62379830491395L730.785,149.7292789829484L731.9675000000001,150.31756738976904L733.1500000000001,136.4955404338614L734.3325,156.55232426031685L735.515,159.13639455619008L736.6975,160.68683673371407L737.88,156.89210204022842L739.0625,164.06526122413706L740.2449999999999,158.91915673448224L741.4274999999999,160.55649404068933L742.61,170.9888964244136L743.7925,144.17333785464817L744.975,132.8090027127889L746.1575,154.34040162767334L747.3399999999999,157.809240976604L748.5224999999999,159.8905445859624L749.7049999999999,184.76432675157747L750.8875,171.33859605094648L752.07,163.28315763056787L753.2525,182.07489457834072L754.435,179.17493674700444L755.6175,172.70996204820267L756.8,173.5559772289216L757.9825000000001,155.16358633735294L759.1650000000001,163.02815180241177L760.3475000000001,125.22189108144707L761.53,159.23813464886823L762.7125,156.02288078932094L763.895,182.44372847359256L765.0775,184.12123708415552L766.2600000000001,180.4027422504933L767.4425000000001,163.99664535029598L768.625,163.6029872101776L769.8075,186.99179232610655L770.99,177.40007539566395L772.1725,195.27004523739836L773.355,196.54202714243905L774.5374999999999,197.30521628546344L775.7199999999999,159.9631297712781L776.9025,132.83287786276685L778.085,144.9047267176601L779.2675,171.04783603059605L780.45,163.10870161835763L781.6324999999999,148.89522097101462L782.8149999999999,187.61713258260878L783.9975,158.87527954956525L785.1800000000001,165.25516772973916L786.3625000000001,169.0831006378435L787.5450000000001,166.6548603827061L788.7275,160.47291622962368L789.91,170.93874973777423L791.0925,158.3182498426645L792.275,188.54594990559872L793.4575000000001,187.78256994335922L794.6400000000001,177.87454196601553L795.8225,162.47972517960932L797.005,157.9678351077656L798.1875,136.36070106465937L799.37,156.47142063879562L800.5525,168.53785238327737L801.7349999999999,194.67771142996645L802.9174999999999,177.28662685797985L804.1,166.8519761147879L805.2825,174.76618566887277L806.465,170.06471140132365L807.6475,167.2438268407942L808.8299999999999,151.37629610447652L810.0124999999999,170.2057776626859L811.1949999999999,148.42846659761156L812.3775,154.26207995856694L813.5600000000001,143.58724797514017L814.7425000000001,146.63234878508408L815.925,139.00940927105046L817.1075,129.71064556263028L818.29,166.65638733757817L819.4725,127.3988324025469L820.6550000000001,146.3692994415281L821.8375000000001,157.7515796649169L823.02,159.85594779895015L824.2025,170.5685686793701L825.385,191.17114120762204L826.5675,194.08268472457323L827.75,172.20461083474393L828.9324999999999,187.42776650084636L830.1149999999999,163.48665990050782L831.2975,163.2969959403047L832.48,139.5581975641828L833.6625,163.11491853850964L834.845,148.8989511231058L836.0274999999999,159.2693706738635L837.2099999999999,156.0416224043181L838.3924999999999,187.17997344259086L839.575,191.6879840655545L840.7575,218.01779043933269L841.94,181.84067426359962L843.1225,164.85940455815975L844.305,154.67064273489584L845.4875,148.55738564093753L846.6700000000001,140.16443138456253L847.8525000000001,135.12865883073752L849.0350000000001,132.10719529844252L850.2175,144.4693171790655L851.4,166.0615903074393L852.5825,202.64195418446357L853.765,177.34017251067814L854.9475000000001,185.78410350640686L856.1300000000001,162.50046210384411L857.3125,176.88027726230646L858.495,152.4331663573839L859.6775,147.2148998144303L860.86,144.08393988865816L862.0425,165.8303639331949L863.2249999999999,155.25321835991693L864.4074999999999,167.80693101595017L865.59,165.8891586095701L866.7725,164.73849516574208L867.955,164.04809709944524L869.1375,144.73385825966713L870.3199999999999,152.04531495580025L871.5024999999999,128.08218897348019L872.685,108.97931338408807L873.8675000000001,111.69258803045284L875.0500000000001,127.49555281827173L876.2325000000001,146.42733169096303L877.415,171.96139901457784L878.5975,182.5568394087467L879.78,141.66410364524805L880.9625,126.57846218714883L882.1450000000001,141.1520773122893L883.3275000000001,168.79624638737357L884.51,190.10774783242414L885.6925,174.5446486994545L886.875,155.7567892196727L888.0575,163.3840735318036L889.24,163.23544411908216L890.4224999999999,158.4212664714493L891.6049999999999,174.4327598828696L892.7875,207.66465592972173L893.97,208.70379355783305L895.1525,214.05227613469984L896.335,203.0863656808199L897.5174999999999,163.43181940849195L898.6999999999999,186.8890916450952L899.8824999999999,215.13845498705712L901.065,175.38807299223424L902.2475000000001,175.16284379534054L903.4300000000001,193.92770627720432L904.6125,167.38662376632257L905.795,160.91197425979357L906.9775,180.65218455587615L908.16,187.77131073352567L909.3425000000001,196.7677864401154L910.5250000000001,173.81567186406926L911.7075,155.31940311844156L912.89,177.29664187106494L914.0725,157.40798512263896L915.255,140.7497910735834L916.4375,154.37987464415005L917.6199999999999,162.55792478649005L918.8024999999999,172.18975487189405L919.985,192.14385292313642L921.1675,166.31631175388188L922.35,169.7197870523291L923.5325,162.31187223139747L924.7149999999999,176.76712333883845L925.8974999999999,180.7152740033031L927.0799999999999,192.53416440198185L928.2625,190.17549864118914L929.445,188.7602991847135L930.6275,164.2861795108281L931.81,163.77670770649686L932.9925,191.8210246238981L934.175,185.02261477433888L935.3575000000001,199.8435688646033L936.5400000000001,204.011141318762L937.7225000000001,192.33668479125717L938.905,166.43201087475433L940.0875,183.96420652485259L941.27,175.58352391491155L942.4525,189.45511434894692L943.6350000000001,216.67806860936815L944.8175000000001,214.11184116562092L946,198.39710469937253L947.1825,170.06826281962353L948.365,148.34595769177415L949.5475,158.93757461506448L950.73,141.66754476903867L951.9124999999999,154.93052686142317L953.0949999999999,158.16331611685388L954.2775,150.65298967011233L955.46,160.3217938020674L956.6425,180.2980762812404L957.825,163.93384576874425L959.0074999999999,158.84030746124654L960.1899999999999,174.68418447674793L961.3725,179.46551068604876L962.5550000000001,187.05930641162925L963.7375000000001,186.89058384697756L964.9200000000001,191.51435030818655L966.1025,217.9136101849119L967.285,200.67816611094716L968.4675,185.61189966656832L969.65,167.122139799941L970.8325000000001,160.75328387996458L972.0150000000001,171.10697032797876L973.1975,191.49418219678725L974.38,184.82650931807234L975.5625,180.8259055908434L976.745,187.87554335450605L977.9275,187.38032601270365L979.1099999999999,182.35819560762215L980.2924999999999,212.4199173645733L981.475,197.38195041874397L982.6575,160.0091702512464L983.84,199.01050215074784L985.0225,184.61130129044872L986.2049999999999,175.97178077426923L987.3874999999999,166.06306846456155L988.5699999999999,193.19284107873693L989.7525,200.02070464724218L990.9350000000001,208.84242278834532L992.1175000000001,195.23545367300719L993.3,168.17127220380434L994.4825,180.2827633222826L995.665,154.47465799336956L996.8475,157.88979479602173L998.0300000000001,169.38887687761306L999.2125000000001,157.38832612656782L1000.395,183.26299567594072L1001.5775,175.16279740556445L1002.76,160.85267844333868L1003.9425,175.89160706600322L1005.125,161.2899642396019L1006.3074999999999,152.52897854376113L1007.4899999999999,161.44738712625667L1008.6725,166.798432275754L1009.855,151.1090593654524L1011.0375,160.59543561927146L1012.22,171.01226137156286L1013.4024999999999,167.81235682293772L1014.5849999999999,198.96741409376264L1015.7674999999999,217.6604484562576L1016.95,205.25126907375454L1018.1325,216.70576144425274L1019.315,218.85345686655165L1020.4975,196.51707411993098L1021.68,206.74024447195862L1022.8625,217.59914668317518L1024.045,181.58948800990512L1025.2275,193.05869280594308L1026.41,143.24021568356582L1027.5925,155.8741294101395L1028.7749999999999,172.90447764608368L1029.9575,154.7726865876502L1031.14,186.41861195259014L1032.3225,172.3311671715541L1033.505,187.50370030293246L1034.6875,168.2572201817595L1035.87,161.4343321090557L1037.0525,171.51559926543342L1038.2350000000001,187.01435955926004L1039.4175,153.78861573555605L1040.6,171.65316944133363L1041.7825,168.19690166480015L1042.965,180.2981409988801L1044.1475,178.10888459932806L1045.33,186.2453307595968L1046.5125,162.7771984557581L1047.695,200.67131907345484L1048.8775,176.15779144407293L1050.06,199.24967486644374L1051.2425,194.20480491986623L1052.425,186.45288295191978L1053.6075,177.07672977115186L1054.79,195.07603786269112L1055.9724999999999,172.8006227176147L1057.155,197.2353736305688L1058.3375,169.3712241783413L1059.52,171.55273450700477L1060.7025,153.9616407042029L1061.885,133.9569844225217L1063.0674999999999,140.85419065351303L1064.25,149.71751439210783L1065.4325000000001,164.4855086352647L1066.615,154.44630518115878L1067.7975,157.87278310869527L1068.98,141.02866986521718L1070.1625,154.54720191913032L1071.345,153.20832115147817L1072.5275000000001,171.30499269088688L1073.71,149.08799561453213L1074.8925,187.73279736871928L1076.075,187.29467842123157L1077.2575,149.23180705273893L1078.44,131.1190842316434L1079.6225,139.151450538986L1080.805,148.69587032339166L1081.9875,178.047522194035L1083.17,190.93351331642097L1084.3525,189.21510798985258L1085.535,216.53406479391154L1086.7175,199.8504388763469L1087.9,189.84026332580814L1089.0825,164.93415799548492L1090.2649999999999,168.89049479729096L1091.4475,175.98929687837457L1092.63,194.42357812702474L1093.8125,177.13414687621483L1094.995,180.9354881257289L1096.1775,178.49129287543732L1097.36,125.0497757252624L1098.5425,159.13486543515742L1099.7250000000001,155.96091926109446L1100.9075,163.5065515566567L1102.09,172.758930933994L1103.2725,192.4853585603964L1104.455,185.4212151362378L1105.6375,162.2827290817427L1106.82,181.47463744904564L1108.0025,192.98978246942735L1109.185,190.44886948165646L1110.3675,165.29932168899387L1111.55,188.0095930133963L1112.7325,154.38575580803777L1113.915,157.8364534848227L1115.0975,174.08187209089363L1116.28,207.45412325453614L1117.4624999999999,208.5774739527217L1118.645,204.52648437163305L1119.8275,197.37089062297983L1121.01,183.62753437378788L1122.1925,147.03152062427273L1123.375,153.42391237456366L1124.5575,152.53434742473817L1125.74,166.17560845484292L1126.9225000000001,188.53536507290573L1128.105,197.22621904374344L1129.2875,197.7157314262461L1130.47,193.28443885574765L1131.6525,167.0006633134486L1132.835,179.58039798806914L1134.0175,191.85323879284147L1135.2,194.49194327570487L1136.3825,196.07516596542294L1137.565,163.95009957925373L1138.7475,154.12505974755226L1139.93,176.58003584853137L1141.1125,180.60302150911883L1142.295,187.74181290547128L1143.4775,182.57508774328278L1144.6599999999999,179.47505264596967L1145.8425,182.3400315875818L1147.025,193.50901895254907L1148.2075,171.86041137152944L1149.39,135.24624682291764L1150.5725,151.0777480937506L1151.7549999999999,151.12664885625037L1152.9375,160.60598931375023L1154.1200000000001,180.46859358825012L1155.3025,206.56115615295008L1156.485,189.14169369177003L1157.6675,183.41501621506202L1158.85,179.97900972903724L1160.0325,177.91740583742234L1161.2150000000001,181.4054435024534L1162.3975,178.77326610147205L1163.58,167.74395966088323L1164.7625,184.75137579652994L1165.945,185.50582547791797L1167.1275,200.1334952867508L1168.31,218.36009717205047L1169.4925,210.3960583032303L1170.675,186.71763498193818L1171.8575,191.4105809891629L1173.04,175.32634859349773L1174.2225,198.75080915609865L1175.405,193.9054854936592L1176.5875,209.89829129619548L1177.77,176.96897477771728L1178.9524999999999,166.66138486663039L1180.135,155.75183091997823L1181.3175,144.48109855198695L1182.5,161.34365913119217L1183.6825,185.63619547871528L1184.865,204.9367172872292L1186.0475,192.8920303723375L1187.23,190.39021822340248L1188.4125000000001,203.06413093404151L1189.595,215.39347856042488L1190.7775,194.44108713625494L1191.96,172.41965228175297L1193.1425,163.9317913690518L1194.325,187.18907482143106L1195.5075,163.34344489285866L1196.69,177.38606693571518L1197.8725,166.91164016142912L1199.055,165.35198409685748L1200.2375,159.69119045811448L1201.42,170.46971427486872L1202.6025,176.93682856492123L1203.785,161.91709713895273L1204.9675,157.63025828337163L1206.1499999999999,169.233154970023L1207.3325,166.74489298201382L1208.515,179.42693578920827L1209.6975,163.41116147352497L1210.88,172.70169688411497L1212.0625,173.55101813046898L1213.245,207.13561087828137L1214.4275,213.11136652696882L1215.6100000000001,202.5218199161813L1216.7925,167.8180919497088L1217.975,175.34585516982528L1219.1575,179.8625131018952L1220.34,192.02250786113711L1221.5225,185.14350471668223L1222.705,185.74110283000934L1223.8875,176.64966169800562L1225.07,175.91979701880337L1226.2525,166.03187821128202L1227.435,169.54912692676922L1228.6175,152.75947615606154L1229.8,137.96068569363692L1230.9825,124.35641141618217L1232.165,158.7188468497093L1233.3474999999999,165.16130810982557L1234.53,192.65178486589534L1235.7125,199.69607091953722L1236.895,175.5726425517223L1238.0775,203.6235855310334L1239.26,173.20415131862003L1240.4424999999999,183.30249079117203L1241.625,189.3614944747032L1242.8075000000001,159.92189668482195L1243.99,198.95813801089312L1245.1725,203.4798828065359L1246.355,192.01792968392152L1247.5375,194.59075781035293L1248.72,186.68445468621178L1249.9025000000001,196.11567281172705L1251.085,173.42440368703623L1252.2675,173.98464221222176L1253.45,212.12078532733307L1254.6325,197.20247119639984L1255.815,197.7014827178399L1256.9975,202.72588963070393L1258.18,201.01553377842237L1259.3625,171.63932026705342L1260.545,187.08859216023203L1261.7275,196.35815529613924L1262.91,192.46989317768356L1264.0925,199.5869359066101L1265.275,184.9571615439661L1266.4575,176.17929692637966L1267.6399999999999,166.1875781558278L1268.8225,188.54254689349668L1270.005,187.78052813609798L1271.1875,182.5983168816588L1272.37,179.4889901289953L1273.5525,158.72339407739716L1274.735,132.08903644643829L1275.9175,163.35842186786297L1277.1000000000001,120.69505312071777L1278.2825,137.62203187243068L1279.465,128.87821912345842L1280.6475,147.25693147407506L1281.83,153.55915888444505L1283.0125,162.065495330667L1284.195,157.7192971984002L1285.3775,155.11157831904012L1286.56,162.99694699142407L1287.7425,181.90316819485443L1288.925,179.07190091691265L1290.1075,200.99814055014758L1291.29,204.70388433008856L1292.4725,202.20233059805312L1293.655,195.9763983588319L1294.8374999999999,206.41583901529913L1296.02,193.77950340917948L1297.2025,181.4727020455077L1298.385,188.2636212273046L1299.5675,201.78817273638276" style="fill: none;" fill="none"></path></g></g></g></g><g opacity="0.2"><g><g><g><path stroke="rgb(0, 119, 187)" stroke-width="2px" d="M127.71,-73.23750000000001L128.8925,80.32499999999999L130.075,-238.61250000000007L137.17,-14.175000000000011L138.3525,21.26249999999999L139.535,-49.61250000000001L146.63,-14.175000000000011L147.8125,103.94999999999999L148.995,-49.61250000000001L150.1775,103.94999999999999L151.36,92.13749999999999L152.5425,21.26249999999999L153.725,-14.175000000000011L154.9075,21.26249999999999L156.09,-73.23750000000001L157.2725,33.07499999999999L158.45499999999998,21.26249999999999L159.63750000000002,21.26249999999999L160.82,-14.175000000000011L162.0025,80.32499999999999L163.185,44.88749999999999L164.3675,-37.80000000000001L165.55,92.13749999999999L166.7325,33.07499999999999L167.915,-49.61250000000001L169.0975,103.94999999999999L170.28,33.07499999999999L171.4625,56.69999999999999L172.645,92.13749999999999L173.8275,21.26249999999999L175.01,68.51249999999999L176.1925,21.26249999999999L177.375,56.69999999999999L178.55749999999998,21.26249999999999L179.74,56.69999999999999L180.9225,56.69999999999999L182.105,9.449999999999989L183.28750000000002,92.13749999999999L184.47,103.94999999999999L185.6525,33.07499999999999L186.83499999999998,80.32499999999999L188.0175,56.69999999999999L189.2,21.26249999999999L190.3825,68.51249999999999L191.56500000000003,21.26249999999999L192.7475,-61.42500000000001L193.92999999999998,9.449999999999989L195.1125,-25.98750000000001L196.29500000000002,68.51249999999999L197.4775,33.07499999999999L198.66000000000003,103.94999999999999L199.8425,44.88749999999999L201.025,68.51249999999999L202.20749999999998,56.69999999999999L203.39000000000001,44.88749999999999L204.5725,-25.98750000000001L205.755,21.26249999999999L206.9375,115.76249999999999L208.12,9.449999999999989L209.30249999999998,33.07499999999999L210.485,21.26249999999999L211.66750000000002,-25.98750000000001L212.85,115.76249999999999L214.03250000000003,68.51249999999999L215.215,56.69999999999999L216.3975,68.51249999999999L217.57999999999998,80.32499999999999L218.76250000000002,92.13749999999999L219.945,103.94999999999999L221.1275,-25.98750000000001L222.31,127.57500000000002L223.4925,92.13749999999999L224.67499999999998,-14.175000000000011L225.85750000000002,-2.3625000000000114L227.04,44.88749999999999L228.2225,115.76249999999999L229.40499999999997,68.51249999999999L230.5875,92.13749999999999L231.76999999999998,103.94999999999999L232.9525,68.51249999999999L234.13500000000002,9.449999999999989L235.3175,115.76249999999999L236.5,103.94999999999999L237.6825,33.07499999999999L238.865,68.51249999999999L240.04749999999999,127.57500000000002L241.23000000000002,92.13749999999999L242.4125,127.57500000000002L243.595,103.94999999999999L244.77749999999997,127.57500000000002L245.96,56.69999999999999L247.14249999999998,33.07499999999999L248.325,115.76249999999999L249.50750000000002,56.69999999999999L250.69,9.449999999999989L251.87249999999997,92.13749999999999L253.055,80.32499999999999L254.2375,44.88749999999999L255.42,115.76249999999999L256.6025,21.26249999999999L257.785,56.69999999999999L258.9675,33.07499999999999L260.15,44.88749999999999L261.3325,56.69999999999999L262.515,151.20000000000002L263.6975,92.13749999999999L264.88,92.13749999999999L266.0625,139.38750000000002L267.245,115.76249999999999L268.4275,151.20000000000002L269.61,115.76249999999999L270.7925,44.88749999999999L271.975,103.94999999999999L273.1575,186.63750000000002L274.34,21.26249999999999L275.5225,44.88749999999999L276.705,92.13749999999999L277.8875,56.69999999999999L279.07,56.69999999999999L280.2525,-25.98750000000001L281.435,44.88749999999999L282.6175,-2.3625000000000114L283.8,115.76249999999999L284.9825,21.26249999999999L286.16499999999996,-25.98750000000001L287.3475,92.13749999999999L288.53000000000003,68.51249999999999L289.7125,127.57500000000002L290.895,103.94999999999999L292.0775,115.76249999999999L293.26,56.69999999999999L294.4425,103.94999999999999L295.625,163.01250000000002L296.8075,92.13749999999999L297.99,103.94999999999999L299.1725,115.76249999999999L300.355,44.88749999999999L301.53749999999997,44.88749999999999L302.72,115.76249999999999L303.90250000000003,103.94999999999999L305.085,68.51249999999999L306.2675,68.51249999999999L307.45,80.32499999999999L308.6325,139.38750000000002L309.815,9.449999999999989L310.9975,103.94999999999999L312.18,92.13749999999999L313.3625,68.51249999999999L314.545,127.57500000000002L315.7275,139.38750000000002L316.90999999999997,139.38750000000002L318.0925,115.76249999999999L319.27500000000003,103.94999999999999L320.4575,80.32499999999999L321.64,-14.175000000000011L322.8225,9.449999999999989L324.005,68.51249999999999L325.1875,127.57500000000002L326.37,139.38750000000002L327.5525,103.94999999999999L328.735,127.57500000000002L329.9175,103.94999999999999L331.1,103.94999999999999L332.28249999999997,80.32499999999999L333.465,103.94999999999999L334.64750000000004,115.76249999999999L335.83,186.63750000000002L337.0125,92.13749999999999L338.195,163.01250000000002L339.3775,80.32499999999999L340.56,127.57500000000002L341.7425,151.20000000000002L342.925,92.13749999999999L344.1075,115.76249999999999L345.29,80.32499999999999L346.4725,115.76249999999999L347.655,163.01250000000002L348.8375,103.94999999999999L350.02,68.51249999999999L351.2025,115.76249999999999L352.385,68.51249999999999L353.5675,115.76249999999999L354.75,44.88749999999999L355.9325,44.88749999999999L357.11499999999995,56.69999999999999L358.2975,80.32499999999999L359.48,115.76249999999999L360.66249999999997,186.63750000000002L361.845,151.20000000000002L363.02750000000003,163.01250000000002L364.21,115.76249999999999L365.3925,103.94999999999999L366.57500000000005,186.63750000000002L367.7575,103.94999999999999L368.94,44.88749999999999L370.12249999999995,115.76249999999999L371.305,151.20000000000002L372.4875,151.20000000000002L373.66999999999996,33.07499999999999L374.85249999999996,56.69999999999999L376.035,222.07500000000002L377.2175,80.32499999999999L378.4,80.32499999999999L379.58250000000004,56.69999999999999L380.765,174.82500000000002L381.9475,186.63750000000002L383.13000000000005,174.82500000000002L384.3125,103.94999999999999L385.495,68.51249999999999L386.6775,163.01250000000002L387.85999999999996,44.88749999999999L389.0425,127.57500000000002L390.225,174.82500000000002L391.40749999999997,80.32499999999999L392.59000000000003,103.94999999999999L393.77250000000004,9.449999999999989L394.955,127.57500000000002L396.1375,174.82500000000002L397.32000000000005,163.01250000000002L398.5025,80.32499999999999L399.685,33.07499999999999L400.86749999999995,139.38750000000002L402.05,127.57500000000002L403.2325,151.20000000000002L404.41499999999996,103.94999999999999L405.59749999999997,103.94999999999999L406.78000000000003,56.69999999999999L407.9625,174.82500000000002L409.145,103.94999999999999L410.32750000000004,115.76249999999999L411.51,56.69999999999999L412.6925,33.07499999999999L413.875,80.32499999999999L415.05749999999995,80.32499999999999L416.24,163.01250000000002L417.4225,127.57500000000002L418.60499999999996,115.76249999999999L419.7875,68.51249999999999L420.97,115.76249999999999L422.1525,115.76249999999999L423.33500000000004,68.51249999999999L424.51750000000004,222.07500000000002L425.7,139.38750000000002L426.8825,92.13749999999999L428.06500000000005,186.63750000000002L429.2475,115.76249999999999L430.43,80.32499999999999L431.61249999999995,115.76249999999999L432.795,127.57500000000002L433.9775,163.01250000000002L435.15999999999997,163.01250000000002L436.3425,163.01250000000002L437.52500000000003,174.82500000000002L438.7075,163.01250000000002L439.89,163.01250000000002L441.07250000000005,33.07499999999999L442.255,174.82500000000002L443.4375,210.26250000000002L444.62,163.01250000000002L445.80249999999995,115.76249999999999L446.985,68.51249999999999L448.1675,115.76249999999999L449.34999999999997,151.20000000000002L450.5325,115.76249999999999L451.71500000000003,127.57500000000002L452.8975,151.20000000000002L454.08,139.38750000000002L455.26250000000005,103.94999999999999L456.445,174.82500000000002L457.6275,198.45000000000002L458.80999999999995,198.45000000000002L459.9925,115.76249999999999L461.175,92.13749999999999L462.35749999999996,174.82500000000002L463.53999999999996,68.51249999999999L464.7225,92.13749999999999L465.905,186.63750000000002L467.0875,139.38750000000002L468.27000000000004,186.63750000000002L469.4525,151.20000000000002L470.635,174.82500000000002L471.81750000000005,174.82500000000002L473,103.94999999999999L474.1825,151.20000000000002L475.365,174.82500000000002L476.54749999999996,127.57500000000002L477.73,174.82500000000002L478.9125,151.20000000000002L480.09499999999997,151.20000000000002L481.27750000000003,222.07500000000002L482.46000000000004,174.82500000000002L483.6425,163.01250000000002L484.825,151.20000000000002L486.00750000000005,198.45000000000002L487.19,186.63750000000002L488.3725,151.20000000000002L489.55499999999995,92.13749999999999L490.7375,115.76249999999999L491.92,139.38750000000002L493.10249999999996,127.57500000000002L494.28499999999997,139.38750000000002L495.46750000000003,103.94999999999999L496.65,210.26250000000002L497.8325,151.20000000000002L499.01500000000004,139.38750000000002L500.1975,151.20000000000002L501.38,163.01250000000002L502.5625,186.63750000000002L503.74499999999995,174.82500000000002L504.9275,139.38750000000002L506.11,222.07500000000002L507.29249999999996,174.82500000000002L508.475,115.76249999999999L509.6575,139.38750000000002L510.84,139.38750000000002L512.0225,198.45000000000002L513.205,80.32499999999999L514.3874999999999,139.38750000000002L515.57,198.45000000000002L516.7525,151.20000000000002L517.935,210.26250000000002L519.1175000000001,163.01250000000002L520.3,151.20000000000002L521.4825,68.51249999999999L522.665,115.76249999999999L523.8475,139.38750000000002L525.03,80.32499999999999L526.2125,103.94999999999999L527.395,115.76249999999999L528.5775,139.38750000000002L529.76,115.76249999999999L530.9425,186.63750000000002L532.125,210.26250000000002L533.3075,115.76249999999999L534.49,174.82500000000002L535.6725,115.76249999999999L536.855,115.76249999999999L538.0375,174.82500000000002L539.22,174.82500000000002L540.4025,115.76249999999999L541.585,103.94999999999999L542.7675,103.94999999999999L543.95,163.01250000000002L545.1324999999999,198.45000000000002L546.315,127.57500000000002L547.4975,163.01250000000002L548.68,127.57500000000002L549.8625000000001,163.01250000000002L551.045,115.76249999999999L552.2275,210.26250000000002L553.41,103.94999999999999L554.5925,68.51249999999999L555.775,186.63750000000002L556.9575,80.32499999999999L558.14,115.76249999999999L559.3225,115.76249999999999L560.505,198.45000000000002L561.6875,163.01250000000002L562.87,103.94999999999999L564.0525,127.57500000000002L565.235,80.32499999999999L566.4175,163.01250000000002L567.6,163.01250000000002L568.7825,210.26250000000002L569.965,186.63750000000002L571.1475,127.57500000000002L572.3299999999999,186.63750000000002L573.5125,163.01250000000002L574.695,139.38750000000002L575.8774999999999,151.20000000000002L577.0600000000001,210.26250000000002L578.2425,222.07500000000002L579.425,186.63750000000002L580.6075000000001,163.01250000000002L581.79,186.63750000000002L582.9725,174.82500000000002L584.155,198.45000000000002L585.3375,127.57500000000002L586.52,163.01250000000002L587.7025,80.32499999999999L588.885,115.76249999999999L590.0675,151.20000000000002L591.25,210.26250000000002L592.4325,103.94999999999999L593.615,139.38750000000002L594.7975,151.20000000000002L595.98,127.57500000000002L597.1625,174.82500000000002L598.345,163.01250000000002L599.5275,127.57500000000002L600.71,92.13749999999999L601.8925,163.01250000000002L603.0749999999999,151.20000000000002L604.2575,222.07500000000002L605.44,186.63750000000002L606.6225,139.38750000000002L607.8050000000001,174.82500000000002L608.9875,103.94999999999999L610.17,92.13749999999999L611.3525,186.63750000000002L612.535,174.82500000000002L613.7175,127.57500000000002L614.9,174.82500000000002L616.0825,115.76249999999999L617.265,174.82500000000002L618.4475,151.20000000000002L619.63,174.82500000000002L620.8125,151.20000000000002L621.995,127.57500000000002L623.1775,186.63750000000002L624.36,174.82500000000002L625.5425,163.01250000000002L626.725,56.69999999999999L627.9075,198.45000000000002L629.09,80.32499999999999L630.2725,103.94999999999999L631.455,127.57500000000002L632.6375,163.01250000000002L633.8199999999999,186.63750000000002L635.0025,151.20000000000002L636.185,139.38750000000002L637.3675,115.76249999999999L638.5500000000001,210.26250000000002L639.7325,68.51249999999999L640.915,127.57500000000002L642.0975,163.01250000000002L643.28,127.57500000000002L644.4625,139.38750000000002L645.645,103.94999999999999L646.8275,127.57500000000002L648.01,174.82500000000002L649.1925,257.5125L650.375,139.38750000000002L651.5575,257.5125L652.74,163.01250000000002L653.9225,174.82500000000002L655.105,68.51249999999999L656.2875,245.70000000000002L657.47,198.45000000000002L658.6525,80.32499999999999L659.835,233.88750000000002L661.0174999999999,127.57500000000002L662.2,245.70000000000002L663.3825,139.38750000000002L664.5649999999999,210.26250000000002L665.7475000000001,80.32499999999999L666.93,139.38750000000002L668.1125,222.07500000000002L669.2950000000001,80.32499999999999L670.4775,103.94999999999999L671.66,151.20000000000002L672.8425,151.20000000000002L674.025,139.38750000000002L675.2075,186.63750000000002L676.39,210.26250000000002L677.5725,210.26250000000002L678.755,68.51249999999999L679.9375,210.26250000000002L681.12,233.88750000000002L682.3025,174.82500000000002L683.485,127.57500000000002L684.6675,139.38750000000002L685.85,139.38750000000002L687.0325,103.94999999999999L688.215,186.63750000000002L689.3975,163.01250000000002L690.58,198.45000000000002L691.7624999999999,163.01250000000002L692.945,174.82500000000002L694.1275,245.70000000000002L695.31,269.325L696.4925000000001,186.63750000000002L697.675,151.20000000000002L698.8575,103.94999999999999L700.04,115.76249999999999L701.2225,198.45000000000002L702.405,139.38750000000002L703.5875,115.76249999999999L704.77,210.26250000000002L705.9525,198.45000000000002L707.135,198.45000000000002L708.3175,163.01250000000002L709.5,233.88750000000002L710.6825,163.01250000000002L711.865,139.38750000000002L713.0474999999999,68.51249999999999L714.2299999999999,163.01250000000002L715.4125,174.82500000000002L716.595,151.20000000000002L717.7775,210.26250000000002L718.96,151.20000000000002L720.1424999999999,186.63750000000002L721.3249999999999,151.20000000000002L722.5074999999999,103.94999999999999L723.69,222.07500000000002L724.8725000000001,222.07500000000002L726.0550000000001,186.63750000000002L727.2375,163.01250000000002L728.42,151.20000000000002L729.6025,139.38750000000002L730.785,139.38750000000002L731.9675000000001,151.20000000000002L733.1500000000001,115.76249999999999L734.3325,186.63750000000002L735.515,163.01250000000002L736.6975,163.01250000000002L737.88,151.20000000000002L739.0625,174.82500000000002L740.2449999999999,151.20000000000002L741.4274999999999,163.01250000000002L742.61,186.63750000000002L743.7925,103.94999999999999L744.975,115.76249999999999L746.1575,186.63750000000002L747.3399999999999,163.01250000000002L748.5224999999999,163.01250000000002L749.7049999999999,222.07500000000002L750.8875,151.20000000000002L752.07,151.20000000000002L753.2525,210.26250000000002L754.435,174.82500000000002L755.6175,163.01250000000002L756.8,174.82500000000002L757.9825000000001,127.57500000000002L759.1650000000001,174.82500000000002L760.3475000000001,68.51249999999999L761.53,210.26250000000002L762.7125,151.20000000000002L763.895,222.07500000000002L765.0775,186.63750000000002L766.2600000000001,174.82500000000002L767.4425000000001,139.38750000000002L768.625,163.01250000000002L769.8075,222.07500000000002L770.99,163.01250000000002L772.1725,222.07500000000002L773.355,198.45000000000002L774.5374999999999,198.45000000000002L775.7199999999999,103.94999999999999L776.9025,92.13749999999999L778.085,163.01250000000002L779.2675,210.26250000000002L780.45,151.20000000000002L781.6324999999999,127.57500000000002L782.8149999999999,245.70000000000002L783.9975,115.76249999999999L785.1800000000001,174.82500000000002L786.3625000000001,174.82500000000002L787.5450000000001,163.01250000000002L788.7275,151.20000000000002L789.91,186.63750000000002L791.0925,139.38750000000002L792.275,233.88750000000002L793.4575000000001,186.63750000000002L794.6400000000001,163.01250000000002L795.8225,139.38750000000002L797.005,151.20000000000002L798.1875,103.94999999999999L799.37,186.63750000000002L800.5525,186.63750000000002L801.7349999999999,233.88750000000002L802.9174999999999,151.20000000000002L804.1,151.20000000000002L805.2825,186.63750000000002L806.465,163.01250000000002L807.6475,163.01250000000002L808.8299999999999,127.57500000000002L810.0124999999999,198.45000000000002L811.1949999999999,115.76249999999999L812.3775,163.01250000000002L813.5600000000001,127.57500000000002L814.7425000000001,151.20000000000002L815.925,127.57500000000002L817.1075,115.76249999999999L818.29,222.07500000000002L819.4725,68.51249999999999L820.6550000000001,174.82500000000002L821.8375000000001,174.82500000000002L823.02,163.01250000000002L824.2025,186.63750000000002L825.385,222.07500000000002L826.5675,198.45000000000002L827.75,139.38750000000002L828.9324999999999,210.26250000000002L830.1149999999999,127.57500000000002L831.2975,163.01250000000002L832.48,103.94999999999999L833.6625,198.45000000000002L834.845,127.57500000000002L836.0274999999999,174.82500000000002L837.2099999999999,151.20000000000002L838.3924999999999,233.88750000000002L839.575,198.45000000000002L840.7575,257.5125L841.94,127.57500000000002L843.1225,139.38750000000002L844.305,139.38750000000002L845.4875,139.38750000000002L846.6700000000001,127.57500000000002L847.8525000000001,127.57500000000002L849.0350000000001,127.57500000000002L850.2175,163.01250000000002L851.4,198.45000000000002L852.5825,257.5125L853.765,139.38750000000002L854.9475000000001,198.45000000000002L856.1300000000001,127.57500000000002L857.3125,198.45000000000002L858.495,115.76249999999999L859.6775,139.38750000000002L860.86,139.38750000000002L862.0425,198.45000000000002L863.2249999999999,139.38750000000002L864.4074999999999,186.63750000000002L865.59,163.01250000000002L866.7725,163.01250000000002L867.955,163.01250000000002L869.1375,115.76249999999999L870.3199999999999,163.01250000000002L871.5024999999999,92.13749999999999L872.685,80.32499999999999L873.8675000000001,115.76249999999999L875.0500000000001,151.20000000000002L876.2325000000001,174.82500000000002L877.415,210.26250000000002L878.5975,198.45000000000002L879.78,80.32499999999999L880.9625,103.94999999999999L882.1450000000001,163.01250000000002L883.3275000000001,210.26250000000002L884.51,222.07500000000002L885.6925,151.20000000000002L886.875,127.57500000000002L888.0575,174.82500000000002L889.24,163.01250000000002L890.4224999999999,151.20000000000002L891.6049999999999,198.45000000000002L892.7875,257.5125L893.97,210.26250000000002L895.1525,222.07500000000002L896.335,186.63750000000002L897.5174999999999,103.94999999999999L898.6999999999999,222.07500000000002L899.8824999999999,257.5125L901.065,115.76249999999999L902.2475000000001,174.82500000000002L903.4300000000001,222.07500000000002L904.6125,127.57500000000002L905.795,151.20000000000002L906.9775,210.26250000000002L908.16,198.45000000000002L909.3425000000001,210.26250000000002L910.5250000000001,139.38750000000002L911.7075,127.57500000000002L912.89,210.26250000000002L914.0725,127.57500000000002L915.255,115.76249999999999L916.4375,174.82500000000002L917.6199999999999,174.82500000000002L918.8024999999999,186.63750000000002L919.985,222.07500000000002L921.1675,127.57500000000002L922.35,174.82500000000002L923.5325,151.20000000000002L924.7149999999999,198.45000000000002L925.8974999999999,186.63750000000002L927.0799999999999,210.26250000000002L928.2625,186.63750000000002L929.445,186.63750000000002L930.6275,127.57500000000002L931.81,163.01250000000002L932.9925,233.88750000000002L934.175,174.82500000000002L935.3575000000001,222.07500000000002L936.5400000000001,210.26250000000002L937.7225000000001,174.82500000000002L938.905,127.57500000000002L940.0875,210.26250000000002L941.27,163.01250000000002L942.4525,210.26250000000002L943.6350000000001,257.5125L944.8175000000001,210.26250000000002L946,174.82500000000002L947.1825,127.57500000000002L948.365,115.76249999999999L949.5475,174.82500000000002L950.73,115.76249999999999L951.9124999999999,174.82500000000002L953.0949999999999,163.01250000000002L954.2775,139.38750000000002L955.46,174.82500000000002L956.6425,210.26250000000002L957.825,139.38750000000002L959.0074999999999,151.20000000000002L960.1899999999999,198.45000000000002L961.3725,186.63750000000002L962.5550000000001,198.45000000000002L963.7375000000001,186.63750000000002L964.9200000000001,198.45000000000002L966.1025,257.5125L967.285,174.82500000000002L968.4675,163.01250000000002L969.65,139.38750000000002L970.8325000000001,151.20000000000002L972.0150000000001,186.63750000000002L973.1975,222.07500000000002L974.38,174.82500000000002L975.5625,174.82500000000002L976.745,198.45000000000002L977.9275,186.63750000000002L979.1099999999999,174.82500000000002L980.2924999999999,257.5125L981.475,174.82500000000002L982.6575,103.94999999999999L983.84,257.5125L985.0225,163.01250000000002L986.2049999999999,163.01250000000002L987.3874999999999,151.20000000000002L988.5699999999999,233.88750000000002L989.7525,210.26250000000002L990.9350000000001,222.07500000000002L992.1175000000001,174.82500000000002L993.3,127.57500000000002L994.4825,198.45000000000002L995.665,115.76249999999999L996.8475,163.01250000000002L998.0300000000001,186.63750000000002L999.2125000000001,139.38750000000002L1000.395,222.07500000000002L1001.5775,163.01250000000002L1002.76,139.38750000000002L1003.9425,198.45000000000002L1005.125,139.38750000000002L1006.3074999999999,139.38750000000002L1007.4899999999999,174.82500000000002L1008.6725,174.82500000000002L1009.855,127.57500000000002L1011.0375,174.82500000000002L1012.22,186.63750000000002L1013.4024999999999,163.01250000000002L1014.5849999999999,245.70000000000002L1015.7674999999999,245.70000000000002L1016.95,186.63750000000002L1018.1325,233.88750000000002L1019.315,222.07500000000002L1020.4975,163.01250000000002L1021.68,222.07500000000002L1022.8625,233.88750000000002L1024.045,127.57500000000002L1025.2275,210.26250000000002L1026.41,68.51249999999999L1027.5925,174.82500000000002L1028.7749999999999,198.45000000000002L1029.9575,127.57500000000002L1031.14,233.88750000000002L1032.3225,151.20000000000002L1033.505,210.26250000000002L1034.6875,139.38750000000002L1035.87,151.20000000000002L1037.0525,186.63750000000002L1038.2350000000001,210.26250000000002L1039.4175,103.94999999999999L1040.6,198.45000000000002L1041.7825,163.01250000000002L1042.965,198.45000000000002L1044.1475,174.82500000000002L1045.33,198.45000000000002L1046.5125,127.57500000000002L1047.695,257.5125L1048.8775,139.38750000000002L1050.06,233.88750000000002L1051.2425,186.63750000000002L1052.425,174.82500000000002L1053.6075,163.01250000000002L1054.79,222.07500000000002L1055.9724999999999,139.38750000000002L1057.155,233.88750000000002L1058.3375,127.57500000000002L1059.52,174.82500000000002L1060.7025,127.57500000000002L1061.885,103.94999999999999L1063.0674999999999,151.20000000000002L1064.25,163.01250000000002L1065.4325000000001,186.63750000000002L1066.615,139.38750000000002L1067.7975,163.01250000000002L1068.98,115.76249999999999L1070.1625,174.82500000000002L1071.345,151.20000000000002L1072.5275000000001,198.45000000000002L1073.71,115.76249999999999L1074.8925,245.70000000000002L1076.075,186.63750000000002L1077.2575,92.13749999999999L1078.44,103.94999999999999L1079.6225,151.20000000000002L1080.805,163.01250000000002L1081.9875,222.07500000000002L1083.17,210.26250000000002L1084.3525,186.63750000000002L1085.535,257.5125L1086.7175,174.82500000000002L1087.9,174.82500000000002L1089.0825,127.57500000000002L1090.2649999999999,174.82500000000002L1091.4475,186.63750000000002L1092.63,222.07500000000002L1093.8125,151.20000000000002L1094.995,186.63750000000002L1096.1775,174.82500000000002L1097.36,44.88749999999999L1098.5425,210.26250000000002L1099.7250000000001,151.20000000000002L1100.9075,174.82500000000002L1102.09,186.63750000000002L1103.2725,222.07500000000002L1104.455,174.82500000000002L1105.6375,127.57500000000002L1106.82,210.26250000000002L1108.0025,210.26250000000002L1109.185,186.63750000000002L1110.3675,127.57500000000002L1111.55,222.07500000000002L1112.7325,103.94999999999999L1113.915,163.01250000000002L1115.0975,198.45000000000002L1116.28,257.5125L1117.4624999999999,210.26250000000002L1118.645,198.45000000000002L1119.8275,186.63750000000002L1121.01,163.01250000000002L1122.1925,92.13749999999999L1123.375,163.01250000000002L1124.5575,151.20000000000002L1125.74,186.63750000000002L1126.9225000000001,222.07500000000002L1128.105,210.26250000000002L1129.2875,198.45000000000002L1130.47,186.63750000000002L1131.6525,127.57500000000002L1132.835,198.45000000000002L1134.0175,210.26250000000002L1135.2,198.45000000000002L1136.3825,198.45000000000002L1137.565,115.76249999999999L1138.7475,139.38750000000002L1139.93,210.26250000000002L1141.1125,186.63750000000002L1142.295,198.45000000000002L1143.4775,174.82500000000002L1144.6599999999999,174.82500000000002L1145.8425,186.63750000000002L1147.025,210.26250000000002L1148.2075,139.38750000000002L1149.39,80.32499999999999L1150.5725,174.82500000000002L1151.7549999999999,151.20000000000002L1152.9375,174.82500000000002L1154.1200000000001,210.26250000000002L1155.3025,245.70000000000002L1156.485,163.01250000000002L1157.6675,174.82500000000002L1158.85,174.82500000000002L1160.0325,174.82500000000002L1161.2150000000001,186.63750000000002L1162.3975,174.82500000000002L1163.58,151.20000000000002L1164.7625,210.26250000000002L1165.945,186.63750000000002L1167.1275,222.07500000000002L1168.31,245.70000000000002L1169.4925,198.45000000000002L1170.675,151.20000000000002L1171.8575,198.45000000000002L1173.04,151.20000000000002L1174.2225,233.88750000000002L1175.405,186.63750000000002L1176.5875,233.88750000000002L1177.77,127.57500000000002L1178.9524999999999,151.20000000000002L1180.135,139.38750000000002L1181.3175,127.57500000000002L1182.5,186.63750000000002L1183.6825,222.07500000000002L1184.865,233.88750000000002L1186.0475,174.82500000000002L1187.23,186.63750000000002L1188.4125000000001,222.07500000000002L1189.595,233.88750000000002L1190.7775,163.01250000000002L1191.96,139.38750000000002L1193.1425,151.20000000000002L1194.325,222.07500000000002L1195.5075,127.57500000000002L1196.69,198.45000000000002L1197.8725,151.20000000000002L1199.055,163.01250000000002L1200.2375,151.20000000000002L1201.42,186.63750000000002L1202.6025,186.63750000000002L1203.785,139.38750000000002L1204.9675,151.20000000000002L1206.1499999999999,186.63750000000002L1207.3325,163.01250000000002L1208.515,198.45000000000002L1209.6975,139.38750000000002L1210.88,186.63750000000002L1212.0625,174.82500000000002L1213.245,257.5125L1214.4275,222.07500000000002L1215.6100000000001,186.63750000000002L1216.7925,115.76249999999999L1217.975,186.63750000000002L1219.1575,186.63750000000002L1220.34,210.26250000000002L1221.5225,174.82500000000002L1222.705,186.63750000000002L1223.8875,163.01250000000002L1225.07,174.82500000000002L1226.2525,151.20000000000002L1227.435,174.82500000000002L1228.6175,127.57500000000002L1229.8,115.76249999999999L1230.9825,103.94999999999999L1232.165,210.26250000000002L1233.3474999999999,174.82500000000002L1234.53,233.88750000000002L1235.7125,210.26250000000002L1236.895,139.38750000000002L1238.0775,245.70000000000002L1239.26,127.57500000000002L1240.4424999999999,198.45000000000002L1241.625,198.45000000000002L1242.8075000000001,115.76249999999999L1243.99,257.5125L1245.1725,210.26250000000002L1246.355,174.82500000000002L1247.5375,198.45000000000002L1248.72,174.82500000000002L1249.9025000000001,210.26250000000002L1251.085,139.38750000000002L1252.2675,174.82500000000002L1253.45,269.325L1254.6325,174.82500000000002L1255.815,198.45000000000002L1256.9975,210.26250000000002L1258.18,198.45000000000002L1259.3625,127.57500000000002L1260.545,210.26250000000002L1261.7275,210.26250000000002L1262.91,186.63750000000002L1264.0925,210.26250000000002L1265.275,163.01250000000002L1266.4575,163.01250000000002L1267.6399999999999,151.20000000000002L1268.8225,222.07500000000002L1270.005,186.63750000000002L1271.1875,174.82500000000002L1272.37,174.82500000000002L1273.5525,127.57500000000002L1274.735,92.13749999999999L1275.9175,210.26250000000002L1277.1000000000001,56.69999999999999L1278.2825,163.01250000000002L1279.465,115.76249999999999L1280.6475,174.82500000000002L1281.83,163.01250000000002L1283.0125,174.82500000000002L1284.195,151.20000000000002L1285.3775,151.20000000000002L1286.56,174.82500000000002L1287.7425,210.26250000000002L1288.925,174.82500000000002L1290.1075,233.88750000000002L1291.29,210.26250000000002L1292.4725,198.45000000000002L1293.655,186.63750000000002L1294.8374999999999,222.07500000000002L1296.02,174.82500000000002L1297.2025,163.01250000000002L1298.385,198.45000000000002L1299.5675,222.07500000000002" style="fill: none;" fill="none"></path></g></g></g></g></g></g><g transform="translate(94, 378)" clip-path="url(#clip_1)"><clipPath id="clip_1"><rect width="1419" height="22"></rect></clipPath><g><g><line x1="0" y1="0" x2="0" y2="5" style="visibility: inherit;" fill="rgb(0, 0, 0)" stroke="rgb(204, 204, 204)" stroke-width="1px"></line><line x1="118.25" y1="0" x2="118.25" y2="5" style="visibility: inherit;" fill="rgb(0, 0, 0)" stroke="rgb(204, 204, 204)" stroke-width="1px"></line><line x1="236.5" y1="0" x2="236.5" y2="5" style="visibility: inherit;" fill="rgb(0, 0, 0)" stroke="rgb(204, 204, 204)" stroke-width="1px"></line><line x1="354.75" y1="0" x2="354.75" y2="5" style="visibility: inherit;" fill="rgb(0, 0, 0)" stroke="rgb(204, 204, 204)" stroke-width="1px"></line><line x1="473" y1="0" x2="473" y2="5" style="visibility: inherit;" fill="rgb(0, 0, 0)" stroke="rgb(204, 204, 204)" stroke-width="1px"></line><line x1="591.25" y1="0" x2="591.25" y2="5" style="visibility: inherit;" fill="rgb(0, 0, 0)" stroke="rgb(204, 204, 204)" stroke-width="1px"></line><line x1="709.5" y1="0" x2="709.5" y2="5" style="visibility: inherit;" fill="rgb(0, 0, 0)" stroke="rgb(204, 204, 204)" stroke-width="1px"></line><line x1="827.75" y1="0" x2="827.75" y2="5" style="visibility: inherit;" fill="rgb(0, 0, 0)" stroke="rgb(204, 204, 204)" stroke-width="1px"></line><line x1="946" y1="0" x2="946" y2="5" style="visibility: inherit;" fill="rgb(0, 0, 0)" stroke="rgb(204, 204, 204)" stroke-width="1px"></line><line x1="1064.25" y1="0" x2="1064.25" y2="5" style="visibility: inherit;" fill="rgb(0, 0, 0)" stroke="rgb(204, 204, 204)" stroke-width="1px"></line><line x1="1182.5" y1="0" x2="1182.5" y2="5" style="visibility: inherit;" fill="rgb(0, 0, 0)" stroke="rgb(204, 204, 204)" stroke-width="1px"></line><line x1="1300.75" y1="0" x2="1300.75" y2="5" style="visibility: inherit;" fill="rgb(0, 0, 0)" stroke="rgb(204, 204, 204)" stroke-width="1px"></line><line x1="1419" y1="0" x2="1419" y2="5" style="visibility: inherit;" fill="rgb(0, 0, 0)" stroke="rgb(204, 204, 204)" stroke-width="1px"></line></g><g transform="translate(0, 8)"><text x="0" y="0" dx="0em" dy="0.95em" style="text-anchor: middle; visibility: hidden; font-family: &quot;Helvetica Neue&quot;, sans-serif; font-size: 12px; font-weight: 200;" fill="rgb(50, 49, 63)" stroke="none" stroke-width="1px">-100.0</text><text x="118.25" y="0" dx="0em" dy="0.95em" style="text-anchor: middle; visibility: inherit; font-family: &quot;Helvetica Neue&quot;, sans-serif; font-size: 12px; font-weight: 200;" fill="rgb(50, 49, 63)" stroke="none" stroke-width="1px">0.000</text><text x="236.5" y="0" dx="0em" dy="0.95em" style="text-anchor: middle; visibility: inherit; font-family: &quot;Helvetica Neue&quot;, sans-serif; font-size: 12px; font-weight: 200;" fill="rgb(50, 49, 63)" stroke="none" stroke-width="1px">100.0</text><text x="354.75" y="0" dx="0em" dy="0.95em" style="text-anchor: middle; visibility: inherit; font-family: &quot;Helvetica Neue&quot;, sans-serif; font-size: 12px; font-weight: 200;" fill="rgb(50, 49, 63)" stroke="none" stroke-width="1px">200.0</text><text x="473" y="0" dx="0em" dy="0.95em" style="text-anchor: middle; visibility: inherit; font-family: &quot;Helvetica Neue&quot;, sans-serif; font-size: 12px; font-weight: 200;" fill="rgb(50, 49, 63)" stroke="none" stroke-width="1px">300.0</text><text x="591.25" y="0" dx="0em" dy="0.95em" style="text-anchor: middle; visibility: inherit; font-family: &quot;Helvetica Neue&quot;, sans-serif; font-size: 12px; font-weight: 200;" fill="rgb(50, 49, 63)" stroke="none" stroke-width="1px">400.0</text><text x="709.5" y="0" dx="0em" dy="0.95em" style="text-anchor: middle; visibility: inherit; font-family: &quot;Helvetica Neue&quot;, sans-serif; font-size: 12px; font-weight: 200;" fill="rgb(50, 49, 63)" stroke="none" stroke-width="1px">500.0</text><text x="827.75" y="0" dx="0em" dy="0.95em" style="text-anchor: middle; visibility: inherit; font-family: &quot;Helvetica Neue&quot;, sans-serif; font-size: 12px; font-weight: 200;" fill="rgb(50, 49, 63)" stroke="none" stroke-width="1px">600.0</text><text x="946" y="0" dx="0em" dy="0.95em" style="text-anchor: middle; visibility: inherit; font-family: &quot;Helvetica Neue&quot;, sans-serif; font-size: 12px; font-weight: 200;" fill="rgb(50, 49, 63)" stroke="none" stroke-width="1px">700.0</text><text x="1064.25" y="0" dx="0em" dy="0.95em" style="text-anchor: middle; visibility: inherit; font-family: &quot;Helvetica Neue&quot;, sans-serif; font-size: 12px; font-weight: 200;" fill="rgb(50, 49, 63)" stroke="none" stroke-width="1px">800.0</text><text x="1182.5" y="0" dx="0em" dy="0.95em" style="text-anchor: middle; visibility: inherit; font-family: &quot;Helvetica Neue&quot;, sans-serif; font-size: 12px; font-weight: 200;" fill="rgb(50, 49, 63)" stroke="none" stroke-width="1px">900.0</text><text x="1300.75" y="0" dx="0em" dy="0.95em" style="text-anchor: middle; visibility: inherit; font-family: &quot;Helvetica Neue&quot;, sans-serif; font-size: 12px; font-weight: 200;" fill="rgb(50, 49, 63)" stroke="none" stroke-width="1px">1.000k</text><text x="1419" y="0" dx="0em" dy="0.95em" style="text-anchor: middle; visibility: hidden; font-family: &quot;Helvetica Neue&quot;, sans-serif; font-size: 12px; font-weight: 200;" fill="rgb(50, 49, 63)" stroke="none" stroke-width="1px">1.100k</text></g><line x1="0" y1="0" x2="1419" y2="0" fill="rgb(0, 0, 0)" stroke="rgb(204, 204, 204)" stroke-width="1px"></line></g></g></g></g></svg>