<svg viewBox="0 0 1498 400" xmlns="http://www.w3.org/2000/svg"><g><g><g><g><g><line x1="70" y1="378" x2="65" y2="378" style="visibility: inherit;" fill="rgb(0, 0, 0)" stroke="rgb(204, 204, 204)" stroke-width="1px"></line><line x1="70" y1="330.74999999999994" x2="65" y2="330.74999999999994" style="visibility: inherit;" fill="rgb(0, 0, 0)" stroke="rgb(204, 204, 204)" stroke-width="1px"></line><line x1="70" y1="283.5" x2="65" y2="283.5" style="visibility: inherit;" fill="rgb(0, 0, 0)" stroke="rgb(204, 204, 204)" stroke-width="1px"></line><line x1="70" y1="236.24999999999997" x2="65" y2="236.24999999999997" style="visibility: inherit;" fill="rgb(0, 0, 0)" stroke="rgb(204, 204, 204)" stroke-width="1px"></line><line x1="70" y1="189.00000000000003" x2="65" y2="189.00000000000003" style="visibility: inherit;" fill="rgb(0, 0, 0)" stroke="rgb(204, 204, 204)" stroke-width="1px"></line><line x1="70" y1="141.75" x2="65" y2="141.75" style="visibility: inherit;" fill="rgb(0, 0, 0)" stroke="rgb(204, 204, 204)" stroke-width="1px"></line><line x1="70" y1="94.49999999999994" x2="65" y2="94.49999999999994" style="visibility: inherit;" fill="rgb(0, 0, 0)" stroke="rgb(204, 204, 204)" stroke-width="1px"></line><line x1="70" y1="47.25000000000006" x2="65" y2="47.25000000000006" style="visibility: inherit;" fill="rgb(0, 0, 0)" stroke="rgb(204, 204, 204)" stroke-width="1px"></line><line x1="70" y1="0" x2="65" y2="0" style="visibility: inherit;" fill="rgb(0, 0, 0)" stroke="rgb(204, 204, 204)" stroke-width="1px"></line></g><g transform="translate(60, 0)"><text x="0" y="378" dx="0em" dy="0.3em" style="text-anchor: end; visibility: hidden; font-family: &quot;Helvetica Neue&quot;, sans-serif; font-size: 12px; font-weight: 200;" fill="rgb(50, 49, 63)" stroke="none" stroke-width="1px">0.500</text><text x="0" y="330.74999999999994" dx="0em" dy="0.3em" style="text-anchor: end; visibility: inherit; font-family: &quot;Helvetica Neue&quot;, sans-serif; font-size: 12px; font-weight: 200;" fill="rgb(50, 49, 63)" stroke="none" stroke-width="1px">0.550</text><text x="0" y="283.5" dx="0em" dy="0.3em" style="text-anchor: end; visibility: inherit; font-family: &quot;Helvetica Neue&quot;, sans-serif; font-size: 12px; font-weight: 200;" fill="rgb(50, 49, 63)" stroke="none" stroke-width="1px">0.600</text><text x="0" y="236.24999999999997" dx="0em" dy="0.3em" style="text-anchor: end; visibility: inherit; font-family: &quot;Helvetica Neue&quot;, sans-serif; font-size: 12px; font-weight: 200;" fill="rgb(50, 49, 63)" stroke="none" stroke-width="1px">0.650</text><text x="0" y="189.00000000000003" dx="0em" dy="0.3em" style="text-anchor: end; visibility: inherit; font-family: &quot;Helvetica Neue&quot;, sans-serif; font-size: 12px; font-weight: 200;" fill="rgb(50, 49, 63)" stroke="none" stroke-width="1px">0.700</text><text x="0" y="141.75" dx="0em" dy="0.3em" style="text-anchor: end; visibility: inherit; font-family: &quot;Helvetica Neue&quot;, sans-serif; font-size: 12px; font-weight: 200;" fill="rgb(50, 49, 63)" stroke="none" stroke-width="1px">0.750</text><text x="0" y="94.49999999999994" dx="0em" dy="0.3em" style="text-anchor: end; visibility: inherit; font-family: &quot;Helvetica Neue&quot;, sans-serif; font-size: 12px; font-weight: 200;" fill="rgb(50, 49, 63)" stroke="none" stroke-width="1px">0.800</text><text x="0" y="47.25000000000006" dx="0em" dy="0.3em" style="text-anchor: end; visibility: inherit; font-family: &quot;Helvetica Neue&quot;, sans-serif; font-size: 12px; font-weight: 200;" fill="rgb(50, 49, 63)" stroke="none" stroke-width="1px">0.850</text><text x="0" y="0" dx="0em" dy="0.3em" style="text-anchor: end; visibility: hidden; font-family: &quot;Helvetica Neue&quot;, sans-serif; font-size: 12px; font-weight: 200;" fill="rgb(50, 49, 63)" stroke="none" stroke-width="1px">0.900</text></g><line x1="70" y1="0" x2="70" y2="378" fill="rgb(0, 0, 0)" stroke="rgb(204, 204, 204)" stroke-width="1px"></line></g></g><g transform="translate(70, 0)" clip-path="url(#clip_0)"><clipPath id="clip_0"><rect width="1428" height="378"></rect></clipPath><g><g><g><line x1="0" y1="0" x2="0" y2="378" fill="rgb(0, 0, 0)" stroke="rgb(60, 60, 60)" stroke-width="1px" opacity="0.25"></line><line x1="119" y1="0" x2="119" y2="378" fill="rgb(0, 0, 0)" stroke="rgb(60, 60, 60)" stroke-width="1px" opacity="0.25"></line><line x1="238" y1="0" x2="238" y2="378" fill="rgb(0, 0, 0)" stroke="rgb(60, 60, 60)" stroke-width="1px" opacity="0.25"></line><line x1="357" y1="0" x2="357" y2="378" fill="rgb(0, 0, 0)" stroke="rgb(60, 60, 60)" stroke-width="1px" opacity="0.25"></line><line x1="476" y1="0" x2="476" y2="378" fill="rgb(0, 0, 0)" stroke="rgb(60, 60, 60)" stroke-width="1px" opacity="0.25"></line><line x1="595" y1="0" x2="595" y2="378" fill="rgb(0, 0, 0)" stroke="rgb(60, 60, 60)" stroke-width="1px" opacity="0.25"></line><line x1="714" y1="0" x2="714" y2="378" fill="rgb(0, 0, 0)" stroke="rgb(60, 60, 60)" stroke-width="1px" opacity="0.25"></line><line x1="833" y1="0" x2="833" y2="378" fill="rgb(0, 0, 0)" stroke="rgb(60, 60, 60)" stroke-width="1px" opacity="0.25"></line><line x1="952" y1="0" x2="952" y2="378" fill="rgb(0, 0, 0)" stroke="rgb(60, 60, 60)" stroke-width="1px" opacity="0.25"></line><line x1="1071" y1="0" x2="1071" y2="378" fill="rgb(0, 0, 0)" stroke="rgb(60, 60, 60)" stroke-width="1px" opacity="0.25"></line><line x1="1190" y1="0" x2="1190" y2="378" fill="rgb(0, 0, 0)" stroke="rgb(60, 60, 60)" stroke-width="1px" opacity="0.25"></line><line x1="1309" y1="0" x2="1309" y2="378" fill="rgb(0, 0, 0)" stroke="rgb(60, 60, 60)" stroke-width="1px" opacity="0.25"></line><line x1="1428" y1="0" x2="1428" y2="378" fill="rgb(0, 0, 0)" stroke="rgb(60, 60, 60)" stroke-width="1px" opacity="0.25"></line></g><g><line x1="0" y1="378" x2="1428" y2="378" fill="rgb(0, 0, 0)" stroke="rgb(60, 60, 60)" stroke-width="1px" opacity="0.25"></line><line x1="0" y1="330.74999999999994" x2="1428" y2="330.74999999999994" fill="rgb(0, 0, 0)" stroke="rgb(60, 60, 60)" stroke-width="1px" opacity="0.25"></line><line x1="0" y1="283.5" x2="1428" y2="283.5" fill="rgb(0, 0, 0)" stroke="rgb(60, 60, 60)" stroke-width="1px" opacity="0.25"></line><line x1="0" y1="236.24999999999997" x2="1428" y2="236.24999999999997" fill="rgb(0, 0, 0)" stroke="rgb(60, 60, 60)" stroke-width="1px" opacity="0.25"></line><line x1="0" y1="189.00000000000003" x2="1428" y2="189.00000000000003" fill="rgb(0, 0, 0)" stroke="rgb(60, 60, 60)" stroke-width="1px" opacity="0.25"></line><line x1="0" y1="141.75" x2="1428" y2="141.75" fill="rgb(0, 0, 0)" stroke="rgb(60, 60, 60)" stroke-width="1px" opacity="0.25"></line><line x1="0" y1="94.49999999999994" x2="1428" y2="94.49999999999994" fill="rgb(0, 0, 0)" stroke="rgb(60, 60, 60)" stroke-width="1px" opacity="0.25"></line><line x1="0" y1="47.25000000000006" x2="1428" y2="47.25000000000006" fill="rgb(0, 0, 0)" stroke="rgb(60, 60, 60)" stroke-width="1px" opacity="0.25"></line><line x1="0" y1="0" x2="1428" y2="0" fill="rgb(0, 0, 0)" stroke="rgb(60, 60, 60)" stroke-width="1px" opacity="0.25"></line></g></g></g><g><g><line x1="0" y1="850.5" x2="1428" y2="850.5" fill="rgb(0, 0, 0)" stroke="rgb(153, 153, 153)" stroke-width="1.5px"></line></g></g><g><g><line x1="119" y1="0" x2="119" y2="378" fill="rgb(0, 0, 0)" stroke="rgb(153, 153, 153)" stroke-width="1.5px"></line></g></g><g><g><g><g><g><path stroke="rgb(0, 119, 187)" stroke-width="2px" d="M138.04,383.0076416212735L139.23000000000002,351.47013202465604L140.42,367.9893358285671L141.61,366.087281955037L142.8,394.4779919786267L146.37,380.3779294559102L147.56,367.6142213859564L148.75,300.8934190180761L149.94,337.64233902301135L151.13,282.9103698032207L152.32000000000002,255.97746195832673L153.51,275.255231436808L154.70000000000002,304.5406427466291L155.89,304.39313563623796L157.08,351.554633633797L158.27,326.6952794680284L159.46,317.6859175259397L160.65,312.280300459808L161.84,326.7556803654679L163.03,288.1909080760822L164.22,282.77079483357386L165.41,320.8624769510633L166.6,278.74873613686077L167.79,283.0117416841679L168.98,326.9132950231767L170.17000000000002,276.4729770051675L171.35999999999999,281.6462862036383L172.55,272.9377717216398L173.74,249.99391303212548L174.93,271.6650978197618L176.12,261.042808691714L177.31,278.2944352151678L178.5,270.92666112906494L179.69,284.2247466774777L180.88000000000002,274.4848480064696L182.07,268.64090880387573L183.26,288.7595452823381L184.45000000000002,259.48697716939176L185.64000000000001,236.01718630162986L186.82999999999998,257.3728117809807L188.01999999999998,246.56118706858754L189.21,251.8867122411528L190.4,272.80077734469234L191.58999999999997,261.7242164068152L192.78,278.70327984408925L193.97,330.2344679064539L195.16,325.7156807438723L196.35000000000002,340.7231584463234L197.54,302.47764506779396L198.73,297.2490870406764L199.92000000000002,258.6744522244058L201.11,265.0609213346434L202.29999999999998,257.080302800786L203.48999999999998,258.1981816804715L204.68,264.77515900828286L205.87,304.1588454049697L207.05999999999997,304.1640572429818L208.25,256.9171843457892L209.44,281.72531060747355L210.63,284.79768636448415L211.82000000000002,292.54736181869055L213.01,320.82216709121434L214.2,266.9120502547285L215.39000000000001,258.19098015283714L216.58,258.8645880917022L217.76999999999998,253.36250285502132L218.95999999999998,244.15500171301278L220.15,232.72425102780772L221.34,219.9595506166846L222.52999999999997,277.2694803700108L223.72000000000003,234.87418822200652L224.91,227.15576293320396L226.1,275.6809577599224L227.29000000000002,298.8898246559534L228.48000000000002,289.190144793572L229.67,247.9328368761433L230.85999999999999,246.80345212568594L232.05,234.3133212754116L233.24,220.91299276524688L234.42999999999998,230.5915456591481L235.62,265.92992739548885L236.81,233.97670643729327L238,220.711023862376L239.19000000000003,248.18911431742563L240.38,246.95721859045543L241.57,216.6868311542733L242.76000000000002,216.243348692564L243.95000000000002,198.2585092155384L245.14,199.28010552932298L246.32999999999998,188.08056331759374L247.52,216.79833799055626L248.71,245.84150279433376L249.89999999999998,221.9236516766002L251.09,237.10419100596013L252.28,269.8375146035761L253.47,248.13375876214562L254.66000000000003,241.0177552572874L255.85,254.46690315437243L257.03999999999996,227.09889189262339L258.23,257.928085135574L259.42,258.7068510813443L260.61,270.9866106488066L261.79999999999995,272.44821638928397L262.99,267.41892983357036L264.18,217.1513579001422L265.37,216.5220647400854L266.56,216.1444888440512L267.75,192.2929433064307L268.94,189.7945159838584L270.13,170.57670959031503L271.32,176.76477575418906L272.51,215.91511545251342L273.70000000000005,209.87406927150798L274.89,164.90569156290485L276.08,220.61216493774293L277.27,242.22354896264582L278.46000000000004,231.56537937758753L279.65,242.88922762655253L280.84,249.68353657593156L282.03000000000003,295.1038719455589L283.22,286.9185731673354L284.40999999999997,305.6323939004013L285.6,257.7981863402408L286.79,276.34766180414454L287.98,311.10234708248674L289.17,272.892658249492L290.36,261.77934494969526L291.55,225.58010696981705L292.74,215.6730641818902L293.93,203.8225885091341L295.12,226.24355310548046L296.31,216.07113186328823L297.5,180.43642911797295L298.69,194.49310747078374L299.88,197.02086448247027L301.07,192.6312686894821L302.26,225.43501121368928L303.45,245.11725672821353L304.64000000000004,221.48910403692815L305.83,213.21846242215688L307.02,225.97482745329407L308.21,233.6286464719764L309.40000000000003,232.31468788318583L310.59,201.9950627299115L311.78,248.77203763794688L312.97,229.58822258276814L314.16,223.9841835496609L315.34999999999997,232.43426012979648L316.54,207.9730560778778L317.73,187.39008364672674L318.92,175.040300188036L320.10999999999996,179.44293011282164L321.3,187.990758067693L322.49,204.93195484061584L323.68,262.3466729043695L324.87,284.9830037426217L326.06,269.0335522455731L327.25,229.93263134734386L328.44,200.56582880840634L329.63,200.66449728504386L330.82,188.91119837102627L332.01,193.67171902261578L333.2,196.52803141356938L334.39,210.05431884814163L335.58,206.35759130888502L336.77,198.23330478533103L337.96,157.92123287119858L339.15,180.98398972271917L340.34000000000003,159.3841438336315L341.53,187.7679863001789L342.71999999999997,181.17329178010735L343.91,165.40397506806437L345.1,185.4736350408387L346.28999999999996,185.7029310245033L347.48,203.55925861470197L348.67,196.55430516882123L349.86,168.72633310129274L351.04999999999995,181.5607998607756L352.24,206.98022991646536L353.43,198.60688794987922L354.62,217.20788276992744L355.81,204.74347966195648L357,232.70233779717393L358.19000000000005,249.47765267830434L359.38,253.63659160698256L360.57,244.31945496418953L361.76000000000005,221.01042297851382L362.95,171.5875037871083L364.14,159.65250227226502L365.33000000000004,146.58525136335902L366.52,162.36990081801548L367.71000000000004,177.7469404908093L368.90000000000003,145.6294142944855L370.09,167.70264857669122L371.28000000000003,210.47783914601473L372.46999999999997,200.70545348760888L373.65999999999997,177.12327209256537L374.85,162.9739632555392L376.03999999999996,213.5468779533235L377.23,232.07812677199405L378.42,160.50937606319638L379.60999999999996,188.4431256379179L380.8,205.20337538275078L381.99,227.07202522965048L383.17999999999995,181.13071513779028L384.37,147.65967908267416L385.56,133.48330744960447L386.75,160.41498446976271L387.94,194.29274068185762L389.13000000000005,167.3693944091146L390.32,210.27788664546867L391.51,194.6792319872812L392.70000000000005,161.69503919236868L393.89,189.15452351542118L395.08,193.81771410925262L396.27000000000004,243.86562846555162L397.46,214.83187707933092L398.65000000000003,173.7866262475986L399.84000000000003,155.0657257485592L401.03,185.17693544913547L402.22,226.86866126948127L403.40999999999997,198.72744676168875L404.59999999999997,187.74896805701326L405.79,169.34938083420795L406.97999999999996,181.9346285005248L408.17,189.48577710031486L409.36,217.641466260189L410.54999999999995,175.47237975611344L411.74,185.608427853668L412.93,185.78380671220074L414.11999999999995,215.42028402732046L415.31,245.01467041639225L416.5,239.1463022498353L417.69,235.62528134990114L418.88,192.1689188099407L420.07000000000005,183.81385128596443L421.26,184.70706077157874L422.45,208.86798646294724L423.64000000000004,199.73954187776835L424.83,194.26247512666097L426.02,214.6012350759966L427.21000000000004,150.02324104559798L428.4,152.62019462735879L429.59000000000003,177.8033667764153L430.78000000000003,145.66327006584922L431.96999999999997,161.81671203950953L433.16,189.22752722370566L434.34999999999997,187.95526633422344L435.53999999999996,181.28565980053406L436.73,159.56514588032036L437.91999999999996,146.53283752819218L439.11,138.7134525169153L440.3,128.11557151014915L441.48999999999995,127.66309290608953L442.68,127.39160574365371L443.87,192.19746344619227L445.05999999999995,160.20597806771536L446.25,123.29233684062922L447.44000000000005,124.76915210437755L448.63,149.2802412626266L449.82,187.61189475757595L451.01000000000005,186.98588685454564L452.2,168.89153211272736L453.39,175.7536692676364L454.58000000000004,173.9647015605819L455.77,161.07882093634913L456.96000000000004,159.25354256180944L458.15000000000003,175.8771255370856L459.34,150.41377532225138L460.53000000000003,123.32326519335084L461.71999999999997,107.06895911601055L462.90999999999997,138.66012546960633L464.1,169.42732528176384L465.28999999999996,146.54389516905835L466.48,185.970087101435L467.67,197.81330226086106L468.85999999999996,157.66923135651663L470.05,157.2077888139099L471.24,133.30592328834587L472.42999999999995,136.68355397300752L473.62,126.8976323838045L474.81,121.02607943028272L476,152.94064765816958L477.19,148.46438859490172L478.38000000000005,133.9661331569411L479.57,148.89217989416457L480.76,134.2228079364987L481.95000000000005,137.2336847618992L483.14,139.0402108571395L484.33,104.68662651428372L485.52000000000004,107.69947590857021L486.71,115.41343554514208L487.90000000000003,125.94806132708521L489.09000000000003,108.6438367962511L490.28,104.16755207775071L491.47,119.20053124665031L492.65999999999997,157.7515687479903L493.84999999999997,169.06969124879416L495.04,164.0480647492765L496.22999999999996,166.9413388495659L497.42,162.77105330973956L498.61,177.98763198584365L499.79999999999995,133.9613291915062L500.99,137.07679751490372L502.18,144.85232850894224L503.36999999999995,143.61139710536526L504.56,136.96058826321917L505.75,121.15760295793143L506.94,117.58206177475881L508.13,133.15548706485538L509.32000000000005,101.1557922389132L510.51,105.58097534334792L511.7,137.7673352060088L512.89,145.26665112360533L514.0799999999999,149.76624067416319L515.27,122.9347444044979L516.46,165.89834664269875L517.65,162.14525798561928L518.84,130.36215479137164L520.0300000000001,134.91729287482292L521.22,108.11912572489365L522.41,115.66522543493619L523.5999999999999,126.09913526096165L524.79,173.703231156577L525.98,178.6406886939462L527.17,169.79066321636765L528.36,194.0118979298206L529.5500000000001,196.7321387578923L530.74,192.45803325473534L531.93,178.08106995284118L533.12,181.26739197170465L534.31,147.7416851830227L535.5,115.81376110981364L536.69,143.9070066658882L537.88,131.23170399953295L539.07,153.15777239971982L540.26,166.31341343983183L541.4499999999999,144.67554806389919L542.64,131.69282883833955L543.83,153.43444730300368L545.02,172.38566838180213L546.21,183.75640102908127L547.4000000000001,161.0475906174488L548.59,129.70355437046928L549.78,146.33463262228162L550.9699999999999,138.594529573369L552.16,151.66921774402144L553.35,141.7952806464128L554.54,159.49591838784772L555.73,122.8663010327086L556.9200000000001,154.04478061962516L558.11,190.4706183717751L559.3,153.26362102306504L560.49,184.09567261383904L561.68,184.8761535683034L562.87,185.344442140982L564.0600000000001,144.28166528458917L565.25,137.3627491707534L566.44,162.74264950245208L567.63,166.15808970147123L568.8199999999999,191.83235382088273L570.01,165.8931622925296L571.2,150.3296473755178L572.39,117.3665384253107L573.58,109.4011730551864L574.77,134.15320383311186L575.96,119.47317229986703L577.15,122.47765337992021L578.34,136.0928420279521L579.53,138.3557052167712L580.72,110.18217313006267L581.91,87.37180387803755L583.1,91.4043323268225L584.29,105.63634939609352L585.48,102.36305963765619L586.67,106.30533578259366L587.86,96.85820146955626L589.05,126.62742088173374L590.24,126.7702025290402L591.4300000000001,168.19962151742416L592.62,175.33852291045446L593.81,161.90311374627268L595,124.3106182477635L596.1899999999999,154.91137094865815L597.38,155.55307256919494L598.57,150.031843541517L599.76,158.53160612491013L600.95,140.00646367494616L602.14,134.79762820496774L603.3299999999999,149.39107692298066L604.52,175.86589615378844L605.71,156.3132876922731L606.9,150.48797261536382L608.09,111.55528356921832L609.2800000000001,105.91442014153097L610.47,126.15490208491866L611.66,120.58044125095125L612.8499999999999,152.67326475057075L614.04,177.83520885034253L615.23,145.68237531020543L616.42,132.29692518612322L617.61,147.89065511167394L618.8000000000001,133.62189306700438L619.99,154.59188584020262L621.18,137.6426315041215L622.37,139.28557890247282L623.56,128.4588473414837L624.75,133.7753084048902L625.94,148.77768504293414L627.13,128.24786102576044L628.32,121.83621661545624L629.51,123.89547996927374L630.6999999999999,178.28728798156422L631.89,140.04737278893847L633.08,176.16592367336312L634.27,186.02455420401787L635.46,180.12723252241074L636.6500000000001,158.8700895134465L637.84,134.3033037080679L639.03,137.2819822248407L640.2199999999999,144.97543933490445L641.41,161.40401360094268L642.6,124.0111581605656L643.79,172.4504448963393L644.98,171.98276693780358L646.1700000000001,153.9834101626822L647.36,160.90254609760936L648.55,159.14777765856562L649.74,175.81366659513938L650.93,174.00069995708355L652.12,149.28791997425017L653.3100000000001,93.1165019845501L654.5,118.47615119073015L655.69,74.62944071443803L656.88,95.57141442866276L658.0699999999999,102.23034865719768L659.26,159.3819591943185L660.45,105.07917551659108L661.64,96.12250530995465L662.83,149.81100318597282L664.02,105.24285191158367L665.21,131.65821114695018L666.4,88.44492668817009L667.59,115.67320601290209L668.78,96.5726736077412L669.97,150.08110416464478L671.16,152.65491249878684L672.35,112.85544749927209L673.54,159.85076849956323L674.73,176.23546109973793L675.92,162.44127665984269L677.11,154.16476599590564L678.3,155.1051095975434L679.49,132.044315758526L680.6800000000001,106.39533945511562L681.87,91.00595367306937L683.06,152.64732220384167L684.25,118.75714332230501L685.4399999999999,86.61053599338294L686.63,96.85382159602983L687.82,126.6247929576179L689.01,138.58112577457078L690.2,145.75492546474243L691.39,167.7779552788455L692.5799999999999,139.64802316730731L693.77,134.58256390038437L694.96,113.82453834023062L696.15,119.08847300413834L697.34,116.34058380248302L698.5300000000001,79.25435028148979L699.72,45.19011016889391L700.91,66.09531610133632L702.0999999999999,96.35718966080185L703.29,138.13931379648105L704.48,157.3023382778887L705.67,127.45640296673324L706.86,139.08009178003985L708.0500000000001,157.86680506802395L709.24,121.88883304081435L710.43,106.20829982448868L711.62,96.79997989469314L712.81,108.87373793681593L714,80.6804927620895L715.19,99.20204565725373L716.3800000000001,122.12747739435224L717.5699999999999,171.3202364366114L718.76,153.5858918619668L719.9499999999999,137.03903511718008L721.14,138.92342107030805L722.33,110.52280264218484L723.5200000000001,123.01368158531085L724.7099999999999,112.78945895118642L725.9,124.37367537071185L727.09,154.94920522242705L728.28,114.23202313345615L729.47,89.80171388007369L730.6600000000001,92.86227832804423L731.8499999999999,106.5111169968265L733.04,120.60667019809591L734.23,134.97025211885762L735.4200000000001,143.5884012713146L736.61,142.85304076278877L737.8000000000001,160.1305744576733L738.9899999999999,135.05959467460391L740.18,131.82950680476233L741.37,129.89145408285736L742.5600000000001,134.6348724497144L743.75,125.6684234698287L744.9399999999999,132.10105408189725L746.13,130.05438244913836L747.3199999999999,117.01387946948302L748.51,150.5333276816898L749.7,164.73874660901384L750.8900000000001,137.82449796540834L752.0799999999999,133.48844877924498L753.27,130.88681926754697L754.46,99.7945915605282L755.65,116.57675493631689L756.84,126.64605296179005L758.0300000000001,103.1563817770741L759.2199999999999,106.7813290662445L760.41,114.86254743974672L761.6,113.80502846384803L762.79,136.79551707830873L763.98,126.96481024698528L765.1700000000001,174.22263614819107L766.3599999999999,131.70233168891465L767.55,135.7213990133488L768.74,102.69533940800926L769.9300000000001,100.5984536448056L771.12,105.24657218688344L772.3100000000001,125.75419331213016L773.5,126.2462659872781L774.6899999999999,97.01025959236676L775.88,108.99990575542006L777.07,86.66244345325202L778.2600000000001,85.07246607195117L779.4499999999999,84.11847964317076L780.64,130.79608778590242L781.8299999999999,164.7089026715415L783.02,149.6190916029248L784.21,116.94020496175483L785.4000000000001,126.86412297705283L786.5899999999999,144.6309737862317L787.78,96.22858427173907L788.97,132.15590056304353L790.16,124.18104033782606L791.35,119.39612420269572L792.5400000000001,122.43142452161743L793.7299999999999,130.15885471297037L794.92,117.07656282778225L796.11,132.85218769666938L797.3000000000001,95.06756261800166L798.49,96.02178757080094L799.6800000000001,108.40682254248054L800.8699999999999,127.6503435254883L802.06,133.2902061152929L803.25,160.29912366917569L804.44,135.16072420150542L805.6300000000001,120.07768452090329L806.8199999999999,87.40286071254206L808.01,109.14171642752524L809.1999999999999,122.18502985651517L810.39,112.29226791390909L811.58,118.16911074834547L812.7700000000001,121.69521644900732L813.9599999999999,141.5296298694043L815.15,117.99277792164253L816.34,145.21441675298556L817.53,137.9224000517913L818.72,151.26594003107473L819.9100000000001,147.4595640186448L821.0999999999999,156.98823841118687L822.29,168.61169304671222L823.48,122.42951582802729L824.6700000000001,171.5014594968163L825.86,147.78837569808985L827.0500000000001,133.56052541885398L828.2399999999999,130.93006525131239L829.43,117.5392891507874L830.62,91.7860734904724L831.8100000000001,88.14664409428349L833,115.49423645657009L834.1899999999999,96.46529187394202L835.38,126.39167512436526L836.5699999999999,126.62875507461919L837.76,156.3022530447715L838.95,126.85635182686295L840.1400000000001,144.6263110961178L841.3299999999999,131.66328665767065L842.52,135.69797199460243L843.71,96.77503319676151L844.9,91.14001991805691L846.09,58.22776195083418L847.2800000000001,103.4491571705006L848.4699999999999,124.67574430230039L849.66,137.4116965813802L850.85,145.05326794882816L852.04,155.5444607692969L853.23,161.83917646157815L854.4200000000001,165.6160058769469L855.6099999999999,150.16335352616807L856.8,123.1730121157008L857.99,77.44755726942054L859.1800000000001,109.0747843616524L860.37,98.51987061699151L861.5600000000001,127.62442237019485L862.75,109.6496534221169L863.9399999999999,140.2085420532702L865.13,146.7313752319622L866.32,150.64507513917732L867.5100000000001,123.46204508350641L868.6999999999999,136.68347705010387L869.89,120.9913362300623L871.0799999999999,123.38855173803736L872.27,124.82688104282244L873.46,125.6898786256935L874.6500000000001,149.83267717541614L875.8399999999999,140.6933563052497L877.03,170.6472637831499L878.22,194.5258582698899L879.41,191.13426496193392L880.6,171.38055897716038L881.7900000000001,147.71583538629628L882.9799999999999,115.79825123177773L884.17,102.55395073906664L885.36,153.66987044344006L886.5500000000001,172.52692226606408L887.74,154.3099033596384L888.9300000000001,119.75469201578301L890.1199999999999,93.11531520946983L891.31,112.56918912568182L892.5,136.0540134754091L893.69,126.5199080852455L894.8800000000001,126.70569485114729L896.0699999999999,132.72341691068834L897.26,112.70905014641306L898.4499999999999,71.1691800878479L899.64,69.87025805270872L900.83,63.18465483162521L902.0200000000001,76.89204289897503L903.2099999999999,126.46022573938504L904.4,97.13863544363102L905.59,61.826931266178576L906.78,111.51490875970717L907.97,111.79644525582432L909.1600000000001,88.34036715349458L910.3499999999999,121.5167202920967L911.54,129.61003217525797L912.73,104.93476930515476L913.9200000000001,96.03586158309292L915.11,84.79026694985572L916.3000000000001,113.4804101699134L917.4899999999999,136.6007461019481L918.68,109.1291976611688L919.87,133.99001859670125L921.0600000000001,154.8127611580207L922.25,137.77515669481247L923.4399999999999,127.55259401688753L924.63,115.5128064101325L925.8199999999999,90.57018384607949L927.01,122.85461030764762L928.2,118.60026618458863L929.3900000000001,127.86015971075321L930.5799999999999,109.79109582645191L931.77,104.85590749587107L932.96,90.08229449752258L934.15,93.03062669851357L935.34,94.79962601910813L936.5300000000001,125.3922756114649L937.7199999999999,126.02911536687898L938.91,90.9737192201274L940.1,99.47173153207643L941.29,80.9455389192459L942.48,75.73607335154747L943.6700000000001,90.32914401092842L944.8599999999999,122.70998640655705L946.05,100.79474184393422L947.24,111.27059510636053L948.4300000000001,93.93110706381634L949.62,59.90241423828985L950.8100000000001,63.110198542973876L952,82.75361912578438L953.1899999999999,118.16467147547058L954.38,145.3175528852824L955.57,132.0780317311695L956.7600000000001,153.66556903870173L957.9499999999999,137.08684142322107L959.14,133.04585485393264L960.3299999999999,142.43376291235964L961.52,130.34775774741578L962.71,105.3774046484495L963.9000000000001,125.83269278906965L965.0899999999999,132.1996156734418L966.28,112.39476940406513L967.47,106.4181116424391L968.66,96.92586698546347L969.85,97.13677019127806L971.0400000000001,91.35706211476685L972.2299999999999,58.35798726886014L973.42,79.90229236131609L974.61,98.73512541678963L975.8000000000001,121.84732525007371L976.99,129.80839515004428L978.1800000000001,116.86628709002656L979.3699999999999,91.38227225401596L980.56,99.71686335240952L981.75,104.71761801144578L982.94,95.90557080686744L984.1300000000001,96.52459248412049L985.3199999999999,102.8022554904723L986.51,65.22510329428337L987.6999999999999,84.02256197656999L988.89,130.73853718594202L990.08,81.98687231156526L991.2700000000001,99.98587338693915L992.4599999999999,110.78527403216344L993.65,123.17116441929798L994.84,89.2589486515788L996.03,80.7241191909473L997.22,69.69697151456842L998.4100000000001,86.70568290874104L999.5999999999999,120.53590974524457L1000.79,105.39654584714685L1001.98,137.65667750828814L1003.1700000000001,133.38775650497286L1004.36,119.01390390298366L1005.5500000000001,134.01459234179018L1006.7399999999999,101.67125540507408L1007.93,111.79650324304447L1009.12,129.6841519458267L1010.3100000000001,110.88549116749601L1011.5,129.13754470049753L1012.6899999999999,140.08877682029856L1013.88,128.9407660921791L1015.0699999999999,122.2519596553075L1016.26,141.8636757931845L1017.45,130.00570547591073L1018.6400000000001,116.98467328554648L1019.8299999999999,120.98455397132795L1021.02,82.04073238279676L1022.21,58.6744394296781L1023.4,74.18591365780685L1024.5900000000001,59.867798194684156L1025.78,57.183178916810505L1026.97,85.10365735008628L1028.1599999999999,72.32469441005179L1029.35,58.75106664603112L1030.54,103.76313998761873L1031.73,89.42663399257128L1032.92,151.69973039554276L1034.11,135.90733823732572L1035.3,114.61940294239548L1036.49,137.28414176543723L1037.68,97.72673505926241L1038.8700000000001,115.33604103555746L1040.0600000000002,96.37037462133446L1041.25,120.42847477280066L1042.44,128.95708486368034L1043.63,116.35550091820824L1044.82,96.98205055092495L1046.01,138.51423033055497L1047.1999999999998,116.18353819833305L1048.3899999999999,120.50387291899983L1049.58,105.3773237513999L1050.77,108.11389425084002L1051.96,97.94333655050406L1053.15,127.27850193030235L1054.34,79.91085115818146L1055.53,110.5527606949089L1056.72,81.6879064169454L1057.91,87.99399385016721L1059.1000000000001,97.6838963101003L1060.29,109.40408778606024L1061.48,86.90495267163607L1062.67,114.7492216029816L1063.86,84.20578296178905L1065.05,119.03596977707343L1066.24,116.30908186624407L1067.43,138.29794911974642L1068.62,163.3037694718479L1069.81,154.68226168310875L1071,143.60310700986525L1072.19,125.14311420591915L1073.38,137.69211852355141L1074.57,133.4090211141309L1075.76,154.4641626684786L1076.95,137.5659976010871L1078.14,139.23959856065227L1079.33,116.61875913639136L1080.52,144.39000548183486L1081.71,96.0840032891009L1082.8999999999999,96.63165197346063L1084.09,144.21024118407644L1085.28,166.85114471044588L1086.47,156.81068682626747L1087.66,144.88016209576045L1088.85,108.19059725745626L1090.04,92.08310835447378L1091.23,94.2311150126842L1092.42,60.08241900761044L1093.6100000000001,80.93695140456634L1094.8000000000002,93.4496708427398L1095.99,124.5823025056439L1097.18,119.63688150338635L1098.37,110.76337890203183L1099.56,87.72052734121911L1100.75,109.33231640473144L1101.9399999999998,104.58063984283888L1103.1299999999999,107.63588390570334L1104.32,174.43778034342202L1105.51,131.83141820605323L1106.7,135.7988509236319L1107.89,126.36681055417918L1109.08,114.8013363325075L1110.27,90.14330179950451L1111.46,98.97348107970276L1112.65,127.89658864782169L1113.8400000000001,103.90670318869297L1115.03,89.51277191321577L1116.22,92.6889131479295L1117.4099999999999,124.1258478887577L1118.6,95.73800873325462L1119.79,137.76780523995274L1120.98,133.45443314397158L1122.17,113.14765988638305L1123.36,71.43234593182984L1124.55,70.02815755909796L1125.74,75.09189453545872L1126.93,84.03638672127528L1128.1200000000001,101.21558203276516L1129.3100000000002,146.9605992196592L1130.5,138.97010953179554L1131.69,140.08206571907732L1132.88,123.0304894314464L1134.07,95.08079365886783L1135.26,84.21722619532062L1136.4499999999998,83.60533571719242L1137.6399999999999,89.14445143031537L1138.83,121.99917085818925L1140.02,106.27450251491359L1141.21,90.93345150894811L1142.4,87.63507090536893L1143.59,85.65604254322136L1144.78,125.81237552593291L1145.97,138.09367531555972L1147.16,110.02495518933574L1148.3500000000001,104.99622311360145L1149.54,96.07273386816087L1150.73,102.5311403208965L1151.92,106.40618419253798L1153.11,102.82496051552278L1154.3,88.86372630931368L1155.49,115.92448578558822L1156.68,161.69219147135297L1157.87,141.9028148828117L1159.06,141.84168892968705L1160.25,129.99251335781224L1161.44,105.16425801468728L1162.63,72.54855480881241L1163.82,94.32288288528747L1165.01,101.48122973117245L1166.2,105.77623783870354L1167.39,108.35324270322218L1168.58,103.99319562193324L1169.77,107.28341737315998L1170.96,121.0700504238959L1172.1499999999999,99.81078025433749L1173.34,98.86771815260244L1174.53,80.58313089156144L1175.72,57.79987853493691L1176.91,67.75492712096218L1178.1,97.35295627257727L1179.29,91.48677376354635L1180.48,111.59206425812778L1181.67,82.31148855487675L1182.8600000000001,88.36814313292604L1184.0500000000002,68.3771358797556L1185.24,109.53878152785342L1186.43,122.42326891671203L1187.62,136.06021135002726L1188.81,150.1486268100163L1190,129.07042608600972L1191.1899999999998,98.70475565160581L1192.3799999999999,74.5791033909635L1193.57,89.63496203457811L1194.76,92.76222722074681L1195.95,76.91983633244809L1197.14,61.508151799468806L1198.33,87.6986410796813L1199.52,115.22543464780881L1200.71,125.83526078868522L1201.9,96.76365647321114L1203.0900000000001,126.57069388392668L1204.28,109.01741633035601L1205.47,122.11044979821361L1206.6599999999999,124.06001987892816L1207.85,131.1360119273569L1209.04,117.66285715641413L1210.23,109.57896429384851L1211.42,128.35362857630915L1212.61,133.71217714578552L1213.8,119.20855628747131L1214.99,122.31888377248285L1216.18,106.4663302634898L1217.3700000000001,126.48604815809392L1218.5600000000002,114.87287889485634L1219.75,113.81122733691387L1220.94,71.83048640214838L1222.13,64.36079184128903L1223.32,77.59772510477336L1224.51,120.97738506286402L1225.6999999999998,111.56768103771844L1226.8899999999999,105.92185862263108L1228.08,90.72186517357858L1229.27,99.32061910414723L1230.46,98.57362146248829L1231.65,109.93792287749301L1232.84,110.8502537264958L1234.03,123.21015223589751L1235.22,118.81359134153848L1236.41,139.80065480492303L1237.6000000000001,158.2991428829539L1238.79,175.3044857297723L1239.98,132.35144143786337L1241.17,124.29836486271799L1242.36,89.93526891763076L1243.55,81.12991135057848L1244.74,111.28419681034711L1245.93,76.22051808620819L1247.12,114.24481085172494L1248.31,101.62188651103497L1249.5,94.04813190662105L1250.69,130.84762914397268L1251.88,82.05232748638372L1253.07,76.40014649183013L1254.26,90.72758789509817L1255.45,87.51155273705888L1256.64,97.3944316422353L1257.83,85.60540898534117L1259.02,113.96949539120465L1260.21,113.26919723472287L1261.3999999999999,65.59901834083365L1262.59,84.24691100450025L1263.78,83.62314660270016L1264.97,77.34263796162008L1266.16,79.48058277697197L1267.35,116.20084966618322L1268.54,96.88925979970992L1269.73,85.30230587982595L1270.92,90.1626335278956L1272.1100000000001,81.26633011673732L1273.3000000000002,99.55354807004244L1274.49,110.52587884202552L1275.68,123.01552730521524L1276.87,95.0718163831292L1278.06,96.02433982987759L1279.25,102.50210389792665L1280.4399999999998,106.38876233875595L1281.6299999999999,132.3457574032536L1282.82,165.63870444195217L1284.01,126.55197266517126L1285.2,179.8811835991028L1286.39,158.7224601594617L1287.58,169.652226095677L1288.77,146.67883565740613L1289.96,138.8010513944436L1291.15,128.16813083666625L1292.3400000000001,133.60087850199966L1293.53,136.8605271011998L1294.72,127.00381626071987L1295.9099999999999,103.37103975643191L1297.1,106.9101238538592L1298.29,79.50232431231552L1299.48,74.87014458738929L1300.67,77.99708675243369L1301.86,85.77950205146021L1303.05,72.7302012308761L1304.24,88.52562073852573L1305.43,103.90912244311545L1306.6200000000001,95.42047346586924L1307.8100000000002,78.51478407952158" style="fill: none;" fill="none"></path></g></g></g></g><g opacity="0.2"><g><g><g><path stroke="rgb(0, 119, 187)" stroke-width="2px" d="M124.94999999999999,658.546875L126.14,363.234375L127.33000000000001,496.125L128.51999999999998,422.296875L129.71,230.34375L130.89999999999998,629.015625L133.28,496.125L134.47,378L135.66,378L136.85000000000002,392.765625L138.04,348.46875L139.23000000000002,304.171875L140.42,392.765625L141.61,363.234375L142.8,437.0625L143.99,378L145.18,422.296875L146.37,348.46875L147.56,348.46875L148.75,200.8125L149.94,392.765625L151.13,200.8125L152.32000000000002,215.578125L153.51,304.171875L154.70000000000002,348.46875L155.89,304.171875L157.08,422.296875L158.27,289.40625L159.46,304.171875L160.65,304.171875L161.84,348.46875L163.03,230.34375L164.22,274.640625L165.41,378L166.6,215.578125L167.79,289.40625L168.98,392.765625L170.17000000000002,200.8125L171.35999999999999,289.40625L172.55,259.875L173.74,215.578125L174.93,304.171875L176.12,245.109375L177.31,304.171875L178.5,259.875L179.69,304.171875L180.88000000000002,259.875L182.07,259.875L183.26,318.9375L184.45000000000002,215.578125L185.64000000000001,200.8125L186.82999999999998,289.40625L188.01999999999998,230.34375L189.21,259.875L190.4,304.171875L191.58999999999997,245.109375L192.78,304.171875L193.97,407.53125L195.16,318.9375L196.35000000000002,363.234375L197.54,245.109375L198.73,289.40625L199.92000000000002,200.8125L201.11,274.640625L202.29999999999998,245.109375L203.48999999999998,259.875L204.68,274.640625L205.87,363.234375L207.05999999999997,304.171875L208.25,186.046875L209.44,318.9375L210.63,289.40625L211.82000000000002,304.171875L213.01,363.234375L214.2,186.046875L215.39000000000001,245.109375L216.58,259.875L217.76999999999998,245.109375L218.95999999999998,230.34375L220.15,215.578125L221.34,200.8125L222.52999999999997,363.234375L223.72000000000003,171.28125L224.91,215.578125L226.1,348.46875L227.29000000000002,333.703125L228.48000000000002,274.640625L229.67,186.046875L230.85999999999999,245.109375L232.05,215.578125L233.24,200.8125L234.42999999999998,245.109375L235.62,318.9375L236.81,186.046875L238,200.8125L239.19000000000003,289.40625L240.38,245.109375L241.57,171.28125L242.76000000000002,215.578125L243.95000000000002,171.28125L245.14,200.8125L246.32999999999998,171.28125L247.52,259.875L248.71,289.40625L249.89999999999998,186.046875L251.09,259.875L252.28,318.9375L253.47,215.578125L254.66000000000003,230.34375L255.85,274.640625L257.03999999999996,186.046875L258.23,304.171875L259.42,259.875L260.61,289.40625L261.79999999999995,274.640625L262.99,259.875L264.18,141.75L265.37,215.578125L266.56,215.578125L267.75,156.515625L268.94,186.046875L270.13,141.75L271.32,186.046875L272.51,274.640625L273.70000000000005,200.8125L274.89,97.453125L276.08,304.171875L277.27,274.640625L278.46000000000004,215.578125L279.65,259.875L280.84,259.875L282.03000000000003,363.234375L283.22,274.640625L284.40999999999997,333.703125L285.6,186.046875L286.79,304.171875L287.98,363.234375L289.17,215.578125L290.36,245.109375L291.55,171.28125L292.74,200.8125L293.93,186.046875L295.12,259.875L296.31,200.8125L297.5,126.984375L298.69,215.578125L299.88,200.8125L301.07,186.046875L302.26,274.640625L303.45,274.640625L304.64000000000004,186.046875L305.83,200.8125L307.02,245.109375L308.21,245.109375L309.40000000000003,230.34375L310.59,156.515625L311.78,318.9375L312.97,200.8125L314.16,215.578125L315.34999999999997,245.109375L316.54,171.28125L317.73,156.515625L318.92,156.515625L320.10999999999996,186.046875L321.3,200.8125L322.49,230.34375L323.68,348.46875L324.87,318.9375L326.06,245.109375L327.25,171.28125L328.44,156.515625L329.63,200.8125L330.82,171.28125L332.01,200.8125L333.2,200.8125L334.39,230.34375L335.58,200.8125L336.77,186.046875L337.96,97.453125L339.15,215.578125L340.34000000000003,126.984375L341.53,230.34375L342.71999999999997,171.28125L343.91,141.75L345.1,215.578125L346.28999999999996,186.046875L347.48,230.34375L348.67,186.046875L349.86,126.984375L351.04999999999995,200.8125L352.24,245.109375L353.43,186.046875L354.62,245.109375L355.81,186.046875L357,274.640625L358.19000000000005,274.640625L359.38,259.875L360.57,230.34375L361.76000000000005,186.046875L362.95,97.453125L364.14,141.75L365.33000000000004,126.984375L366.52,186.046875L367.71000000000004,200.8125L368.90000000000003,97.453125L370.09,200.8125L371.28000000000003,274.640625L372.46999999999997,186.046875L373.65999999999997,141.75L374.85,141.75L376.03999999999996,289.40625L377.23,259.875L378.42,53.15625L379.60999999999996,230.34375L380.8,230.34375L381.99,259.875L383.17999999999995,112.21875L384.37,97.453125L385.56,112.21875L386.75,200.8125L387.94,245.109375L389.13000000000005,126.984375L390.32,274.640625L391.51,171.28125L392.70000000000005,112.21875L393.89,230.34375L395.08,200.8125L396.27000000000004,318.9375L397.46,171.28125L398.65000000000003,112.21875L399.84000000000003,126.984375L401.03,230.34375L402.22,289.40625L403.40999999999997,156.515625L404.59999999999997,171.28125L405.79,141.75L406.97999999999996,200.8125L408.17,200.8125L409.36,259.875L410.54999999999995,112.21875L411.74,200.8125L412.93,186.046875L414.11999999999995,259.875L415.31,289.40625L416.5,230.34375L417.69,230.34375L418.88,126.984375L420.07000000000005,171.28125L421.26,186.046875L422.45,245.109375L423.64000000000004,186.046875L424.83,186.046875L426.02,245.109375L427.21000000000004,53.15625L428.4,156.515625L429.59000000000003,215.578125L430.78000000000003,97.453125L431.96999999999997,186.046875L433.16,230.34375L434.34999999999997,186.046875L435.53999999999996,171.28125L436.73,126.984375L437.91999999999996,126.984375L439.11,126.984375L440.3,112.21875L441.48999999999995,126.984375L442.68,126.984375L443.87,289.40625L445.05999999999995,112.21875L446.25,67.921875L447.44000000000005,126.984375L448.63,186.046875L449.82,245.109375L451.01000000000005,186.046875L452.2,141.75L453.39,186.046875L454.58000000000004,171.28125L455.77,141.75L456.96000000000004,156.515625L458.15000000000003,200.8125L459.34,112.21875L460.53000000000003,82.6875L461.71999999999997,82.6875L462.90999999999997,186.046875L464.1,215.578125L465.28999999999996,112.21875L466.48,245.109375L467.67,215.578125L468.85999999999996,97.453125L470.05,156.515625L471.24,97.453125L472.42999999999995,141.75L473.62,112.21875L474.81,112.21875L476,200.8125L477.19,141.75L478.38000000000005,112.21875L479.57,171.28125L480.76,112.21875L481.95000000000005,141.75L483.14,141.75L484.33,53.15625L485.52000000000004,112.21875L486.71,126.984375L487.90000000000003,141.75L489.09000000000003,82.6875L490.28,97.453125L491.47,141.75L492.65999999999997,215.578125L493.84999999999997,186.046875L495.04,156.515625L496.22999999999996,171.28125L497.42,156.515625L498.61,200.8125L499.79999999999995,67.921875L500.99,141.75L502.18,156.515625L503.36999999999995,141.75L504.56,126.984375L505.75,97.453125L506.94,112.21875L508.13,156.515625L509.32000000000005,53.15625L510.51,112.21875L511.7,186.046875L512.89,156.515625L514.0799999999999,156.515625L515.27,82.6875L516.46,230.34375L517.65,156.515625L518.84,82.6875L520.0300000000001,141.75L521.22,67.921875L522.41,126.984375L523.5999999999999,141.75L524.79,245.109375L525.98,186.046875L527.17,156.515625L528.36,230.34375L529.5500000000001,200.8125L530.74,186.046875L531.93,156.515625L533.12,186.046875L534.31,97.453125L535.5,67.921875L536.69,186.046875L537.88,112.21875L539.07,186.046875L540.26,186.046875L541.4499999999999,112.21875L542.64,112.21875L543.83,186.046875L545.02,200.8125L546.21,200.8125L547.4000000000001,126.984375L548.59,82.6875L549.78,171.28125L550.9699999999999,126.984375L552.16,171.28125L553.35,126.984375L554.54,186.046875L555.73,67.921875L556.9200000000001,200.8125L558.11,245.109375L559.3,97.453125L560.49,230.34375L561.68,186.046875L562.87,186.046875L564.0600000000001,82.6875L565.25,126.984375L566.44,200.8125L567.63,171.28125L568.8199999999999,230.34375L570.01,126.984375L571.2,126.984375L572.39,67.921875L573.58,97.453125L574.77,171.28125L575.96,97.453125L577.15,126.984375L578.34,156.515625L579.53,141.75L580.72,67.921875L581.91,53.15625L583.1,97.453125L584.29,126.984375L585.48,97.453125L586.67,112.21875L587.86,82.6875L589.05,171.28125L590.24,126.984375L591.4300000000001,230.34375L592.62,186.046875L593.81,141.75L595,67.921875L596.1899999999999,200.8125L597.38,156.515625L598.57,141.75L599.76,171.28125L600.95,112.21875L602.14,126.984375L603.3299999999999,171.28125L604.52,215.578125L605.71,126.984375L606.9,141.75L608.09,53.15625L609.2800000000001,97.453125L610.47,156.515625L611.66,112.21875L612.8499999999999,200.8125L614.04,215.578125L615.23,97.453125L616.42,112.21875L617.61,171.28125L618.8000000000001,112.21875L619.99,186.046875L621.18,112.21875L622.37,141.75L623.56,112.21875L624.75,141.75L625.94,171.28125L627.13,97.453125L628.32,112.21875L629.51,126.984375L630.6999999999999,259.875L631.89,82.6875L633.08,230.34375L634.27,200.8125L635.46,171.28125L636.6500000000001,126.984375L637.84,97.453125L639.03,141.75L640.2199999999999,156.515625L641.41,186.046875L642.6,67.921875L643.79,245.109375L644.98,171.28125L646.1700000000001,126.984375L647.36,171.28125L648.55,156.515625L649.74,200.8125L650.93,171.28125L652.12,112.21875L653.3100000000001,8.859375L654.5,156.515625L655.69,8.859375L656.88,126.984375L658.0699999999999,112.21875L659.26,245.109375L660.45,23.625L661.64,82.6875L662.83,230.34375L664.02,38.390625L665.21,171.28125L666.4,23.625L667.59,156.515625L668.78,67.921875L669.97,230.34375L671.16,156.515625L672.35,53.15625L673.54,230.34375L674.73,200.8125L675.92,141.75L677.11,141.75L678.3,156.515625L679.49,97.453125L680.6800000000001,67.921875L681.87,67.921875L683.06,245.109375L684.25,67.921875L685.4399999999999,38.390625L686.63,112.21875L687.82,171.28125L689.01,156.515625L690.2,156.515625L691.39,200.8125L692.5799999999999,97.453125L693.77,126.984375L694.96,82.6875L696.15,126.984375L697.34,112.21875L698.5300000000001,23.625L699.72,-5.90625L700.91,97.453125L702.0999999999999,141.75L703.29,200.8125L704.48,186.046875L705.67,82.6875L706.86,156.515625L708.0500000000001,186.046875L709.24,67.921875L710.43,82.6875L711.62,82.6875L712.81,126.984375L714,38.390625L715.19,126.984375L716.3800000000001,156.515625L717.5699999999999,245.109375L718.76,126.984375L719.9499999999999,112.21875L721.14,141.75L722.33,67.921875L723.5200000000001,141.75L724.7099999999999,97.453125L725.9,141.75L727.09,200.8125L728.28,53.15625L729.47,53.15625L730.6600000000001,97.453125L731.8499999999999,126.984375L733.04,141.75L734.23,156.515625L735.4200000000001,156.515625L736.61,141.75L737.8000000000001,186.046875L738.9899999999999,97.453125L740.18,126.984375L741.37,126.984375L742.5600000000001,141.75L743.75,112.21875L744.9399999999999,141.75L746.13,126.984375L747.3199999999999,97.453125L748.51,200.8125L749.7,186.046875L750.8900000000001,97.453125L752.0799999999999,126.984375L753.27,126.984375L754.46,53.15625L755.65,141.75L756.84,141.75L758.0300000000001,67.921875L759.2199999999999,112.21875L760.41,126.984375L761.6,112.21875L762.79,171.28125L763.98,112.21875L765.1700000000001,245.109375L766.3599999999999,67.921875L767.55,141.75L768.74,53.15625L769.9300000000001,97.453125L771.12,112.21875L772.3100000000001,156.515625L773.5,126.984375L774.6899999999999,53.15625L775.88,126.984375L777.07,53.15625L778.2600000000001,82.6875L779.4499999999999,82.6875L780.64,200.8125L781.8299999999999,215.578125L783.02,126.984375L784.21,67.921875L785.4000000000001,141.75L786.5899999999999,171.28125L787.78,23.625L788.97,186.046875L790.16,112.21875L791.35,112.21875L792.5400000000001,126.984375L793.7299999999999,141.75L794.92,97.453125L796.11,156.515625L797.3000000000001,38.390625L798.49,97.453125L799.6800000000001,126.984375L800.8699999999999,156.515625L802.06,141.75L803.25,200.8125L804.44,97.453125L805.6300000000001,97.453125L806.8199999999999,38.390625L808.01,141.75L809.1999999999999,141.75L810.39,97.453125L811.58,126.984375L812.7700000000001,126.984375L813.9599999999999,171.28125L815.15,82.6875L816.34,186.046875L817.53,126.984375L818.72,171.28125L819.9100000000001,141.75L821.0999999999999,171.28125L822.29,186.046875L823.48,53.15625L824.6700000000001,245.109375L825.86,112.21875L827.0500000000001,112.21875L828.2399999999999,126.984375L829.43,97.453125L830.62,53.15625L831.8100000000001,82.6875L833,156.515625L834.1899999999999,67.921875L835.38,171.28125L836.5699999999999,126.984375L837.76,200.8125L838.95,82.6875L840.1400000000001,171.28125L841.3299999999999,112.21875L842.52,141.75L843.71,38.390625L844.9,82.6875L846.09,8.859375L847.2800000000001,171.28125L848.4699999999999,156.515625L849.66,156.515625L850.85,156.515625L852.04,171.28125L853.23,171.28125L854.4200000000001,171.28125L855.6099999999999,126.984375L856.8,82.6875L857.99,8.859375L859.1800000000001,156.515625L860.37,82.6875L861.5600000000001,171.28125L862.75,82.6875L863.9399999999999,186.046875L865.13,156.515625L866.32,156.515625L867.5100000000001,82.6875L868.6999999999999,156.515625L869.89,97.453125L871.0799999999999,126.984375L872.27,126.984375L873.46,126.984375L874.6500000000001,186.046875L875.8399999999999,126.984375L877.03,215.578125L878.22,230.34375L879.41,186.046875L880.6,141.75L881.7900000000001,112.21875L882.9799999999999,67.921875L884.17,82.6875L885.36,230.34375L886.5500000000001,200.8125L887.74,126.984375L888.9300000000001,67.921875L890.1199999999999,53.15625L891.31,141.75L892.5,171.28125L893.69,112.21875L894.8800000000001,126.984375L896.0699999999999,141.75L897.26,82.6875L898.4499999999999,8.859375L899.64,67.921875L900.83,53.15625L902.0200000000001,97.453125L903.2099999999999,200.8125L904.4,53.15625L905.59,8.859375L906.78,186.046875L907.97,112.21875L909.1600000000001,53.15625L910.3499999999999,171.28125L911.54,141.75L912.73,67.921875L913.9200000000001,82.6875L915.11,67.921875L916.3000000000001,156.515625L917.4899999999999,171.28125L918.68,67.921875L919.87,171.28125L921.0600000000001,186.046875L922.25,112.21875L923.4399999999999,112.21875L924.63,97.453125L925.8199999999999,53.15625L927.01,171.28125L928.2,112.21875L929.3900000000001,141.75L930.5799999999999,82.6875L931.77,97.453125L932.96,67.921875L934.15,97.453125L935.34,97.453125L936.5300000000001,171.28125L937.7199999999999,126.984375L938.91,38.390625L940.1,112.21875L941.29,53.15625L942.48,67.921875L943.6700000000001,112.21875L944.8599999999999,171.28125L946.05,67.921875L947.24,126.984375L948.4300000000001,67.921875L949.62,8.859375L950.8100000000001,67.921875L952,112.21875L953.1899999999999,171.28125L954.38,186.046875L955.57,112.21875L956.7600000000001,186.046875L957.9499999999999,112.21875L959.14,126.984375L960.3299999999999,156.515625L961.52,112.21875L962.71,67.921875L963.9000000000001,156.515625L965.0899999999999,141.75L966.28,82.6875L967.47,97.453125L968.66,82.6875L969.85,97.453125L971.0400000000001,82.6875L972.2299999999999,8.859375L973.42,112.21875L974.61,126.984375L975.8000000000001,156.515625L976.99,141.75L978.1800000000001,97.453125L979.3699999999999,53.15625L980.56,112.21875L981.75,112.21875L982.94,82.6875L984.1300000000001,97.453125L985.3199999999999,112.21875L986.51,8.859375L987.6999999999999,112.21875L988.89,200.8125L990.08,8.859375L991.2700000000001,126.984375L992.4599999999999,126.984375L993.65,141.75L994.84,38.390625L996.03,67.921875L997.22,53.15625L998.4100000000001,112.21875L999.5999999999999,171.28125L1000.79,82.6875L1001.98,186.046875L1003.1700000000001,126.984375L1004.36,97.453125L1005.5500000000001,156.515625L1006.7399999999999,53.15625L1007.93,126.984375L1009.12,156.515625L1010.3100000000001,82.6875L1011.5,156.515625L1012.6899999999999,156.515625L1013.88,112.21875L1015.0699999999999,112.21875L1016.26,171.28125L1017.45,112.21875L1018.6400000000001,97.453125L1019.8299999999999,126.984375L1021.02,23.625L1022.21,23.625L1023.4,97.453125L1024.5900000000001,38.390625L1025.78,53.15625L1026.97,126.984375L1028.1599999999999,53.15625L1029.35,38.390625L1030.54,171.28125L1031.73,67.921875L1032.92,245.109375L1034.11,112.21875L1035.3,82.6875L1036.49,171.28125L1037.68,38.390625L1038.8700000000001,141.75L1040.0600000000002,67.921875L1041.25,156.515625L1042.44,141.75L1043.63,97.453125L1044.82,67.921875L1046.01,200.8125L1047.1999999999998,82.6875L1048.3899999999999,126.984375L1049.58,82.6875L1050.77,112.21875L1051.96,82.6875L1053.15,171.28125L1054.34,8.859375L1055.53,156.515625L1056.72,38.390625L1057.91,97.453125L1059.1000000000001,112.21875L1060.29,126.984375L1061.48,53.15625L1062.67,156.515625L1063.86,38.390625L1065.05,171.28125L1066.24,112.21875L1067.43,171.28125L1068.62,200.8125L1069.81,141.75L1071,126.984375L1072.19,97.453125L1073.38,156.515625L1074.57,126.984375L1075.76,186.046875L1076.95,112.21875L1078.14,141.75L1079.33,82.6875L1080.52,186.046875L1081.71,23.625L1082.8999999999999,97.453125L1084.09,215.578125L1085.28,200.8125L1086.47,141.75L1087.66,126.984375L1088.85,53.15625L1090.04,67.921875L1091.23,97.453125L1092.42,8.859375L1093.6100000000001,112.21875L1094.8000000000002,112.21875L1095.99,171.28125L1097.18,112.21875L1098.37,97.453125L1099.56,53.15625L1100.75,141.75L1101.9399999999998,97.453125L1103.1299999999999,112.21875L1104.32,274.640625L1105.51,67.921875L1106.7,141.75L1107.89,112.21875L1109.08,97.453125L1110.27,53.15625L1111.46,112.21875L1112.65,171.28125L1113.8400000000001,67.921875L1115.03,67.921875L1116.22,97.453125L1117.4099999999999,171.28125L1118.6,53.15625L1119.79,200.8125L1120.98,126.984375L1122.17,82.6875L1123.36,8.859375L1124.55,67.921875L1125.74,82.6875L1126.93,97.453125L1128.1200000000001,126.984375L1129.3100000000002,215.578125L1130.5,126.984375L1131.69,141.75L1132.88,97.453125L1134.07,53.15625L1135.26,67.921875L1136.4499999999998,82.6875L1137.6399999999999,97.453125L1138.83,171.28125L1140.02,82.6875L1141.21,67.921875L1142.4,82.6875L1143.59,82.6875L1144.78,186.046875L1145.97,156.515625L1147.16,67.921875L1148.3500000000001,97.453125L1149.54,82.6875L1150.73,112.21875L1151.92,112.21875L1153.11,97.453125L1154.3,67.921875L1155.49,156.515625L1156.68,230.34375L1157.87,112.21875L1159.06,141.75L1160.25,112.21875L1161.44,67.921875L1162.63,23.625L1163.82,126.984375L1165.01,112.21875L1166.2,112.21875L1167.39,112.21875L1168.58,97.453125L1169.77,112.21875L1170.96,141.75L1172.1499999999999,67.921875L1173.34,97.453125L1174.53,53.15625L1175.72,23.625L1176.91,82.6875L1178.1,141.75L1179.29,82.6875L1180.48,141.75L1181.67,38.390625L1182.8600000000001,97.453125L1184.0500000000002,38.390625L1185.24,171.28125L1186.43,141.75L1187.62,156.515625L1188.81,171.28125L1190,97.453125L1191.1899999999998,53.15625L1192.3799999999999,38.390625L1193.57,112.21875L1194.76,97.453125L1195.95,53.15625L1197.14,38.390625L1198.33,126.984375L1199.52,156.515625L1200.71,141.75L1201.9,53.15625L1203.0900000000001,171.28125L1204.28,82.6875L1205.47,141.75L1206.6599999999999,126.984375L1207.85,141.75L1209.04,97.453125L1210.23,97.453125L1211.42,156.515625L1212.61,141.75L1213.8,97.453125L1214.99,126.984375L1216.18,82.6875L1217.3700000000001,156.515625L1218.5600000000002,97.453125L1219.75,112.21875L1220.94,8.859375L1222.13,53.15625L1223.32,97.453125L1224.51,186.046875L1225.6999999999998,97.453125L1226.8899999999999,97.453125L1228.08,67.921875L1229.27,112.21875L1230.46,97.453125L1231.65,126.984375L1232.84,112.21875L1234.03,141.75L1235.22,112.21875L1236.41,171.28125L1237.6000000000001,186.046875L1238.79,200.8125L1239.98,67.921875L1241.17,112.21875L1242.36,38.390625L1243.55,67.921875L1244.74,156.515625L1245.93,23.625L1247.12,171.28125L1248.31,82.6875L1249.5,82.6875L1250.69,186.046875L1251.88,8.859375L1253.07,67.921875L1254.26,112.21875L1255.45,82.6875L1256.64,112.21875L1257.83,67.921875L1259.02,156.515625L1260.21,112.21875L1261.3999999999999,-5.90625L1262.59,112.21875L1263.78,82.6875L1264.97,67.921875L1266.16,82.6875L1267.35,171.28125L1268.54,67.921875L1269.73,67.921875L1270.92,97.453125L1272.1100000000001,67.921875L1273.3000000000002,126.984375L1274.49,126.984375L1275.68,141.75L1276.87,53.15625L1278.06,97.453125L1279.25,112.21875L1280.4399999999998,112.21875L1281.6299999999999,171.28125L1282.82,215.578125L1284.01,67.921875L1285.2,259.875L1286.39,126.984375L1287.58,186.046875L1288.77,112.21875L1289.96,126.984375L1291.15,112.21875L1292.3400000000001,141.75L1293.53,141.75L1294.72,112.21875L1295.9099999999999,67.921875L1297.1,112.21875L1298.29,38.390625L1299.48,67.921875L1300.67,82.6875L1301.86,97.453125L1303.05,53.15625L1304.24,112.21875L1305.43,126.984375L1306.6200000000001,82.6875L1307.8100000000002,53.15625" style="fill: none;" fill="none"></path></g></g></g></g></g></g><g transform="translate(70, 378)" clip-path="url(#clip_1)"><clipPath id="clip_1"><rect width="1428" height="22"></rect></clipPath><g><g><line x1="0" y1="0" x2="0" y2="5" style="visibility: inherit;" fill="rgb(0, 0, 0)" stroke="rgb(204, 204, 204)" stroke-width="1px"></line><line x1="119" y1="0" x2="119" y2="5" style="visibility: inherit;" fill="rgb(0, 0, 0)" stroke="rgb(204, 204, 204)" stroke-width="1px"></line><line x1="238" y1="0" x2="238" y2="5" style="visibility: inherit;" fill="rgb(0, 0, 0)" stroke="rgb(204, 204, 204)" stroke-width="1px"></line><line x1="357" y1="0" x2="357" y2="5" style="visibility: inherit;" fill="rgb(0, 0, 0)" stroke="rgb(204, 204, 204)" stroke-width="1px"></line><line x1="476" y1="0" x2="476" y2="5" style="visibility: inherit;" fill="rgb(0, 0, 0)" stroke="rgb(204, 204, 204)" stroke-width="1px"></line><line x1="595" y1="0" x2="595" y2="5" style="visibility: inherit;" fill="rgb(0, 0, 0)" stroke="rgb(204, 204, 204)" stroke-width="1px"></line><line x1="714" y1="0" x2="714" y2="5" style="visibility: inherit;" fill="rgb(0, 0, 0)" stroke="rgb(204, 204, 204)" stroke-width="1px"></line><line x1="833" y1="0" x2="833" y2="5" style="visibility: inherit;" fill="rgb(0, 0, 0)" stroke="rgb(204, 204, 204)" stroke-width="1px"></line><line x1="952" y1="0" x2="952" y2="5" style="visibility: inherit;" fill="rgb(0, 0, 0)" stroke="rgb(204, 204, 204)" stroke-width="1px"></line><line x1="1071" y1="0" x2="1071" y2="5" style="visibility: inherit;" fill="rgb(0, 0, 0)" stroke="rgb(204, 204, 204)" stroke-width="1px"></line><line x1="1190" y1="0" x2="1190" y2="5" style="visibility: inherit;" fill="rgb(0, 0, 0)" stroke="rgb(204, 204, 204)" stroke-width="1px"></line><line x1="1309" y1="0" x2="1309" y2="5" style="visibility: inherit;" fill="rgb(0, 0, 0)" stroke="rgb(204, 204, 204)" stroke-width="1px"></line><line x1="1428" y1="0" x2="1428" y2="5" style="visibility: inherit;" fill="rgb(0, 0, 0)" stroke="rgb(204, 204, 204)" stroke-width="1px"></line></g><g transform="translate(0, 8)"><text x="0" y="0" dx="0em" dy="0.95em" style="text-anchor: middle; visibility: hidden; font-family: &quot;Helvetica Neue&quot;, sans-serif; font-size: 12px; font-weight: 200;" fill="rgb(50, 49, 63)" stroke="none" stroke-width="1px">-100.0</text><text x="119" y="0" dx="0em" dy="0.95em" style="text-anchor: middle; visibility: inherit; font-family: &quot;Helvetica Neue&quot;, sans-serif; font-size: 12px; font-weight: 200;" fill="rgb(50, 49, 63)" stroke="none" stroke-width="1px">0.000</text><text x="238" y="0" dx="0em" dy="0.95em" style="text-anchor: middle; visibility: inherit; font-family: &quot;Helvetica Neue&quot;, sans-serif; font-size: 12px; font-weight: 200;" fill="rgb(50, 49, 63)" stroke="none" stroke-width="1px">100.0</text><text x="357" y="0" dx="0em" dy="0.95em" style="text-anchor: middle; visibility: inherit; font-family: &quot;Helvetica Neue&quot;, sans-serif; font-size: 12px; font-weight: 200;" fill="rgb(50, 49, 63)" stroke="none" stroke-width="1px">200.0</text><text x="476" y="0" dx="0em" dy="0.95em" style="text-anchor: middle; visibility: inherit; font-family: &quot;Helvetica Neue&quot;, sans-serif; font-size: 12px; font-weight: 200;" fill="rgb(50, 49, 63)" stroke="none" stroke-width="1px">300.0</text><text x="595" y="0" dx="0em" dy="0.95em" style="text-anchor: middle; visibility: inherit; font-family: &quot;Helvetica Neue&quot;, sans-serif; font-size: 12px; font-weight: 200;" fill="rgb(50, 49, 63)" stroke="none" stroke-width="1px">400.0</text><text x="714" y="0" dx="0em" dy="0.95em" style="text-anchor: middle; visibility: inherit; font-family: &quot;Helvetica Neue&quot;, sans-serif; font-size: 12px; font-weight: 200;" fill="rgb(50, 49, 63)" stroke="none" stroke-width="1px">500.0</text><text x="833" y="0" dx="0em" dy="0.95em" style="text-anchor: middle; visibility: inherit; font-family: &quot;Helvetica Neue&quot;, sans-serif; font-size: 12px; font-weight: 200;" fill="rgb(50, 49, 63)" stroke="none" stroke-width="1px">600.0</text><text x="952" y="0" dx="0em" dy="0.95em" style="text-anchor: middle; visibility: inherit; font-family: &quot;Helvetica Neue&quot;, sans-serif; font-size: 12px; font-weight: 200;" fill="rgb(50, 49, 63)" stroke="none" stroke-width="1px">700.0</text><text x="1071" y="0" dx="0em" dy="0.95em" style="text-anchor: middle; visibility: inherit; font-family: &quot;Helvetica Neue&quot;, sans-serif; font-size: 12px; font-weight: 200;" fill="rgb(50, 49, 63)" stroke="none" stroke-width="1px">800.0</text><text x="1190" y="0" dx="0em" dy="0.95em" style="text-anchor: middle; visibility: inherit; font-family: &quot;Helvetica Neue&quot;, sans-serif; font-size: 12px; font-weight: 200;" fill="rgb(50, 49, 63)" stroke="none" stroke-width="1px">900.0</text><text x="1309" y="0" dx="0em" dy="0.95em" style="text-anchor: middle; visibility: inherit; font-family: &quot;Helvetica Neue&quot;, sans-serif; font-size: 12px; font-weight: 200;" fill="rgb(50, 49, 63)" stroke="none" stroke-width="1px">1.000k</text><text x="1428" y="0" dx="0em" dy="0.95em" style="text-anchor: middle; visibility: hidden; font-family: &quot;Helvetica Neue&quot;, sans-serif; font-size: 12px; font-weight: 200;" fill="rgb(50, 49, 63)" stroke="none" stroke-width="1px">1.100k</text></g><line x1="0" y1="0" x2="1428" y2="0" fill="rgb(0, 0, 0)" stroke="rgb(204, 204, 204)" stroke-width="1px"></line></g></g></g></g></svg>